<svg width="64" height="64" viewBox="0 0 64 64" fill="none" xmlns="http://www.w3.org/2000/svg">
<mask id="path-1-inside-1_555_1272" fill="white">
<path d="M63.2369 35.5758C63.0057 35.5476 62.7971 35.7168 62.7717 35.9452C62.109 41.7568 59.825 47.1933 56.1593 51.7215C55.8886 50.6923 55.4149 49.7139 54.4392 49.4629C53.4805 49.2148 52.6993 49.8097 51.9465 50.3849C51.25 50.9151 50.5902 51.417 49.8514 51.245C49.1662 51.0842 48.4528 50.3821 47.9425 49.367C47.2403 47.974 47.0993 46.3498 47.5844 45.2303C48.1173 44.0009 49.3044 43.5187 50.5592 43.0083C51.9438 42.4472 53.3734 41.8635 53.9542 40.2393C54.3293 39.1904 54.084 38.4064 53.8443 37.6508C53.7005 37.1912 53.551 36.7174 53.5285 36.1479C53.52 35.9166 53.3283 35.7362 53.0914 35.7446C52.8602 35.7531 52.6797 35.9505 52.6882 36.1817C52.7164 36.8613 52.8912 37.4139 53.0435 37.9018C53.2662 38.6124 53.4439 39.1735 53.1619 39.9574C52.7079 41.2291 51.5123 41.7142 50.2434 42.2301C48.8871 42.7828 47.4828 43.3524 46.8117 44.8977C46.1068 46.5247 46.5438 48.4703 47.1896 49.7505C47.8212 51.0054 48.7235 51.8513 49.6597 52.0712C50.7848 52.3334 51.6731 51.6567 52.4569 51.0617C53.1055 50.5683 53.6666 50.1397 54.2306 50.2863C54.8114 50.4358 55.2119 51.1576 55.4826 52.545C55.006 53.0948 54.5013 53.6362 53.9825 54.1579C46.073 62.0674 34.5065 65.0451 23.7572 61.9548C23.292 61.1004 22.7421 60.3193 22.1105 59.6341C21.9526 59.4621 21.7749 59.2816 21.5888 59.0899C20.5766 58.055 19.3161 56.7692 19.5219 55.348C19.6826 54.2512 20.709 53.0612 22.2035 52.2434C23.8023 51.3665 25.5055 51.1437 26.6475 51.6597C28.0461 52.2914 28.3731 53.9438 28.7144 55.6892C29.0781 57.539 29.4531 59.4479 31.1676 60.3136C32.7721 61.1229 35.2619 60.7676 37.6672 59.3859C39.6439 58.2495 41.8038 56.208 41.942 53.8901C42.0491 52.0826 40.7605 51.0562 39.3986 49.9706C37.9859 48.8455 36.5252 47.6809 36.3081 45.4786C36.0318 42.6617 37.3486 40.4087 38.6203 38.2318C39.94 35.9732 41.1863 33.8386 40.2784 31.4502C39.2238 28.653 35.5185 26.5607 33.0682 27.3841C30.9731 28.0891 30.5839 30.5338 30.1694 33.1195C29.7549 35.7166 29.3263 38.4038 27.2397 39.7432C24.9161 41.2377 22.8408 39.512 20.6442 37.6876C18.3827 35.8068 16.0423 33.8611 13.4876 35.9054C8.36115 40.0054 5.39183 37.6453 3.42619 36.0803C2.80019 35.584 2.19959 35.1074 1.67227 35.099C1.51718 33.3225 1.52 31.5319 1.67791 29.7611C2.71841 30.1249 3.77868 30.3307 4.84452 30.3674C6.61533 30.4294 9.71148 30.2574 10.5574 28.4133C10.9832 27.4856 10.6082 26.6227 10.2755 25.8585C9.97374 25.1621 9.7115 24.5586 9.97938 23.9467C10.2755 23.2672 11.1721 22.6581 12.2634 22.3959C13.2419 22.1618 14.1499 22.2662 14.6377 22.6694C15.3737 23.2757 15.0804 24.6179 14.7731 26.0391C14.4121 27.7056 14.0005 29.592 15.1284 30.9173C16.0476 31.9973 17.6916 32.3807 19.2847 32.3807C19.8431 32.3807 20.3958 32.3328 20.9117 32.2539C22.9448 31.9352 25.3924 30.9398 26.1565 29.1013C26.729 27.7281 26.1058 26.462 25.4459 25.1226C24.7128 23.6338 23.9543 22.0942 24.4703 20.0441C24.7325 19.0008 25.1809 18.4031 25.6123 17.8222C26.1339 17.1257 26.6245 16.4659 26.5766 15.2702C26.5061 13.4768 25.2851 12.2587 24.3039 11.2803C23.5792 10.5584 22.956 9.93521 23.1083 9.38536C23.2437 8.90036 23.8725 8.71144 24.8876 8.44355C25.9281 8.17002 27.2224 7.82883 28.1049 6.79112C29.0383 5.69425 29.3175 4.05872 28.9396 1.92416C30.42 1.76343 31.9257 1.70985 33.4258 1.76343C32.5038 4.20817 32.2471 7.41145 33.6796 9.54586C34.6186 10.9445 36.1666 11.6776 38.1715 11.6776C38.2449 11.6776 38.3154 11.6776 38.3887 11.6748C39.7281 11.6409 40.4528 10.5046 41.1549 9.40488C41.7414 8.48565 42.2968 7.6171 43.1287 7.4536L43.1795 7.44232C43.4107 7.42258 43.5827 7.21956 43.563 6.98833C43.5432 6.75711 43.3374 6.58511 43.109 6.60484C43.0751 6.60766 43.0413 6.6133 43.0075 6.61894L42.9793 6.62458C41.7808 6.85863 41.1013 7.9217 40.4443 8.95094C39.8352 9.90683 39.2572 10.8092 38.3661 10.8318C36.536 10.8825 35.1911 10.2875 34.3762 9.07503C33.0706 7.12938 33.4174 4.01071 34.3113 1.80873C37.6527 2.03149 40.9068 2.7844 43.9807 4.05611C44.195 4.14634 44.4431 4.04201 44.5306 3.82771C44.6208 3.6134 44.5165 3.36808 44.3021 3.27785C41.0481 1.93279 37.6024 1.14892 34.0603 0.948673C32.1626 0.841519 30.2536 0.906376 28.3841 1.1376C21.3515 2.00045 14.9761 5.11349 9.95122 10.1385C4.8643 15.2255 1.64687 21.9533 0.891079 29.0817C0.88262 29.1156 0.8798 29.1494 0.8798 29.1804C0.651395 31.3573 0.651395 33.5652 0.8798 35.7478C0.8798 35.7534 0.8798 35.7619 0.88262 35.7675C1.63553 42.9184 4.85288 49.6605 9.94853 54.7562C13.6763 58.484 18.2976 61.2333 23.3146 62.7083C23.3259 62.7139 23.3372 62.7167 23.3484 62.7195C26.2838 63.5824 29.2784 63.9997 32.2505 63.9997C40.5043 63.9997 48.5632 60.7597 54.5691 54.7562C55.1528 54.1725 55.7168 53.5635 56.2469 52.9431C60.3441 48.1579 62.8875 42.3151 63.6034 36.0529C63.6288 35.8217 63.4653 35.613 63.234 35.5876L63.2369 35.5758ZM10.5494 10.7219C15.3487 5.92267 21.4084 2.91928 28.1023 2.01189C28.4463 3.90679 28.232 5.32511 27.4622 6.23033C26.7516 7.06495 25.6463 7.35543 24.6706 7.61487C23.5878 7.89967 22.567 8.17037 22.2963 9.14602C22.0115 10.1696 22.8349 10.993 23.709 11.8615C24.631 12.7807 25.6744 13.8241 25.7336 15.2875C25.7703 16.187 25.4178 16.6551 24.9356 17.3037C24.4985 17.8874 23.9543 18.6177 23.6526 19.8218C23.0605 22.1735 23.9628 24.0064 24.6903 25.4782C25.3135 26.7415 25.8042 27.7397 25.3783 28.7605C24.8595 30.0097 23.0548 31.0502 20.7821 31.4055C18.5742 31.7523 16.6088 31.3406 15.7713 30.3565C14.9141 29.3471 15.2609 27.7482 15.5965 26.203C15.9461 24.5985 16.3071 22.9377 15.1735 22.0043C14.4742 21.4291 13.3125 21.2628 12.0661 21.5616C10.7042 21.8887 9.61009 22.6669 9.20686 23.5975C8.79517 24.545 9.1702 25.4162 9.50294 26.1804C9.80184 26.8684 10.0584 27.4634 9.79056 28.0499C9.32812 29.0565 7.49243 29.6036 4.87285 29.5133C3.82954 29.4767 2.78622 29.2652 1.76543 28.8845C2.55501 22.0465 5.66517 15.6058 10.552 10.7224L10.5494 10.7219ZM10.5494 54.1494C5.65711 49.2571 2.54391 42.8053 1.75708 35.9533C1.99395 36.0069 2.47049 36.3847 2.89907 36.7259C4.80805 38.243 8.35818 41.0684 14.0093 36.5483C16.0283 34.9353 17.9147 36.5032 20.1001 38.3219C22.3248 40.1717 24.8457 42.2668 27.6883 40.4396C30.0936 38.8972 30.573 35.8912 30.9959 33.2406C31.3822 30.8128 31.7178 28.7149 33.3307 28.1707C35.3666 27.4883 38.5868 29.355 39.4863 31.7377C40.2504 33.751 39.1564 35.6262 37.8875 37.7974C36.6101 39.9827 35.1636 42.4613 35.4653 45.5517C35.7162 48.1092 37.3912 49.443 38.8687 50.6216C40.1602 51.648 41.1781 52.4601 41.0963 53.8334C41.0004 55.466 39.4862 57.3581 37.2417 58.6496C35.1128 59.8733 32.8766 60.2286 31.5429 59.5575C30.1979 58.878 29.8764 57.2481 29.5381 55.5196C29.1687 53.6387 28.7852 51.6959 26.989 50.8838C25.6101 50.2606 23.6194 50.4975 21.7922 51.4957C20.0439 52.4544 18.8822 53.8446 18.6819 55.2178C18.4169 57.0507 19.8973 58.562 20.9801 59.6674C21.1605 59.8507 21.3326 60.0284 21.4848 60.1919C21.874 60.6121 22.2264 61.0774 22.5479 61.5679C18.056 60.0735 13.9252 57.5243 10.5498 54.1464L10.5494 54.1494Z"/>
</mask>
<path d="M63.2369 35.5758C63.0057 35.5476 62.7971 35.7168 62.7717 35.9452C62.109 41.7568 59.825 47.1933 56.1593 51.7215C55.8886 50.6923 55.4149 49.7139 54.4392 49.4629C53.4805 49.2148 52.6993 49.8097 51.9465 50.3849C51.25 50.9151 50.5902 51.417 49.8514 51.245C49.1662 51.0842 48.4528 50.3821 47.9425 49.367C47.2403 47.974 47.0993 46.3498 47.5844 45.2303C48.1173 44.0009 49.3044 43.5187 50.5592 43.0083C51.9438 42.4472 53.3734 41.8635 53.9542 40.2393C54.3293 39.1904 54.084 38.4064 53.8443 37.6508C53.7005 37.1912 53.551 36.7174 53.5285 36.1479C53.52 35.9166 53.3283 35.7362 53.0914 35.7446C52.8602 35.7531 52.6797 35.9505 52.6882 36.1817C52.7164 36.8613 52.8912 37.4139 53.0435 37.9018C53.2662 38.6124 53.4439 39.1735 53.1619 39.9574C52.7079 41.2291 51.5123 41.7142 50.2434 42.2301C48.8871 42.7828 47.4828 43.3524 46.8117 44.8977C46.1068 46.5247 46.5438 48.4703 47.1896 49.7505C47.8212 51.0054 48.7235 51.8513 49.6597 52.0712C50.7848 52.3334 51.6731 51.6567 52.4569 51.0617C53.1055 50.5683 53.6666 50.1397 54.2306 50.2863C54.8114 50.4358 55.2119 51.1576 55.4826 52.545C55.006 53.0948 54.5013 53.6362 53.9825 54.1579C46.073 62.0674 34.5065 65.0451 23.7572 61.9548C23.292 61.1004 22.7421 60.3193 22.1105 59.6341C21.9526 59.4621 21.7749 59.2816 21.5888 59.0899C20.5766 58.055 19.3161 56.7692 19.5219 55.348C19.6826 54.2512 20.709 53.0612 22.2035 52.2434C23.8023 51.3665 25.5055 51.1437 26.6475 51.6597C28.0461 52.2914 28.3731 53.9438 28.7144 55.6892C29.0781 57.539 29.4531 59.4479 31.1676 60.3136C32.7721 61.1229 35.2619 60.7676 37.6672 59.3859C39.6439 58.2495 41.8038 56.208 41.942 53.8901C42.0491 52.0826 40.7605 51.0562 39.3986 49.9706C37.9859 48.8455 36.5252 47.6809 36.3081 45.4786C36.0318 42.6617 37.3486 40.4087 38.6203 38.2318C39.94 35.9732 41.1863 33.8386 40.2784 31.4502C39.2238 28.653 35.5185 26.5607 33.0682 27.3841C30.9731 28.0891 30.5839 30.5338 30.1694 33.1195C29.7549 35.7166 29.3263 38.4038 27.2397 39.7432C24.9161 41.2377 22.8408 39.512 20.6442 37.6876C18.3827 35.8068 16.0423 33.8611 13.4876 35.9054C8.36115 40.0054 5.39183 37.6453 3.42619 36.0803C2.80019 35.584 2.19959 35.1074 1.67227 35.099C1.51718 33.3225 1.52 31.5319 1.67791 29.7611C2.71841 30.1249 3.77868 30.3307 4.84452 30.3674C6.61533 30.4294 9.71148 30.2574 10.5574 28.4133C10.9832 27.4856 10.6082 26.6227 10.2755 25.8585C9.97374 25.1621 9.7115 24.5586 9.97938 23.9467C10.2755 23.2672 11.1721 22.6581 12.2634 22.3959C13.2419 22.1618 14.1499 22.2662 14.6377 22.6694C15.3737 23.2757 15.0804 24.6179 14.7731 26.0391C14.4121 27.7056 14.0005 29.592 15.1284 30.9173C16.0476 31.9973 17.6916 32.3807 19.2847 32.3807C19.8431 32.3807 20.3958 32.3328 20.9117 32.2539C22.9448 31.9352 25.3924 30.9398 26.1565 29.1013C26.729 27.7281 26.1058 26.462 25.4459 25.1226C24.7128 23.6338 23.9543 22.0942 24.4703 20.0441C24.7325 19.0008 25.1809 18.4031 25.6123 17.8222C26.1339 17.1257 26.6245 16.4659 26.5766 15.2702C26.5061 13.4768 25.2851 12.2587 24.3039 11.2803C23.5792 10.5584 22.956 9.93521 23.1083 9.38536C23.2437 8.90036 23.8725 8.71144 24.8876 8.44355C25.9281 8.17002 27.2224 7.82883 28.1049 6.79112C29.0383 5.69425 29.3175 4.05872 28.9396 1.92416C30.42 1.76343 31.9257 1.70985 33.4258 1.76343C32.5038 4.20817 32.2471 7.41145 33.6796 9.54586C34.6186 10.9445 36.1666 11.6776 38.1715 11.6776C38.2449 11.6776 38.3154 11.6776 38.3887 11.6748C39.7281 11.6409 40.4528 10.5046 41.1549 9.40488C41.7414 8.48565 42.2968 7.6171 43.1287 7.4536L43.1795 7.44232C43.4107 7.42258 43.5827 7.21956 43.563 6.98833C43.5432 6.75711 43.3374 6.58511 43.109 6.60484C43.0751 6.60766 43.0413 6.6133 43.0075 6.61894L42.9793 6.62458C41.7808 6.85863 41.1013 7.9217 40.4443 8.95094C39.8352 9.90683 39.2572 10.8092 38.3661 10.8318C36.536 10.8825 35.1911 10.2875 34.3762 9.07503C33.0706 7.12938 33.4174 4.01071 34.3113 1.80873C37.6527 2.03149 40.9068 2.7844 43.9807 4.05611C44.195 4.14634 44.4431 4.04201 44.5306 3.82771C44.6208 3.6134 44.5165 3.36808 44.3021 3.27785C41.0481 1.93279 37.6024 1.14892 34.0603 0.948673C32.1626 0.841519 30.2536 0.906376 28.3841 1.1376C21.3515 2.00045 14.9761 5.11349 9.95122 10.1385C4.8643 15.2255 1.64687 21.9533 0.891079 29.0817C0.88262 29.1156 0.8798 29.1494 0.8798 29.1804C0.651395 31.3573 0.651395 33.5652 0.8798 35.7478C0.8798 35.7534 0.8798 35.7619 0.88262 35.7675C1.63553 42.9184 4.85288 49.6605 9.94853 54.7562C13.6763 58.484 18.2976 61.2333 23.3146 62.7083C23.3259 62.7139 23.3372 62.7167 23.3484 62.7195C26.2838 63.5824 29.2784 63.9997 32.2505 63.9997C40.5043 63.9997 48.5632 60.7597 54.5691 54.7562C55.1528 54.1725 55.7168 53.5635 56.2469 52.9431C60.3441 48.1579 62.8875 42.3151 63.6034 36.0529C63.6288 35.8217 63.4653 35.613 63.234 35.5876L63.2369 35.5758ZM10.5494 10.7219C15.3487 5.92267 21.4084 2.91928 28.1023 2.01189C28.4463 3.90679 28.232 5.32511 27.4622 6.23033C26.7516 7.06495 25.6463 7.35543 24.6706 7.61487C23.5878 7.89967 22.567 8.17037 22.2963 9.14602C22.0115 10.1696 22.8349 10.993 23.709 11.8615C24.631 12.7807 25.6744 13.8241 25.7336 15.2875C25.7703 16.187 25.4178 16.6551 24.9356 17.3037C24.4985 17.8874 23.9543 18.6177 23.6526 19.8218C23.0605 22.1735 23.9628 24.0064 24.6903 25.4782C25.3135 26.7415 25.8042 27.7397 25.3783 28.7605C24.8595 30.0097 23.0548 31.0502 20.7821 31.4055C18.5742 31.7523 16.6088 31.3406 15.7713 30.3565C14.9141 29.3471 15.2609 27.7482 15.5965 26.203C15.9461 24.5985 16.3071 22.9377 15.1735 22.0043C14.4742 21.4291 13.3125 21.2628 12.0661 21.5616C10.7042 21.8887 9.61009 22.6669 9.20686 23.5975C8.79517 24.545 9.1702 25.4162 9.50294 26.1804C9.80184 26.8684 10.0584 27.4634 9.79056 28.0499C9.32812 29.0565 7.49243 29.6036 4.87285 29.5133C3.82954 29.4767 2.78622 29.2652 1.76543 28.8845C2.55501 22.0465 5.66517 15.6058 10.552 10.7224L10.5494 10.7219ZM10.5494 54.1494C5.65711 49.2571 2.54391 42.8053 1.75708 35.9533C1.99395 36.0069 2.47049 36.3847 2.89907 36.7259C4.80805 38.243 8.35818 41.0684 14.0093 36.5483C16.0283 34.9353 17.9147 36.5032 20.1001 38.3219C22.3248 40.1717 24.8457 42.2668 27.6883 40.4396C30.0936 38.8972 30.573 35.8912 30.9959 33.2406C31.3822 30.8128 31.7178 28.7149 33.3307 28.1707C35.3666 27.4883 38.5868 29.355 39.4863 31.7377C40.2504 33.751 39.1564 35.6262 37.8875 37.7974C36.6101 39.9827 35.1636 42.4613 35.4653 45.5517C35.7162 48.1092 37.3912 49.443 38.8687 50.6216C40.1602 51.648 41.1781 52.4601 41.0963 53.8334C41.0004 55.466 39.4862 57.3581 37.2417 58.6496C35.1128 59.8733 32.8766 60.2286 31.5429 59.5575C30.1979 58.878 29.8764 57.2481 29.5381 55.5196C29.1687 53.6387 28.7852 51.6959 26.989 50.8838C25.6101 50.2606 23.6194 50.4975 21.7922 51.4957C20.0439 52.4544 18.8822 53.8446 18.6819 55.2178C18.4169 57.0507 19.8973 58.562 20.9801 59.6674C21.1605 59.8507 21.3326 60.0284 21.4848 60.1919C21.874 60.6121 22.2264 61.0774 22.5479 61.5679C18.056 60.0735 13.9252 57.5243 10.5498 54.1464L10.5494 54.1494Z" stroke="#070D13" stroke-width="0.8" mask="url(#path-1-inside-1_555_1272)"/>
</svg>
