<svg width="66" height="70" viewBox="0 0 66 70" fill="none" xmlns="http://www.w3.org/2000/svg">
<path d="M27.2606 51.8952L27.2346 51.9411C26.646 52.979 26.0563 54.0167 25.4667 55.054C25.008 55.8611 24.5494 56.668 24.0915 57.4747L24.0613 57.5279C23.8708 57.8637 23.6864 58.1889 23.485 58.504C23.0647 59.2169 22.2673 59.5874 21.4843 59.6101C20.6992 59.6329 19.8882 59.3065 19.4532 58.5749C19.4532 58.5748 19.4531 58.5747 19.4531 58.5746L27.2606 51.8952ZM27.2606 51.8952V51.8937M27.2606 51.8952V51.8937M27.2606 51.8937L30.0852 46.9211L30.1364 46.8309L30.0922 46.7371C26.3553 38.8003 31.7105 28.8981 40.4156 27.7104L40.5392 27.6935L40.5785 27.5751C41.8288 23.8005 41.5189 19.597 40.1537 15.7869C38.7888 11.9776 36.3636 8.54576 33.361 6.31327C25.4619 0.249495 12.7748 1.25508 6.35104 9.43493C0.368731 16.5557 0.496073 26.5736 5.37912 33.9233L27.2606 51.8937ZM61.9179 69.2466V69.2465L61.9128 69.2465C60.7436 69.2386 59.6525 68.7111 58.921 67.7996L51.3193 58.3157L51.3167 58.3104L51.3017 58.2925C50.8333 57.7331 50.8251 56.8419 51.2786 56.2692L51.3775 56.1442L51.2778 56.0199L49.0833 53.2839L48.9795 53.1545L48.8331 53.2326C42.822 56.4403 35.0459 54.5378 31.2092 48.7534L31.0294 48.4822L30.8687 48.7651C30.168 49.9986 29.4677 51.2321 28.7674 52.4655C27.6711 54.3965 26.5749 56.3272 25.478 58.2573L25.4777 58.2579C25.2714 58.6239 25.0597 58.9979 24.8257 59.3629L24.8256 59.3628L24.8217 59.3693C24.1261 60.5506 22.8127 61.1708 21.4796 61.19C20.147 61.2091 18.8285 60.6274 18.1189 59.4463C14.9078 54.0698 11.8491 48.6316 8.77536 43.1667C7.19089 40.3497 5.60245 37.5255 3.9871 34.6991L3.98749 34.6989L3.98006 34.6877C-1.21384 26.868 -1.25804 15.9712 5.11221 8.43288C19.7943 -8.81561 47.327 5.39148 42.3117 27.3048L42.2546 27.5542L42.5105 27.5494C53.9016 27.3334 60.4077 41.3985 52.9265 49.9499L52.8162 50.076L52.921 50.2067L55.1172 52.9444L55.2168 53.0686L55.3602 52.9994C56.0181 52.6814 56.8809 52.8806 57.3311 53.4617L57.3311 53.4617L57.3332 53.4644L64.9516 62.9649L64.9515 62.9649L64.9551 62.9691C65.9757 64.1725 66.0112 65.7635 65.3854 67.0518C64.7594 68.3405 63.4859 69.2975 61.9179 69.2466ZM63.7051 63.9562L63.6773 63.9235L61.938 67.4513L61.9323 67.6513C61.9332 67.6513 61.9341 67.6513 61.9349 67.6513C62.8702 67.6769 63.6124 67.1006 63.9697 66.3573C64.3273 65.6131 64.3133 64.6722 63.7051 63.9562ZM52.6418 55.0543H53.0586L52.9224 54.8845L53.8067 54.1765L53.9629 54.0514L53.8378 53.8952L51.831 51.3918L51.6993 51.2275L51.542 51.3674C51.2165 51.657 50.8698 51.935 50.5168 52.1883L50.3453 52.3114L50.4774 52.476L52.3599 54.8225L52.0703 55.0543H52.6401H52.6418ZM33.142 48.6934L33.1877 48.748C37.594 54.3088 46.2717 54.6825 51.1488 49.545C58.9875 41.678 52.2304 27.867 41.2302 29.2087C31.9871 29.9927 27.1831 41.5918 33.142 48.6934ZM51.0055 49.4055C46.2407 54.4269 37.777 54.0937 33.4222 48.7207L41.2508 29.4077C52.0653 28.0853 58.7136 41.6725 51.0055 49.4055Z" fill="#070D13" stroke="#F5F1F6" stroke-width="0.4"/>
</svg>
