<svg width="67" height="78" viewBox="0 0 67 78" fill="none" xmlns="http://www.w3.org/2000/svg">
<mask id="path-1-inside-1_555_1294" fill="white">
<path fill-rule="evenodd" clip-rule="evenodd" d="M8.26139 46.6198C8.73348 47.0643 8.75415 47.8053 8.30963 48.2807L7.25519 49.3972C7.02431 49.6453 6.71418 49.7625 6.4006 49.7625C6.11115 49.7625 5.82513 49.6625 5.59769 49.4454C5.1256 49.0009 5.10493 48.26 5.54945 47.7948L6.60389 46.6681C7.04842 46.2029 7.78935 46.1753 8.26139 46.6198ZM3.12009 54.2629C2.52738 54.0045 2.25516 53.3153 2.51705 52.7191L3.06495 51.4717C3.3234 50.879 4.01601 50.6102 4.60873 50.8687C5.20143 51.1271 5.47366 51.8163 5.21176 52.4124L4.6673 53.6599C4.47433 54.1044 4.04359 54.3629 3.59213 54.3629C3.43361 54.3629 3.27515 54.3318 3.12009 54.2629ZM2.82029 59.2561C2.17245 59.2561 1.6487 58.7323 1.6487 58.0811V56.7854C1.6487 56.141 2.17248 55.6172 2.82029 55.6172C3.46811 55.6172 3.99189 56.141 3.99189 56.7854V58.0811C3.99189 58.7324 3.46466 59.2561 2.82029 59.2561ZM4.60525 63.9943C4.45363 64.0632 4.29167 64.0942 4.13661 64.0942C3.68519 64.0942 3.25445 63.8357 3.06143 63.3912L2.51353 62.1438C2.25509 61.5511 2.52387 60.8585 3.11657 60.6C3.70926 60.3415 4.40187 60.6103 4.66034 61.203L5.2048 62.4505C5.47014 63.0432 5.19795 63.7358 4.60525 63.9943ZM8.30961 66.5925C8.75414 67.0577 8.73001 67.7986 8.26137 68.2431C8.03394 68.4602 7.74447 68.5601 7.45846 68.5601C7.14833 68.5601 6.83475 68.443 6.60387 68.1948L5.54943 67.0784C5.1049 66.6029 5.12903 65.862 5.59767 65.4175C6.06977 64.9833 6.81064 65.0005 7.25516 65.4657L8.30961 66.5925ZM13.5509 71.7958C13.3303 72.1611 12.9444 72.3609 12.5516 72.3609C12.3414 72.3609 12.1312 72.3024 11.9416 72.1817L10.4495 71.2721C9.89819 70.9344 9.7259 70.2142 10.0636 69.6594C10.4013 69.1046 11.1249 68.9392 11.6763 69.2735L13.1683 70.1831C13.7162 70.5208 13.8886 71.241 13.5509 71.7958ZM20.1774 74.4251C20.0085 74.9109 19.5571 75.2073 19.0747 75.2073C18.9437 75.2073 18.8128 75.1866 18.6853 75.1384L16.8589 74.494C16.249 74.2769 15.9285 73.6153 16.1456 73.0019C16.3627 72.3885 17.0312 72.0715 17.6412 72.2886L19.4675 72.933C20.074 73.1501 20.3945 73.822 20.1774 74.4251ZM27.7377 75.9482C27.6447 76.5202 27.1485 76.9269 26.5833 76.9269C26.5213 76.9269 26.4558 76.9269 26.3938 76.9165L24.3538 76.5788C23.7163 76.4686 23.2822 75.8655 23.3889 75.235C23.4957 74.5906 24.0953 74.1667 24.7362 74.2666L26.7762 74.6043C27.4103 74.7146 27.8411 75.3176 27.7377 75.9482ZM35.7288 76.2067C35.7426 76.8579 35.2292 77.3921 34.5813 77.4024C34.2126 77.4128 33.8577 77.4128 33.5027 77.4128C33.1477 77.4128 32.7894 77.4128 32.4241 77.4024C31.7763 77.3921 31.2628 76.858 31.2766 76.2067C31.2904 75.5623 31.8279 75.0488 32.4723 75.0591C33.1753 75.0798 33.8301 75.0798 34.533 75.0591C35.1808 75.0488 35.715 75.5622 35.7288 76.2067ZM43.62 75.2383C43.7268 75.8724 43.2926 76.4754 42.6551 76.5822L40.6151 76.9199C40.5496 76.9302 40.4876 76.9302 40.4256 76.9302C39.8605 76.9302 39.3643 76.5236 39.2712 75.9516C39.1678 75.3175 39.5985 74.7145 40.2361 74.6077L42.2761 74.27C42.9136 74.1701 43.5166 74.5939 43.62 75.2383ZM50.8633 73.0019C51.0804 73.6152 50.7599 74.2768 50.15 74.4939L48.3237 75.1383C48.1927 75.1866 48.0618 75.2073 47.9343 75.2073C47.4518 75.2073 47.0004 74.9109 46.8316 74.425C46.6145 73.822 46.935 73.15 47.5449 72.9329L49.3712 72.2886C49.9777 72.0715 50.6462 72.3885 50.8633 73.0019ZM56.9453 69.6593C57.283 70.2141 57.1108 70.9343 56.5594 71.2719L55.0673 72.1816C54.8778 72.2988 54.6641 72.3608 54.4574 72.3608C54.0646 72.3608 53.6786 72.1644 53.4581 71.7957C53.1204 71.2409 53.2927 70.5207 53.844 70.183L55.3361 69.2733C55.884 68.9391 56.6077 69.1045 56.9453 69.6593ZM61.4078 65.4173C61.8799 65.8619 61.9006 66.6028 61.4561 67.0783L60.4016 68.1947C60.1707 68.4428 59.8606 68.56 59.547 68.56C59.2576 68.56 58.9716 68.4601 58.7441 68.243C58.272 67.7984 58.2514 67.0575 58.6959 66.5924L59.7503 65.4656C60.1949 65.0004 60.9358 64.9831 61.4078 65.4173ZM64.4885 62.1437L63.9406 63.3912C63.7476 63.8357 63.3169 64.0942 62.8654 64.0942C62.7069 64.0942 62.5484 64.0632 62.3968 63.9942C61.8041 63.7358 61.5353 63.0466 61.7937 62.4505L62.3416 61.203C62.6001 60.6103 63.2927 60.3415 63.8854 60.6C64.4781 60.8584 64.7469 61.551 64.4885 62.1437ZM65.3569 56.7853V58.0811C65.3569 58.7323 64.8331 59.2561 64.1853 59.2561C63.5375 59.2561 63.0137 58.7323 63.0137 58.0811V56.7853C63.0137 56.1409 63.5375 55.6172 64.1853 55.6172C64.8331 55.6172 65.3569 56.141 65.3569 56.7853ZM61.7938 52.4125C61.5353 51.8198 61.8041 51.1272 62.3968 50.8687C62.9895 50.6103 63.6821 50.879 63.9406 51.4717L64.4885 52.7192C64.7469 53.3119 64.4781 54.0045 63.8854 54.263C63.7338 54.3319 63.5718 54.3629 63.4168 54.3629C62.9654 54.3629 62.5346 54.1045 62.3416 53.6599L61.7938 52.4125ZM61.4561 47.7949C61.9006 48.2601 61.8765 49.001 61.4078 49.4455C61.1804 49.6626 60.8944 49.7625 60.6049 49.7625C60.2948 49.7625 59.9812 49.6454 59.7503 49.3973L58.6959 48.2808C58.2513 47.8053 58.2755 47.0644 58.7441 46.6199C59.2162 46.1754 59.9571 46.2029 60.4016 46.6681L61.4561 47.7949ZM64.0784 24.438C64.2473 24.1417 64.1577 23.7661 63.8682 23.5765L63.7304 23.487C63.4341 23.2905 63.0309 23.3698 62.8276 23.6558C61.3769 25.7613 59.7573 27.7806 58.0137 29.6483C56.2976 31.4884 54.2507 33.6835 51.5318 34.7793C50.9908 35.055 50.3947 35.2445 49.7675 35.3134C49.5883 35.3513 49.4057 35.3823 49.2196 35.403C48.6269 35.4926 48.079 35.5305 47.5759 35.5305C44.3643 35.5305 42.8033 33.9592 40.7495 31.9019L35.8873 27.0363C35.7598 26.9088 35.5979 26.8399 35.4221 26.8399H35.4187C35.2464 26.8399 35.081 26.9088 34.9535 27.0363L34.8639 27.1362C34.6433 27.3533 34.6089 27.6703 34.7743 27.9357C35.1878 28.6076 35.5944 29.2417 35.9873 29.8551C38.6613 34.0178 40.7737 37.312 40.7461 43.3424C40.7254 48.0116 39.1954 54.3588 37.8446 59.9658C37.5379 61.2304 37.2484 62.4365 36.99 63.5667C36.9521 63.7356 37.0589 63.9113 37.2277 63.9527L37.4724 64.0216C37.6275 64.0595 37.7653 64.0009 37.8446 63.8631L44.6985 51.5923C44.9121 51.2167 45.3084 50.9996 45.722 50.9996C45.8495 50.9996 45.977 51.0202 46.101 51.0581C46.6351 51.2477 46.9659 51.7783 46.8798 52.3434L45.0707 64.2702C45.0431 64.4597 45.1223 64.5872 45.1706 64.6458C45.2188 64.7147 45.3325 64.8147 45.5221 64.8353L45.7978 64.856C46.0217 64.8664 46.2009 64.7561 46.2871 64.5493C49.2403 57.3198 51.7523 49.7935 53.9715 41.5268C54.2919 40.3413 54.7468 39.3524 55.4463 38.3427C58.4856 33.9526 61.3872 29.2731 64.0784 24.438ZM32.2281 27.9391C32.3935 27.6738 32.3591 27.3568 32.1385 27.1397L32.049 27.0397C31.9215 26.9122 31.7595 26.8433 31.5838 26.8433H31.5803C31.408 26.8433 31.2426 26.9122 31.1186 27.0397L26.2564 31.9054C23.8821 34.2899 22.1661 36.0094 17.7862 35.4065C17.6002 35.3858 17.4175 35.3582 17.2383 35.3169C16.6112 35.248 16.0151 35.0584 15.474 34.7828C12.7552 33.6835 10.7049 31.4884 8.9922 29.6518C7.24853 27.7841 5.62897 25.7648 4.17826 23.6593C4.05076 23.4801 3.84401 23.3836 3.63725 23.3836C3.5132 23.3836 3.3857 23.4146 3.27543 23.4939L3.13759 23.5835C2.84814 23.773 2.75854 24.1486 2.92739 24.445C5.61868 29.2796 8.52362 33.959 11.5525 38.3495C12.252 39.3592 12.7069 40.3481 13.0274 41.5336C15.2465 49.8004 17.7587 57.326 20.7118 64.5561C20.7979 64.7629 20.9771 64.8732 21.2011 64.8628L21.4768 64.8421C21.6663 64.8215 21.78 64.725 21.8283 64.6526C21.8765 64.594 21.9558 64.4631 21.9282 64.277L20.1191 52.3503C20.0329 51.7851 20.3603 51.251 20.8978 51.065C21.4354 50.8858 22.0246 51.1029 22.3003 51.5991L29.1542 63.8699C29.2335 64.0077 29.3713 64.0663 29.5229 64.0284L29.7676 63.9595C29.9399 63.9216 30.0467 63.7424 30.0054 63.5735C29.7469 62.4468 29.4575 61.2407 29.1508 59.9726C27.8 54.366 26.2734 48.0184 26.2493 43.3492C26.2217 37.3154 28.3341 34.0248 31.0081 29.8619C31.4043 29.2451 31.8146 28.6111 32.2281 27.9391ZM5.0912 21.0266C7.20697 21.2231 9.00234 21.1369 10.5875 20.7785C15.0879 19.7516 16.1492 17.2981 17.4931 14.1934C17.6999 13.7179 17.917 13.2147 18.1582 12.7013L20.9977 6.55029C21.294 7.13266 21.5938 7.73574 21.8936 8.3491C20.2671 14.5001 19.1575 19.5622 18.7303 24.9037C18.4408 24.8451 18.1444 24.8244 17.8412 24.8244C14.9708 24.8244 12.6345 27.1298 12.5793 29.9864C11.9212 29.3524 11.3009 28.6907 10.7047 28.0498C9.04037 26.2615 7.49315 24.3421 6.1079 22.333C5.74264 21.7989 5.22574 21.4233 4.65719 21.2269C4.67442 21.1959 4.69165 21.1786 4.70544 21.1683C4.76402 21.1063 4.89478 21.006 5.0912 21.0266ZM11.0561 12.0569C9.44686 12.0569 8.13394 13.3732 8.13394 14.9824C8.13394 16.5848 9.44342 17.9011 11.0561 17.9011C11.6591 17.9011 12.2208 17.7116 12.6895 17.4084C12.6895 17.398 12.6895 17.398 12.6929 17.398C12.7102 17.3877 12.7274 17.3774 12.7446 17.367C12.8342 17.2981 12.9169 17.2292 12.9996 17.1603C13.5992 16.6262 13.9817 15.8439 13.9817 14.9859C13.9783 13.3733 12.6653 12.0569 11.0561 12.0569ZM21.0077 25.882C21.3144 21.2059 22.1793 16.7746 23.4681 11.6122C24.9844 14.8549 26.318 18.1182 26.8659 20.9367C27.2242 22.7767 27.4689 24.8443 27.6136 27.2255L24.5915 30.251C23.892 30.954 23.3097 31.526 22.7445 31.9912C22.9753 31.3985 23.1028 30.7542 23.1028 30.0822C23.1063 28.373 22.2793 26.84 21.0077 25.882ZM16.4418 32.6464C15.5356 32.1536 14.9187 31.1923 14.9187 30.0861C14.9187 28.4735 16.2282 27.1674 17.8409 27.1674C19.4501 27.1674 20.763 28.4735 20.763 30.0861C20.763 31.6988 19.4535 33.0117 17.8409 33.0117C17.7547 33.0117 17.6686 33.0014 17.5824 32.991C17.1896 32.9118 16.8071 32.7946 16.4418 32.6464ZM21.883 2.68393C21.914 2.60467 21.9967 2.46684 22.1862 2.40825L22.2862 2.37724C22.517 2.29798 22.7514 2.38758 22.8685 2.60467C24.6535 5.80937 26.7314 8.39039 29.0367 10.2581C31.666 12.4049 35.3393 12.4049 37.9686 10.2581C40.2739 8.39039 42.3483 5.80937 44.1368 2.60467C44.2333 2.42549 44.3918 2.34622 44.6055 2.35656C44.7847 2.3669 45.0259 2.45649 45.1224 2.68392C45.1844 2.8321 45.1809 2.94926 45.112 3.09054C44.733 3.87277 44.3332 4.67225 43.9231 5.49239C41.4938 10.358 38.7439 15.8648 37.8411 20.4926C37.5654 21.8986 37.3552 23.4113 37.2036 25.0894C36.6902 24.7035 36.0768 24.4967 35.429 24.4967H35.4186C34.7122 24.5071 34.0437 24.7552 33.5061 25.1997C32.9685 24.7552 32.3 24.5071 31.5936 24.4967C30.9423 24.4967 30.3255 24.7035 29.8086 25.0894C29.657 23.4079 29.4434 21.8951 29.1711 20.4926C28.2683 15.8647 25.5185 10.3584 23.0891 5.49239C22.679 4.67226 22.2793 3.8694 21.8968 3.09054C21.8072 2.91136 21.852 2.75285 21.883 2.68393ZM33.5028 3.68324C31.8901 3.68324 30.5806 4.98927 30.5806 6.60194C30.5806 8.11467 31.7316 9.36213 33.1996 9.51033C33.3994 9.52067 33.6027 9.52067 33.8026 9.51033C35.274 9.36215 36.4216 8.11475 36.4216 6.60194C36.425 4.98583 35.1154 3.68324 33.5028 3.68324ZM43.5338 11.6123C44.826 16.7744 45.6875 21.2058 45.9977 25.8821C44.7261 26.8401 43.8991 28.3735 43.8991 30.0861C43.8991 30.7581 44.0266 31.4025 44.2575 31.9952C43.6923 31.53 43.11 30.958 42.4104 30.255L39.3883 27.2294C39.533 24.8449 39.7777 22.7807 40.1361 20.9406C40.6874 18.1184 42.0175 14.8548 43.5338 11.6123ZM49.4263 32.9905C49.3402 33.0009 49.254 33.0112 49.1679 33.0112C47.5587 33.0112 46.2457 31.6949 46.2457 30.0856C46.2457 28.473 47.5552 27.1669 49.1679 27.1669C50.7806 27.1669 52.09 28.473 52.09 30.0856C52.09 31.1918 51.4732 32.1532 50.5669 32.6459C50.1982 32.7941 49.8192 32.9113 49.4263 32.9905ZM49.5125 14.2032C50.2775 15.9744 50.9805 17.5941 52.3795 18.8414C52.5828 19.031 52.7999 19.2067 53.0308 19.3549C53.8923 19.9579 54.9811 20.4438 56.4181 20.7781C57.9998 21.133 59.7985 21.2226 61.9144 21.0262C62.1142 21.0055 62.2452 21.1054 62.3038 21.164C62.3175 21.1743 62.3348 21.195 62.352 21.2226C61.78 21.419 61.2665 21.7946 60.9013 22.3287C59.516 24.3377 57.9688 26.2536 56.3045 28.0456C55.7083 28.6899 55.0881 29.3516 54.4299 29.9822C54.3747 27.1255 52.035 24.8201 49.168 24.8201C48.8647 24.8201 48.5684 24.8408 48.2789 24.8994C47.8551 19.5582 46.742 14.5067 45.1191 8.34481C45.4188 7.73143 45.7186 7.1284 46.015 6.546L48.8545 12.697C49.0888 13.2139 49.3057 13.7173 49.5125 14.2032ZM55.9495 12.0564C54.3368 12.0564 53.0274 13.3728 53.0274 14.982C53.0274 15.871 53.434 16.674 54.068 17.208C54.0818 17.2287 54.0956 17.239 54.1059 17.2459C54.609 17.6526 55.25 17.8972 55.946 17.8972C57.5553 17.8972 58.8682 16.5809 58.8682 14.9785C58.8716 13.3727 57.5622 12.0564 55.9495 12.0564ZM65.1672 21.6296L65.0293 21.5297C64.9501 21.4814 64.8708 21.4297 64.7881 21.3918C64.7571 20.6716 64.4539 19.9894 63.9335 19.4827C63.3408 18.9004 62.5241 18.6109 61.6971 18.6902C60.9424 18.7591 60.2429 18.7901 59.5847 18.7798C60.5875 17.8218 61.2147 16.4744 61.2147 14.9823C61.2147 12.074 58.8542 9.71004 55.9493 9.71004C53.9507 9.71004 52.2104 10.8265 51.318 12.4702C51.2077 12.2221 51.0974 11.9775 50.9734 11.7087L47.3345 3.82783C47.5791 3.15587 47.5585 2.43226 47.2724 1.76023C46.8451 0.760922 45.8458 0.0682511 44.7225 0.00967587C43.6232 -0.0489047 42.6136 0.50244 42.0829 1.46382C41.0629 3.2936 39.9464 4.89595 38.7507 6.25024C38.5715 3.51069 36.2868 1.33635 33.4991 1.33635C30.7114 1.33635 28.4233 3.51069 28.2476 6.25024C27.0518 4.89595 25.9353 3.2936 24.9154 1.46382C24.2503 0.26806 22.8754 -0.276408 21.5728 0.137147L21.4729 0.168161C20.6838 0.426607 20.0497 0.998632 19.7258 1.76019C19.4466 2.42181 19.4294 3.15576 19.6672 3.82779L16.0283 11.7086C15.9077 11.974 15.794 12.2221 15.6837 12.4702C14.7912 10.8299 13.051 9.71 11.0524 9.71C8.15086 9.71 5.78694 12.0739 5.78694 14.9823C5.78694 16.4744 6.41411 17.8218 7.41691 18.7797C6.75874 18.7901 6.05574 18.7591 5.30458 18.6901C4.47756 18.6109 3.66086 18.8969 3.06813 19.4827C2.5478 19.9858 2.24456 20.6681 2.21354 21.3918C2.13084 21.4297 2.05159 21.4814 1.97233 21.5296L1.83449 21.6295C0.538776 22.491 0.118428 24.2209 0.876554 25.5855C3.60577 30.4787 6.54856 35.2169 9.61891 39.6656C10.1668 40.4651 10.508 41.1991 10.7595 42.1364C13.0029 50.4928 15.5494 58.1078 18.537 65.4341C18.9746 66.5023 20.0119 67.195 21.1594 67.195C21.2249 67.195 21.2938 67.195 21.3593 67.1847L21.6349 67.164C22.424 67.1158 23.1615 66.7298 23.6543 66.1164C24.147 65.4927 24.3607 64.6933 24.2401 63.911L23.3993 58.3735L27.1036 65C27.7067 66.0786 28.9128 66.6023 30.1084 66.2853L30.3531 66.2267C31.7625 65.8614 32.6102 64.4555 32.2863 63.0426C32.0244 61.8951 31.7349 60.689 31.4282 59.4141C30.1084 53.9351 28.6129 47.7255 28.5923 43.335C28.5681 37.9938 30.4186 35.1061 32.9824 31.1224C33.1513 30.8571 33.327 30.5883 33.4993 30.3126C33.675 30.5883 33.8473 30.8571 34.0162 31.1224C36.5765 35.1059 38.4304 37.9936 38.4029 43.335C38.3822 47.7251 36.8866 53.935 35.5669 59.4141C35.2602 60.689 34.9673 61.8951 34.7089 63.0426C34.385 64.4555 35.2327 65.8614 36.6421 66.2267L36.8867 66.2853C38.0825 66.6023 39.2886 66.0785 39.8915 65L43.5959 58.3735L42.7551 63.911C42.6345 64.6933 42.8516 65.4928 43.3409 66.1164C43.8336 66.7298 44.5676 67.1158 45.3602 67.164L45.6359 67.1847C45.7048 67.195 45.7703 67.195 45.8358 67.195C46.9833 67.195 48.0205 66.5024 48.4581 65.4341C51.4458 58.1081 53.9923 50.4922 56.2356 42.1364C56.4872 41.1956 56.8283 40.4651 57.3762 39.6656C60.4466 35.2169 63.3894 30.4788 66.1186 25.5855C66.8836 24.2209 66.4628 22.4911 65.1672 21.6296Z"/>
</mask>
<path fill-rule="evenodd" clip-rule="evenodd" d="M8.26139 46.6198C8.73348 47.0643 8.75415 47.8053 8.30963 48.2807L7.25519 49.3972C7.02431 49.6453 6.71418 49.7625 6.4006 49.7625C6.11115 49.7625 5.82513 49.6625 5.59769 49.4454C5.1256 49.0009 5.10493 48.26 5.54945 47.7948L6.60389 46.6681C7.04842 46.2029 7.78935 46.1753 8.26139 46.6198ZM3.12009 54.2629C2.52738 54.0045 2.25516 53.3153 2.51705 52.7191L3.06495 51.4717C3.3234 50.879 4.01601 50.6102 4.60873 50.8687C5.20143 51.1271 5.47366 51.8163 5.21176 52.4124L4.6673 53.6599C4.47433 54.1044 4.04359 54.3629 3.59213 54.3629C3.43361 54.3629 3.27515 54.3318 3.12009 54.2629ZM2.82029 59.2561C2.17245 59.2561 1.6487 58.7323 1.6487 58.0811V56.7854C1.6487 56.141 2.17248 55.6172 2.82029 55.6172C3.46811 55.6172 3.99189 56.141 3.99189 56.7854V58.0811C3.99189 58.7324 3.46466 59.2561 2.82029 59.2561ZM4.60525 63.9943C4.45363 64.0632 4.29167 64.0942 4.13661 64.0942C3.68519 64.0942 3.25445 63.8357 3.06143 63.3912L2.51353 62.1438C2.25509 61.5511 2.52387 60.8585 3.11657 60.6C3.70926 60.3415 4.40187 60.6103 4.66034 61.203L5.2048 62.4505C5.47014 63.0432 5.19795 63.7358 4.60525 63.9943ZM8.30961 66.5925C8.75414 67.0577 8.73001 67.7986 8.26137 68.2431C8.03394 68.4602 7.74447 68.5601 7.45846 68.5601C7.14833 68.5601 6.83475 68.443 6.60387 68.1948L5.54943 67.0784C5.1049 66.6029 5.12903 65.862 5.59767 65.4175C6.06977 64.9833 6.81064 65.0005 7.25516 65.4657L8.30961 66.5925ZM13.5509 71.7958C13.3303 72.1611 12.9444 72.3609 12.5516 72.3609C12.3414 72.3609 12.1312 72.3024 11.9416 72.1817L10.4495 71.2721C9.89819 70.9344 9.7259 70.2142 10.0636 69.6594C10.4013 69.1046 11.1249 68.9392 11.6763 69.2735L13.1683 70.1831C13.7162 70.5208 13.8886 71.241 13.5509 71.7958ZM20.1774 74.4251C20.0085 74.9109 19.5571 75.2073 19.0747 75.2073C18.9437 75.2073 18.8128 75.1866 18.6853 75.1384L16.8589 74.494C16.249 74.2769 15.9285 73.6153 16.1456 73.0019C16.3627 72.3885 17.0312 72.0715 17.6412 72.2886L19.4675 72.933C20.074 73.1501 20.3945 73.822 20.1774 74.4251ZM27.7377 75.9482C27.6447 76.5202 27.1485 76.9269 26.5833 76.9269C26.5213 76.9269 26.4558 76.9269 26.3938 76.9165L24.3538 76.5788C23.7163 76.4686 23.2822 75.8655 23.3889 75.235C23.4957 74.5906 24.0953 74.1667 24.7362 74.2666L26.7762 74.6043C27.4103 74.7146 27.8411 75.3176 27.7377 75.9482ZM35.7288 76.2067C35.7426 76.8579 35.2292 77.3921 34.5813 77.4024C34.2126 77.4128 33.8577 77.4128 33.5027 77.4128C33.1477 77.4128 32.7894 77.4128 32.4241 77.4024C31.7763 77.3921 31.2628 76.858 31.2766 76.2067C31.2904 75.5623 31.8279 75.0488 32.4723 75.0591C33.1753 75.0798 33.8301 75.0798 34.533 75.0591C35.1808 75.0488 35.715 75.5622 35.7288 76.2067ZM43.62 75.2383C43.7268 75.8724 43.2926 76.4754 42.6551 76.5822L40.6151 76.9199C40.5496 76.9302 40.4876 76.9302 40.4256 76.9302C39.8605 76.9302 39.3643 76.5236 39.2712 75.9516C39.1678 75.3175 39.5985 74.7145 40.2361 74.6077L42.2761 74.27C42.9136 74.1701 43.5166 74.5939 43.62 75.2383ZM50.8633 73.0019C51.0804 73.6152 50.7599 74.2768 50.15 74.4939L48.3237 75.1383C48.1927 75.1866 48.0618 75.2073 47.9343 75.2073C47.4518 75.2073 47.0004 74.9109 46.8316 74.425C46.6145 73.822 46.935 73.15 47.5449 72.9329L49.3712 72.2886C49.9777 72.0715 50.6462 72.3885 50.8633 73.0019ZM56.9453 69.6593C57.283 70.2141 57.1108 70.9343 56.5594 71.2719L55.0673 72.1816C54.8778 72.2988 54.6641 72.3608 54.4574 72.3608C54.0646 72.3608 53.6786 72.1644 53.4581 71.7957C53.1204 71.2409 53.2927 70.5207 53.844 70.183L55.3361 69.2733C55.884 68.9391 56.6077 69.1045 56.9453 69.6593ZM61.4078 65.4173C61.8799 65.8619 61.9006 66.6028 61.4561 67.0783L60.4016 68.1947C60.1707 68.4428 59.8606 68.56 59.547 68.56C59.2576 68.56 58.9716 68.4601 58.7441 68.243C58.272 67.7984 58.2514 67.0575 58.6959 66.5924L59.7503 65.4656C60.1949 65.0004 60.9358 64.9831 61.4078 65.4173ZM64.4885 62.1437L63.9406 63.3912C63.7476 63.8357 63.3169 64.0942 62.8654 64.0942C62.7069 64.0942 62.5484 64.0632 62.3968 63.9942C61.8041 63.7358 61.5353 63.0466 61.7937 62.4505L62.3416 61.203C62.6001 60.6103 63.2927 60.3415 63.8854 60.6C64.4781 60.8584 64.7469 61.551 64.4885 62.1437ZM65.3569 56.7853V58.0811C65.3569 58.7323 64.8331 59.2561 64.1853 59.2561C63.5375 59.2561 63.0137 58.7323 63.0137 58.0811V56.7853C63.0137 56.1409 63.5375 55.6172 64.1853 55.6172C64.8331 55.6172 65.3569 56.141 65.3569 56.7853ZM61.7938 52.4125C61.5353 51.8198 61.8041 51.1272 62.3968 50.8687C62.9895 50.6103 63.6821 50.879 63.9406 51.4717L64.4885 52.7192C64.7469 53.3119 64.4781 54.0045 63.8854 54.263C63.7338 54.3319 63.5718 54.3629 63.4168 54.3629C62.9654 54.3629 62.5346 54.1045 62.3416 53.6599L61.7938 52.4125ZM61.4561 47.7949C61.9006 48.2601 61.8765 49.001 61.4078 49.4455C61.1804 49.6626 60.8944 49.7625 60.6049 49.7625C60.2948 49.7625 59.9812 49.6454 59.7503 49.3973L58.6959 48.2808C58.2513 47.8053 58.2755 47.0644 58.7441 46.6199C59.2162 46.1754 59.9571 46.2029 60.4016 46.6681L61.4561 47.7949ZM64.0784 24.438C64.2473 24.1417 64.1577 23.7661 63.8682 23.5765L63.7304 23.487C63.4341 23.2905 63.0309 23.3698 62.8276 23.6558C61.3769 25.7613 59.7573 27.7806 58.0137 29.6483C56.2976 31.4884 54.2507 33.6835 51.5318 34.7793C50.9908 35.055 50.3947 35.2445 49.7675 35.3134C49.5883 35.3513 49.4057 35.3823 49.2196 35.403C48.6269 35.4926 48.079 35.5305 47.5759 35.5305C44.3643 35.5305 42.8033 33.9592 40.7495 31.9019L35.8873 27.0363C35.7598 26.9088 35.5979 26.8399 35.4221 26.8399H35.4187C35.2464 26.8399 35.081 26.9088 34.9535 27.0363L34.8639 27.1362C34.6433 27.3533 34.6089 27.6703 34.7743 27.9357C35.1878 28.6076 35.5944 29.2417 35.9873 29.8551C38.6613 34.0178 40.7737 37.312 40.7461 43.3424C40.7254 48.0116 39.1954 54.3588 37.8446 59.9658C37.5379 61.2304 37.2484 62.4365 36.99 63.5667C36.9521 63.7356 37.0589 63.9113 37.2277 63.9527L37.4724 64.0216C37.6275 64.0595 37.7653 64.0009 37.8446 63.8631L44.6985 51.5923C44.9121 51.2167 45.3084 50.9996 45.722 50.9996C45.8495 50.9996 45.977 51.0202 46.101 51.0581C46.6351 51.2477 46.9659 51.7783 46.8798 52.3434L45.0707 64.2702C45.0431 64.4597 45.1223 64.5872 45.1706 64.6458C45.2188 64.7147 45.3325 64.8147 45.5221 64.8353L45.7978 64.856C46.0217 64.8664 46.2009 64.7561 46.2871 64.5493C49.2403 57.3198 51.7523 49.7935 53.9715 41.5268C54.2919 40.3413 54.7468 39.3524 55.4463 38.3427C58.4856 33.9526 61.3872 29.2731 64.0784 24.438ZM32.2281 27.9391C32.3935 27.6738 32.3591 27.3568 32.1385 27.1397L32.049 27.0397C31.9215 26.9122 31.7595 26.8433 31.5838 26.8433H31.5803C31.408 26.8433 31.2426 26.9122 31.1186 27.0397L26.2564 31.9054C23.8821 34.2899 22.1661 36.0094 17.7862 35.4065C17.6002 35.3858 17.4175 35.3582 17.2383 35.3169C16.6112 35.248 16.0151 35.0584 15.474 34.7828C12.7552 33.6835 10.7049 31.4884 8.9922 29.6518C7.24853 27.7841 5.62897 25.7648 4.17826 23.6593C4.05076 23.4801 3.84401 23.3836 3.63725 23.3836C3.5132 23.3836 3.3857 23.4146 3.27543 23.4939L3.13759 23.5835C2.84814 23.773 2.75854 24.1486 2.92739 24.445C5.61868 29.2796 8.52362 33.959 11.5525 38.3495C12.252 39.3592 12.7069 40.3481 13.0274 41.5336C15.2465 49.8004 17.7587 57.326 20.7118 64.5561C20.7979 64.7629 20.9771 64.8732 21.2011 64.8628L21.4768 64.8421C21.6663 64.8215 21.78 64.725 21.8283 64.6526C21.8765 64.594 21.9558 64.4631 21.9282 64.277L20.1191 52.3503C20.0329 51.7851 20.3603 51.251 20.8978 51.065C21.4354 50.8858 22.0246 51.1029 22.3003 51.5991L29.1542 63.8699C29.2335 64.0077 29.3713 64.0663 29.5229 64.0284L29.7676 63.9595C29.9399 63.9216 30.0467 63.7424 30.0054 63.5735C29.7469 62.4468 29.4575 61.2407 29.1508 59.9726C27.8 54.366 26.2734 48.0184 26.2493 43.3492C26.2217 37.3154 28.3341 34.0248 31.0081 29.8619C31.4043 29.2451 31.8146 28.6111 32.2281 27.9391ZM5.0912 21.0266C7.20697 21.2231 9.00234 21.1369 10.5875 20.7785C15.0879 19.7516 16.1492 17.2981 17.4931 14.1934C17.6999 13.7179 17.917 13.2147 18.1582 12.7013L20.9977 6.55029C21.294 7.13266 21.5938 7.73574 21.8936 8.3491C20.2671 14.5001 19.1575 19.5622 18.7303 24.9037C18.4408 24.8451 18.1444 24.8244 17.8412 24.8244C14.9708 24.8244 12.6345 27.1298 12.5793 29.9864C11.9212 29.3524 11.3009 28.6907 10.7047 28.0498C9.04037 26.2615 7.49315 24.3421 6.1079 22.333C5.74264 21.7989 5.22574 21.4233 4.65719 21.2269C4.67442 21.1959 4.69165 21.1786 4.70544 21.1683C4.76402 21.1063 4.89478 21.006 5.0912 21.0266ZM11.0561 12.0569C9.44686 12.0569 8.13394 13.3732 8.13394 14.9824C8.13394 16.5848 9.44342 17.9011 11.0561 17.9011C11.6591 17.9011 12.2208 17.7116 12.6895 17.4084C12.6895 17.398 12.6895 17.398 12.6929 17.398C12.7102 17.3877 12.7274 17.3774 12.7446 17.367C12.8342 17.2981 12.9169 17.2292 12.9996 17.1603C13.5992 16.6262 13.9817 15.8439 13.9817 14.9859C13.9783 13.3733 12.6653 12.0569 11.0561 12.0569ZM21.0077 25.882C21.3144 21.2059 22.1793 16.7746 23.4681 11.6122C24.9844 14.8549 26.318 18.1182 26.8659 20.9367C27.2242 22.7767 27.4689 24.8443 27.6136 27.2255L24.5915 30.251C23.892 30.954 23.3097 31.526 22.7445 31.9912C22.9753 31.3985 23.1028 30.7542 23.1028 30.0822C23.1063 28.373 22.2793 26.84 21.0077 25.882ZM16.4418 32.6464C15.5356 32.1536 14.9187 31.1923 14.9187 30.0861C14.9187 28.4735 16.2282 27.1674 17.8409 27.1674C19.4501 27.1674 20.763 28.4735 20.763 30.0861C20.763 31.6988 19.4535 33.0117 17.8409 33.0117C17.7547 33.0117 17.6686 33.0014 17.5824 32.991C17.1896 32.9118 16.8071 32.7946 16.4418 32.6464ZM21.883 2.68393C21.914 2.60467 21.9967 2.46684 22.1862 2.40825L22.2862 2.37724C22.517 2.29798 22.7514 2.38758 22.8685 2.60467C24.6535 5.80937 26.7314 8.39039 29.0367 10.2581C31.666 12.4049 35.3393 12.4049 37.9686 10.2581C40.2739 8.39039 42.3483 5.80937 44.1368 2.60467C44.2333 2.42549 44.3918 2.34622 44.6055 2.35656C44.7847 2.3669 45.0259 2.45649 45.1224 2.68392C45.1844 2.8321 45.1809 2.94926 45.112 3.09054C44.733 3.87277 44.3332 4.67225 43.9231 5.49239C41.4938 10.358 38.7439 15.8648 37.8411 20.4926C37.5654 21.8986 37.3552 23.4113 37.2036 25.0894C36.6902 24.7035 36.0768 24.4967 35.429 24.4967H35.4186C34.7122 24.5071 34.0437 24.7552 33.5061 25.1997C32.9685 24.7552 32.3 24.5071 31.5936 24.4967C30.9423 24.4967 30.3255 24.7035 29.8086 25.0894C29.657 23.4079 29.4434 21.8951 29.1711 20.4926C28.2683 15.8647 25.5185 10.3584 23.0891 5.49239C22.679 4.67226 22.2793 3.8694 21.8968 3.09054C21.8072 2.91136 21.852 2.75285 21.883 2.68393ZM33.5028 3.68324C31.8901 3.68324 30.5806 4.98927 30.5806 6.60194C30.5806 8.11467 31.7316 9.36213 33.1996 9.51033C33.3994 9.52067 33.6027 9.52067 33.8026 9.51033C35.274 9.36215 36.4216 8.11475 36.4216 6.60194C36.425 4.98583 35.1154 3.68324 33.5028 3.68324ZM43.5338 11.6123C44.826 16.7744 45.6875 21.2058 45.9977 25.8821C44.7261 26.8401 43.8991 28.3735 43.8991 30.0861C43.8991 30.7581 44.0266 31.4025 44.2575 31.9952C43.6923 31.53 43.11 30.958 42.4104 30.255L39.3883 27.2294C39.533 24.8449 39.7777 22.7807 40.1361 20.9406C40.6874 18.1184 42.0175 14.8548 43.5338 11.6123ZM49.4263 32.9905C49.3402 33.0009 49.254 33.0112 49.1679 33.0112C47.5587 33.0112 46.2457 31.6949 46.2457 30.0856C46.2457 28.473 47.5552 27.1669 49.1679 27.1669C50.7806 27.1669 52.09 28.473 52.09 30.0856C52.09 31.1918 51.4732 32.1532 50.5669 32.6459C50.1982 32.7941 49.8192 32.9113 49.4263 32.9905ZM49.5125 14.2032C50.2775 15.9744 50.9805 17.5941 52.3795 18.8414C52.5828 19.031 52.7999 19.2067 53.0308 19.3549C53.8923 19.9579 54.9811 20.4438 56.4181 20.7781C57.9998 21.133 59.7985 21.2226 61.9144 21.0262C62.1142 21.0055 62.2452 21.1054 62.3038 21.164C62.3175 21.1743 62.3348 21.195 62.352 21.2226C61.78 21.419 61.2665 21.7946 60.9013 22.3287C59.516 24.3377 57.9688 26.2536 56.3045 28.0456C55.7083 28.6899 55.0881 29.3516 54.4299 29.9822C54.3747 27.1255 52.035 24.8201 49.168 24.8201C48.8647 24.8201 48.5684 24.8408 48.2789 24.8994C47.8551 19.5582 46.742 14.5067 45.1191 8.34481C45.4188 7.73143 45.7186 7.1284 46.015 6.546L48.8545 12.697C49.0888 13.2139 49.3057 13.7173 49.5125 14.2032ZM55.9495 12.0564C54.3368 12.0564 53.0274 13.3728 53.0274 14.982C53.0274 15.871 53.434 16.674 54.068 17.208C54.0818 17.2287 54.0956 17.239 54.1059 17.2459C54.609 17.6526 55.25 17.8972 55.946 17.8972C57.5553 17.8972 58.8682 16.5809 58.8682 14.9785C58.8716 13.3727 57.5622 12.0564 55.9495 12.0564ZM65.1672 21.6296L65.0293 21.5297C64.9501 21.4814 64.8708 21.4297 64.7881 21.3918C64.7571 20.6716 64.4539 19.9894 63.9335 19.4827C63.3408 18.9004 62.5241 18.6109 61.6971 18.6902C60.9424 18.7591 60.2429 18.7901 59.5847 18.7798C60.5875 17.8218 61.2147 16.4744 61.2147 14.9823C61.2147 12.074 58.8542 9.71004 55.9493 9.71004C53.9507 9.71004 52.2104 10.8265 51.318 12.4702C51.2077 12.2221 51.0974 11.9775 50.9734 11.7087L47.3345 3.82783C47.5791 3.15587 47.5585 2.43226 47.2724 1.76023C46.8451 0.760922 45.8458 0.0682511 44.7225 0.00967587C43.6232 -0.0489047 42.6136 0.50244 42.0829 1.46382C41.0629 3.2936 39.9464 4.89595 38.7507 6.25024C38.5715 3.51069 36.2868 1.33635 33.4991 1.33635C30.7114 1.33635 28.4233 3.51069 28.2476 6.25024C27.0518 4.89595 25.9353 3.2936 24.9154 1.46382C24.2503 0.26806 22.8754 -0.276408 21.5728 0.137147L21.4729 0.168161C20.6838 0.426607 20.0497 0.998632 19.7258 1.76019C19.4466 2.42181 19.4294 3.15576 19.6672 3.82779L16.0283 11.7086C15.9077 11.974 15.794 12.2221 15.6837 12.4702C14.7912 10.8299 13.051 9.71 11.0524 9.71C8.15086 9.71 5.78694 12.0739 5.78694 14.9823C5.78694 16.4744 6.41411 17.8218 7.41691 18.7797C6.75874 18.7901 6.05574 18.7591 5.30458 18.6901C4.47756 18.6109 3.66086 18.8969 3.06813 19.4827C2.5478 19.9858 2.24456 20.6681 2.21354 21.3918C2.13084 21.4297 2.05159 21.4814 1.97233 21.5296L1.83449 21.6295C0.538776 22.491 0.118428 24.2209 0.876554 25.5855C3.60577 30.4787 6.54856 35.2169 9.61891 39.6656C10.1668 40.4651 10.508 41.1991 10.7595 42.1364C13.0029 50.4928 15.5494 58.1078 18.537 65.4341C18.9746 66.5023 20.0119 67.195 21.1594 67.195C21.2249 67.195 21.2938 67.195 21.3593 67.1847L21.6349 67.164C22.424 67.1158 23.1615 66.7298 23.6543 66.1164C24.147 65.4927 24.3607 64.6933 24.2401 63.911L23.3993 58.3735L27.1036 65C27.7067 66.0786 28.9128 66.6023 30.1084 66.2853L30.3531 66.2267C31.7625 65.8614 32.6102 64.4555 32.2863 63.0426C32.0244 61.8951 31.7349 60.689 31.4282 59.4141C30.1084 53.9351 28.6129 47.7255 28.5923 43.335C28.5681 37.9938 30.4186 35.1061 32.9824 31.1224C33.1513 30.8571 33.327 30.5883 33.4993 30.3126C33.675 30.5883 33.8473 30.8571 34.0162 31.1224C36.5765 35.1059 38.4304 37.9936 38.4029 43.335C38.3822 47.7251 36.8866 53.935 35.5669 59.4141C35.2602 60.689 34.9673 61.8951 34.7089 63.0426C34.385 64.4555 35.2327 65.8614 36.6421 66.2267L36.8867 66.2853C38.0825 66.6023 39.2886 66.0785 39.8915 65L43.5959 58.3735L42.7551 63.911C42.6345 64.6933 42.8516 65.4928 43.3409 66.1164C43.8336 66.7298 44.5676 67.1158 45.3602 67.164L45.6359 67.1847C45.7048 67.195 45.7703 67.195 45.8358 67.195C46.9833 67.195 48.0205 66.5024 48.4581 65.4341C51.4458 58.1081 53.9923 50.4922 56.2356 42.1364C56.4872 41.1956 56.8283 40.4651 57.3762 39.6656C60.4466 35.2169 63.3894 30.4788 66.1186 25.5855C66.8836 24.2209 66.4628 22.4911 65.1672 21.6296Z" fill="#070D13" stroke="#DEDEF9" stroke-width="1.2" mask="url(#path-1-inside-1_555_1294)"/>
</svg>
