<svg width="67" height="64" viewBox="0 0 67 64" fill="none" xmlns="http://www.w3.org/2000/svg">
<path d="M55.6426 35.4891C55.4923 32.4648 55.509 31.0483 56.0232 27.9818C56.4807 25.2542 57.5807 20.6963 55.9949 18.3192C55.8392 18.0858 55.6759 17.9197 55.5058 17.8036L65.9961 9.21547C66.3619 8.91624 65.9063 8.35951 65.5406 8.65873L54.6644 17.5627C53.2182 17.5573 52.4383 18.3046 51.4163 16.4811C49.8031 13.6026 47.4338 7.41032 45.4269 5.33962L49.3164 1.05131C49.6322 0.702217 49.1008 0.221407 48.7849 0.570498L44.8908 4.86394C42.4015 3.00762 39.4799 5.74528 40.1386 8.60284C40.0303 8.49148 39.9207 8.38791 39.8095 8.29278C37.4872 6.30641 33.9021 8.60232 34.4348 11.6137C32.4871 10.1527 29.9171 11.937 29.7985 14.158C27.5606 14.5136 26.2749 16.9612 26.8783 19.0448C23.5622 21.2509 20.4561 21.8624 17.7127 22.4023C14.3938 23.0556 11.5874 23.6085 9.48012 26.6429L0.789734 21.1224C0.390823 20.8693 0.00554657 21.4767 0.40451 21.7297L10.1379 27.9128C11.254 28.7159 9.95074 31.064 8.31076 33.3888C7.12159 35.0745 5.69773 36.6795 4.57602 38.3761L0.620033 36.8058C0.181694 36.632 -0.0825653 37.2985 0.355705 37.4722L4.21562 39.0044C4.20371 39.0318 4.19308 39.0581 4.18377 39.0834C3.19005 41.7803 6.92257 44.3055 9.73344 42.3367C9.64441 42.6171 9.5874 42.8916 9.56614 43.16C9.40692 45.1691 11.6685 47.0025 13.5824 46.2241C13.8888 46.0995 14.1972 45.9166 14.5134 45.6788C14.4467 46.0438 14.4436 46.394 14.4887 46.7218C14.8028 49.0035 17.3943 50.3587 19.3161 48.8156C19.3256 48.9601 19.3481 49.1037 19.3818 49.2442C19.7525 50.7889 21.3596 51.6602 22.8872 51.2744C23.9755 50.9995 24.7147 50.2791 25.5117 49.5533C30.8063 51.3975 32.0915 53.5071 36.2036 56.0891C40.5134 58.7953 42.657 59.7304 47.4413 60.6914L48.3855 63.3136C48.5446 63.7575 49.2194 63.5157 49.0604 63.0718C48.6877 62.0369 48.3269 60.993 47.9384 59.9644C47.7269 59.4043 47.3875 58.528 47.3294 58.0597C47.1711 56.782 48.4308 56.7042 49.7992 56.6307C52.681 56.4759 58.391 56.5593 60.891 55.5133L65.0123 63.3237C65.2304 63.7434 65.8688 63.4117 65.6506 62.9919L61.519 55.1617C63.8325 53.431 61.7523 50.2723 59.0948 50.1081C59.1534 50.076 59.21 50.043 59.2646 50.009C60.2384 49.4026 60.5925 48.5249 60.2894 47.3426C59.8595 45.666 58.8323 45.0731 57.4437 44.8776C58.3104 44.3877 58.7846 43.622 58.7846 42.6166C58.7847 41.0559 58.0485 40.1377 56.5598 39.8353C58.0575 38.6283 57.5057 36.1756 55.6426 35.4891ZM60.3605 57.042C60.2296 56.7913 59.8483 56.9903 59.9792 57.2411L62.0628 61.2968C62.1937 61.5475 62.575 61.3485 62.4441 61.0977L60.3605 57.042ZM49.817 2.72353C50.0021 2.50967 49.6765 2.22789 49.4914 2.44179L47.0919 5.2159C46.9068 5.42976 47.2324 5.71153 47.4175 5.49765L49.817 2.72353ZM4.22798 37.0667C4.48877 37.1766 4.65576 36.7801 4.39502 36.6702L1.34406 35.3872C1.08327 35.2774 0.91629 35.6739 1.17703 35.7837L4.22798 37.0667ZM10.0858 27.0276C12.0291 24.2544 14.6971 23.7288 17.8505 23.1081C20.6185 22.5633 23.7474 21.9474 27.1253 19.7424C28.5476 23.5288 30.3477 30.7038 32.6929 33.5941C33.5429 34.6416 34.5477 35.6022 35.4374 36.2524C33.2546 42.098 29.4043 45.0373 25.0048 49.0431C24.3193 49.6673 23.6429 50.3421 22.7128 50.577C21.5767 50.864 20.3565 50.2341 20.0791 49.0783C19.8683 48.1996 20.2849 47.8213 20.7833 47.2578L25.0703 42.4097C25.3825 42.0569 24.8454 41.5818 24.5332 41.9345L19.3877 47.7534C17.8127 49.5345 15.492 48.7468 15.2001 46.6262C15.1125 45.9898 15.2604 45.2382 15.8257 44.4509L20.3739 39.2292C20.6823 38.8727 20.1396 38.4031 19.8312 38.7596L15.2873 43.9712C14.9106 44.4798 13.9149 45.3127 13.3125 45.5577C11.8981 46.1329 10.1663 44.6907 10.2832 43.2163C10.3257 42.6797 10.5038 42.0668 10.9132 41.4742C12.0718 39.797 14.2268 37.2724 15.638 35.5604C15.9372 35.1966 15.3833 34.741 15.0841 35.1049C13.5835 36.9253 11.7413 39.2853 10.1768 41.0016C7.38241 44.0671 4.12149 41.3313 4.85862 39.3309C5.23369 38.313 8.03101 35.0317 8.89845 33.8021C10.7466 31.1822 12.1456 28.4865 10.5665 27.3364C10.4465 27.2371 10.2249 27.116 10.0858 27.0276ZM47.6866 39.7601C47.4886 39.7609 47.3287 39.922 47.3295 40.12C47.3303 40.318 47.4914 40.4779 47.6894 40.4771L55.0133 40.4294C56.6382 40.4189 58.0677 40.6611 58.0676 42.6166C58.0675 44.4096 56.0341 44.7551 54.6306 44.795C52.5703 44.8512 50.5079 44.8778 48.4461 44.9132C47.9746 44.9206 47.9857 45.6376 48.4573 45.6302C50.5578 45.5941 52.6589 45.5635 54.7592 45.521C57.1572 45.4724 59.0601 45.4339 59.5949 47.5198C60.2181 49.9507 56.6049 50.1528 55.0332 50.2178C53.0295 50.2968 51.0238 50.3574 49.0192 50.4241C48.5477 50.4388 48.5701 51.1559 49.0417 51.1411C52.0086 51.0425 55.0048 50.9856 57.9666 50.8388C61.0931 50.596 62.9573 53.8077 60.7018 54.8205C58.4578 55.828 52.4381 55.77 49.7626 55.9137C48.1041 56.0028 46.4247 56.3038 46.5914 58.0148C46.6512 58.6287 46.9522 59.333 47.1584 59.9056C42.8615 59.1223 40.3438 57.8413 36.586 55.4817C32.5854 52.9697 31.2273 50.8501 26.1144 49.0038C30.499 45 33.9868 42.2594 36.1485 36.3994C37.8673 35.7945 39.6665 35.5074 41.4829 35.4207C44.2161 35.2901 52.6754 35.1916 55.4067 36.198C57.1084 36.825 57.0597 39.4115 55.0728 39.6741C53.0112 39.9466 49.8646 39.7459 47.6866 39.7601ZM35.9235 35.7176C35.0657 35.1026 34.0821 34.1673 33.2497 33.1414C31.0101 30.3812 29.1359 23.0518 27.7592 19.3879C27.0578 17.5206 27.7165 15.3011 29.8453 14.8783C30.3377 17.6325 32.8873 21.727 34.1004 24.5592C34.2853 24.9938 34.9461 24.7126 34.7611 24.278C33.7354 21.8832 30.5885 16.413 30.5132 14.4293C30.425 12.1039 33.3955 10.6304 34.8867 13.1135L38.916 21.6422C39.1176 22.0694 39.7671 21.7629 39.5655 21.3357L35.5279 12.7654C33.9567 9.43032 37.3765 7.15646 39.3427 8.83826C39.8818 9.29945 40.4511 9.97292 40.9189 10.883L44.8172 18.4654C45.028 18.887 45.6692 18.5665 45.4583 18.1448C44.1836 15.6075 42.8351 13.0574 41.6143 10.4953C41.3055 9.84716 41.0281 9.18014 40.8774 8.53636C40.3351 6.22159 42.6762 3.86881 44.4704 5.48443C47.0137 7.77454 49.0235 13.6819 50.7893 16.8325C52.0306 19.0474 52.8167 18.2883 54.578 18.2924C54.8949 18.2932 55.177 18.3861 55.3988 18.7185C56.8214 20.8509 55.732 25.3752 55.3146 27.8637C54.8048 30.9039 54.7598 32.2557 54.9132 35.2761C51.4034 34.5074 45.1682 34.526 41.4491 34.7036C39.5613 34.7938 37.71 35.0901 35.9235 35.7176Z" fill="#070D13" stroke="#070D13" stroke-width="0.2"/>
</svg>
