<svg xmlns="http://www.w3.org/2000/svg" width="430" height="2280" viewBox="0 0 430 2280" fill="none">
<g opacity="0.2" filter="url(#filter0_f_181_4180)">
<path d="M588 1345C588 1494.12 467.117 1615 318 1615C168.883 1615 48 1494.12 48 1345C48 1195.88 168.883 1075 318 1075C467.117 1075 588 1195.88 588 1345Z" fill="url(#paint0_linear_181_4180)"/>
</g>
<g opacity="0.16" filter="url(#filter1_f_181_4180)">
<path d="M288 1266.5L340.598 1264.01C356.017 1263.14 359.701 1250.58 360.558 1234.86L363 1190L365.449 1234.86C366.3 1250.58 369.99 1263.14 385.402 1264.01L438 1266.5L385.402 1268.99C369.991 1269.87 366.3 1273.62 365.449 1289.35L363 1343L360.558 1289.35C359.7 1273.62 356.017 1269.87 340.598 1268.99L288 1266.5Z" fill="white"/>
</g>
<g opacity="0.32" filter="url(#filter2_f_181_4180)">
<path d="M105.959 929.54L-219.224 604.357L223.134 162L548.317 487.182L105.959 929.54Z" fill="url(#paint1_linear_181_4180)"/>
</g>
<g opacity="0.45" filter="url(#filter3_f_181_4180)">
<path d="M60 555.499L81.7406 554.474C88.1136 554.113 89.6362 548.942 89.9908 542.47L91 523.999L92.0123 542.47C92.364 548.942 93.8894 554.113 100.259 554.474L122 555.499L100.259 556.524C93.8894 556.885 92.3638 558.432 92.0123 564.908L91 586.999L89.9908 564.908C89.6361 558.432 88.1138 556.885 81.7406 556.524L60 555.499Z" fill="white"/>
</g>





<mask id="path-9-inside-1_181_4180" fill="white">
<path d="M140.534 652.609C140.534 650.412 138.746 648.627 136.55 648.627C134.353 648.627 132.568 650.415 132.568 652.609C132.568 654.806 134.356 656.593 136.55 656.593C138.747 656.593 140.534 654.806 140.534 652.609ZM133.411 652.609C133.411 650.878 134.821 649.468 136.553 649.468C138.284 649.468 139.694 650.878 139.694 652.609C139.694 654.34 138.284 655.75 136.553 655.75C134.821 655.75 133.411 654.34 133.411 652.609Z"/>
</mask>

<mask id="path-11-inside-2_181_4180" fill="white">
<path d="M142.293 671.713C142.065 671.668 141.845 671.817 141.8 672.045C141.755 672.274 141.904 672.494 142.133 672.539C144.721 673.041 145.288 673.684 145.288 673.89C145.288 674.507 142.206 675.708 136.552 675.708C130.898 675.708 127.814 674.507 127.814 673.89C127.814 673.684 128.381 673.041 130.966 672.542C131.195 672.497 131.344 672.277 131.299 672.048C131.254 671.82 131.037 671.67 130.806 671.715C128.259 672.206 126.971 672.936 126.971 673.889C126.971 675.717 131.936 676.551 136.552 676.551C141.165 676.551 146.128 675.72 146.128 673.889C146.128 672.939 144.837 672.206 142.293 671.713Z"/>
</mask>

<mask id="path-13-inside-3_181_4180" fill="white">
<path d="M142.237 678.576C142.006 678.548 141.797 678.717 141.772 678.946C141.109 684.757 138.825 690.194 135.159 694.722C134.889 693.693 134.415 692.714 133.439 692.463C132.48 692.215 131.699 692.81 130.947 693.385C130.25 693.916 129.59 694.417 128.851 694.245C128.166 694.085 127.453 693.383 126.942 692.367C126.24 690.974 126.099 689.35 126.584 688.231C127.117 687.001 128.304 686.519 129.559 686.009C130.944 685.448 132.373 684.864 132.954 683.24C133.329 682.191 133.084 681.407 132.844 680.651C132.7 680.192 132.551 679.718 132.528 679.148C132.52 678.917 132.328 678.737 132.091 678.745C131.86 678.754 131.68 678.951 131.688 679.182C131.716 679.862 131.891 680.414 132.043 680.902C132.266 681.613 132.444 682.174 132.162 682.958C131.708 684.23 130.512 684.715 129.243 685.231C127.887 685.783 126.483 686.353 125.812 687.898C125.107 689.525 125.544 691.471 126.19 692.751C126.821 694.006 127.724 694.852 128.66 695.072C129.785 695.334 130.673 694.657 131.457 694.062C132.105 693.569 132.667 693.14 133.231 693.287C133.811 693.436 134.212 694.158 134.483 695.545C134.006 696.095 133.501 696.637 132.982 697.158C125.073 705.068 113.507 708.046 102.757 704.955C102.292 704.101 101.742 703.32 101.111 702.635C100.953 702.463 100.775 702.282 100.589 702.09C99.5766 701.056 98.3161 699.77 98.5219 698.349C98.6826 697.252 99.709 696.062 101.204 695.244C102.802 694.367 104.505 694.144 105.647 694.66C107.046 695.292 107.373 696.944 107.714 698.69C108.078 700.539 108.453 702.448 110.168 703.314C111.772 704.123 114.262 703.768 116.667 702.386C118.644 701.25 120.804 699.208 120.942 696.891C121.049 695.083 119.761 694.057 118.399 692.971C116.986 691.846 115.525 690.681 115.308 688.479C115.032 685.662 116.349 683.409 117.62 681.232C118.94 678.974 120.186 676.839 119.278 674.451C118.224 671.653 114.519 669.561 112.068 670.385C109.973 671.09 109.584 673.534 109.169 676.12C108.755 678.717 108.326 681.404 106.24 682.744C103.916 684.238 101.841 682.513 99.6442 680.688C97.3827 678.807 95.0423 676.862 92.4876 678.906C87.3611 683.006 84.3918 680.646 82.4262 679.081C81.8002 678.584 81.1996 678.108 80.6723 678.099C80.5172 676.323 80.52 674.532 80.6779 672.762C81.7184 673.125 82.7787 673.331 83.8445 673.368C85.6153 673.43 88.7115 673.258 89.5574 671.414C89.9832 670.486 89.6082 669.623 89.2755 668.859C88.9737 668.163 88.7115 667.559 88.9794 666.947C89.2755 666.268 90.1721 665.659 91.2634 665.396C92.2419 665.162 93.1499 665.267 93.6377 665.67C94.3737 666.276 94.0804 667.618 93.7731 669.04C93.4121 670.706 93.0005 672.593 94.1284 673.918C95.0476 674.998 96.6916 675.381 98.2847 675.381C98.8431 675.381 99.3958 675.333 99.9117 675.254C101.945 674.936 104.392 673.94 105.157 672.102C105.729 670.729 105.106 669.463 104.446 668.123C103.713 666.634 102.954 665.095 103.47 663.045C103.733 662.001 104.181 661.404 104.612 660.823C105.134 660.126 105.625 659.466 105.577 658.271C105.506 656.477 104.285 655.259 103.304 654.281C102.579 653.559 101.956 652.936 102.108 652.386C102.244 651.901 102.872 651.712 103.888 651.444C104.928 651.171 106.222 650.829 107.105 649.792C108.038 648.695 108.317 647.059 107.94 644.925C109.42 644.764 110.926 644.71 112.426 644.764C111.504 647.209 111.247 650.412 112.68 652.546C113.619 653.945 115.167 654.678 117.172 654.678C117.245 654.678 117.315 654.678 117.389 654.675C118.728 654.641 119.453 653.505 120.155 652.405C120.741 651.486 121.297 650.618 122.129 650.454L122.179 650.443C122.411 650.423 122.583 650.22 122.563 649.989C122.543 649.758 122.337 649.586 122.109 649.605C122.075 649.608 122.041 649.614 122.007 649.619L121.979 649.625C120.781 649.859 120.101 650.922 119.444 651.951C118.835 652.907 118.257 653.81 117.366 653.832C115.536 653.883 114.191 653.288 113.376 652.076C112.071 650.13 112.417 647.011 113.311 644.809C116.653 645.032 119.907 645.785 122.981 647.057C123.195 647.147 123.443 647.042 123.531 646.828C123.621 646.614 123.516 646.369 123.302 646.278C120.048 644.933 116.602 644.149 113.06 643.949C111.163 643.842 109.254 643.907 107.384 644.138C100.352 645.001 93.9761 648.114 88.9512 653.139C83.8643 658.226 80.6469 664.954 79.8911 672.082C79.8826 672.116 79.8798 672.15 79.8798 672.181C79.6514 674.358 79.6514 676.566 79.8798 678.748C79.8798 678.754 79.8798 678.762 79.8826 678.768C80.6355 685.919 83.8529 692.661 88.9485 697.757C92.6763 701.484 97.2976 704.234 102.315 705.709C102.326 705.714 102.337 705.717 102.348 705.72C105.284 706.583 108.278 707 111.25 707C119.504 707 127.563 703.76 133.569 697.757C134.153 697.173 134.717 696.564 135.247 695.944C139.344 691.158 141.887 685.316 142.603 679.053C142.629 678.822 142.465 678.613 142.234 678.588L142.237 678.576ZM89.5494 653.722C94.3487 648.923 100.408 645.92 107.102 645.012C107.446 646.907 107.232 648.326 106.462 649.231C105.752 650.065 104.646 650.356 103.671 650.615C102.588 650.9 101.567 651.171 101.296 652.147C101.012 653.17 101.835 653.993 102.709 654.862C103.631 655.781 104.674 656.825 104.734 658.288C104.77 659.188 104.418 659.656 103.936 660.304C103.499 660.888 102.954 661.618 102.653 662.822C102.06 665.174 102.963 667.007 103.69 668.479C104.313 669.742 104.804 670.74 104.378 671.761C103.859 673.01 102.055 674.051 99.7821 674.406C97.5742 674.753 95.6088 674.341 94.7713 673.357C93.9141 672.348 94.2609 670.749 94.5965 669.203C94.9461 667.599 95.3071 665.938 94.1735 665.005C93.4742 664.43 92.3125 664.263 91.0661 664.562C89.7042 664.889 88.6101 665.667 88.2069 666.598C87.7952 667.545 88.1702 668.417 88.5029 669.181C88.8018 669.869 89.0584 670.464 88.7906 671.05C88.3281 672.057 86.4924 672.604 83.8728 672.514C82.8295 672.477 81.7862 672.266 80.7654 671.885C81.555 665.047 84.6652 658.606 89.552 653.723L89.5494 653.722ZM89.5494 697.15C84.6571 692.258 81.5439 685.806 80.7571 678.954C80.9939 679.007 81.4705 679.385 81.8991 679.726C83.808 681.243 87.3582 684.069 93.0093 679.549C95.0283 677.936 96.9147 679.504 99.1001 681.322C101.325 683.172 103.846 685.267 106.688 683.44C109.094 681.898 109.573 678.892 109.996 676.241C110.382 673.813 110.718 671.715 112.331 671.171C114.367 670.489 117.587 672.355 118.486 674.738C119.25 676.752 118.156 678.627 116.887 680.798C115.61 682.983 114.164 685.462 114.465 688.552C114.716 691.11 116.391 692.443 117.869 693.622C119.16 694.649 120.178 695.461 120.096 696.834C120 698.466 118.486 700.359 116.242 701.65C114.113 702.874 111.877 703.229 110.543 702.558C109.198 701.878 108.876 700.249 108.538 698.52C108.169 696.639 107.785 694.696 105.989 693.884C104.61 693.261 102.619 693.498 100.792 694.496C99.0439 695.455 97.8822 696.845 97.6819 698.218C97.4169 700.051 98.8973 701.563 99.9801 702.668C100.161 702.851 100.333 703.029 100.485 703.192C100.874 703.613 101.226 704.078 101.548 704.568C97.056 703.074 92.9252 700.525 89.5498 697.147L89.5494 697.15Z"/>
</mask>















<mask id="path-28-inside-4_181_4180" fill="white">
<path fill-rule="evenodd" clip-rule="evenodd" d="M299.261 1384.62C299.733 1385.06 299.754 1385.81 299.31 1386.28L298.255 1387.4C298.024 1387.65 297.714 1387.76 297.401 1387.76C297.111 1387.76 296.825 1387.66 296.598 1387.45C296.126 1387 296.105 1386.26 296.549 1385.79L297.604 1384.67C298.048 1384.2 298.789 1384.18 299.261 1384.62ZM294.12 1392.26C293.527 1392 293.255 1391.32 293.517 1390.72L294.065 1389.47C294.323 1388.88 295.016 1388.61 295.609 1388.87C296.201 1389.13 296.474 1389.82 296.212 1390.41L295.667 1391.66C295.474 1392.1 295.044 1392.36 294.592 1392.36C294.434 1392.36 294.275 1392.33 294.12 1392.26ZM293.82 1397.26C293.172 1397.26 292.649 1396.73 292.649 1396.08V1394.79C292.649 1394.14 293.172 1393.62 293.82 1393.62C294.468 1393.62 294.992 1394.14 294.992 1394.79V1396.08C294.992 1396.73 294.465 1397.26 293.82 1397.26ZM295.605 1401.99C295.454 1402.06 295.292 1402.09 295.137 1402.09C294.685 1402.09 294.254 1401.84 294.061 1401.39L293.514 1400.14C293.255 1399.55 293.524 1398.86 294.117 1398.6C294.709 1398.34 295.402 1398.61 295.66 1399.2L296.205 1400.45C296.47 1401.04 296.198 1401.74 295.605 1401.99ZM299.31 1404.59C299.754 1405.06 299.73 1405.8 299.261 1406.24C299.034 1406.46 298.744 1406.56 298.458 1406.56C298.148 1406.56 297.835 1406.44 297.604 1406.19L296.549 1405.08C296.105 1404.6 296.129 1403.86 296.598 1403.42C297.07 1402.98 297.811 1403 298.255 1403.47L299.31 1404.59ZM304.551 1409.8C304.33 1410.16 303.944 1410.36 303.552 1410.36C303.341 1410.36 303.131 1410.3 302.942 1410.18L301.45 1409.27C300.898 1408.93 300.726 1408.21 301.064 1407.66C301.401 1407.1 302.125 1406.94 302.676 1407.27L304.168 1408.18C304.716 1408.52 304.889 1409.24 304.551 1409.8ZM311.177 1412.43C311.009 1412.91 310.557 1413.21 310.075 1413.21C309.944 1413.21 309.813 1413.19 309.685 1413.14L307.859 1412.49C307.249 1412.28 306.929 1411.62 307.146 1411C307.363 1410.39 308.031 1410.07 308.641 1410.29L310.467 1410.93C311.074 1411.15 311.394 1411.82 311.177 1412.43ZM318.738 1413.95C318.645 1414.52 318.148 1414.93 317.583 1414.93C317.521 1414.93 317.456 1414.93 317.394 1414.92L315.354 1414.58C314.716 1414.47 314.282 1413.87 314.389 1413.23C314.496 1412.59 315.095 1412.17 315.736 1412.27L317.776 1412.6C318.41 1412.71 318.841 1413.32 318.738 1413.95ZM326.729 1414.21C326.743 1414.86 326.229 1415.39 325.581 1415.4C325.213 1415.41 324.858 1415.41 324.503 1415.41C324.148 1415.41 323.789 1415.41 323.424 1415.4C322.776 1415.39 322.263 1414.86 322.277 1414.21C322.29 1413.56 322.828 1413.05 323.472 1413.06C324.175 1413.08 324.83 1413.08 325.533 1413.06C326.181 1413.05 326.715 1413.56 326.729 1414.21ZM334.62 1413.24C334.727 1413.87 334.293 1414.48 333.655 1414.58L331.615 1414.92C331.55 1414.93 331.488 1414.93 331.426 1414.93C330.86 1414.93 330.364 1414.52 330.271 1413.95C330.168 1413.32 330.599 1412.71 331.236 1412.61L333.276 1412.27C333.914 1412.17 334.517 1412.59 334.62 1413.24ZM341.863 1411C342.08 1411.62 341.76 1412.28 341.15 1412.49L339.324 1413.14C339.193 1413.19 339.062 1413.21 338.934 1413.21C338.452 1413.21 338 1412.91 337.832 1412.43C337.614 1411.82 337.935 1411.15 338.545 1410.93L340.371 1410.29C340.978 1410.07 341.646 1410.39 341.863 1411ZM347.945 1407.66C348.283 1408.21 348.111 1408.93 347.559 1409.27L346.067 1410.18C345.878 1410.3 345.664 1410.36 345.457 1410.36C345.065 1410.36 344.679 1410.16 344.458 1409.8C344.12 1409.24 344.293 1408.52 344.844 1408.18L346.336 1407.27C346.884 1406.94 347.608 1407.1 347.945 1407.66ZM352.408 1403.42C352.88 1403.86 352.901 1404.6 352.456 1405.08L351.402 1406.19C351.171 1406.44 350.861 1406.56 350.547 1406.56C350.258 1406.56 349.972 1406.46 349.744 1406.24C349.272 1405.8 349.251 1405.06 349.696 1404.59L350.75 1403.47C351.195 1403 351.936 1402.98 352.408 1403.42ZM355.488 1400.14L354.941 1401.39C354.748 1401.84 354.317 1402.09 353.865 1402.09C353.707 1402.09 353.548 1402.06 353.397 1401.99C352.804 1401.74 352.535 1401.05 352.794 1400.45L353.342 1399.2C353.6 1398.61 354.293 1398.34 354.885 1398.6C355.478 1398.86 355.747 1399.55 355.488 1400.14ZM356.357 1394.79V1396.08C356.357 1396.73 355.833 1397.26 355.185 1397.26C354.537 1397.26 354.014 1396.73 354.014 1396.08V1394.79C354.014 1394.14 354.537 1393.62 355.185 1393.62C355.833 1393.62 356.357 1394.14 356.357 1394.79ZM352.794 1390.41C352.535 1389.82 352.804 1389.13 353.397 1388.87C353.989 1388.61 354.682 1388.88 354.941 1389.47L355.488 1390.72C355.747 1391.31 355.478 1392 354.885 1392.26C354.734 1392.33 354.572 1392.36 354.417 1392.36C353.965 1392.36 353.535 1392.1 353.342 1391.66L352.794 1390.41ZM352.456 1385.79C352.901 1386.26 352.876 1387 352.408 1387.45C352.18 1387.66 351.894 1387.76 351.605 1387.76C351.295 1387.76 350.981 1387.65 350.75 1387.4L349.696 1386.28C349.251 1385.81 349.275 1385.06 349.744 1384.62C350.216 1384.18 350.957 1384.2 351.402 1384.67L352.456 1385.79ZM355.078 1362.44C355.247 1362.14 355.158 1361.77 354.868 1361.58L354.73 1361.49C354.434 1361.29 354.031 1361.37 353.828 1361.66C352.377 1363.76 350.757 1365.78 349.014 1367.65C347.298 1369.49 345.251 1371.68 342.532 1372.78C341.991 1373.05 341.395 1373.24 340.768 1373.31C340.588 1373.35 340.406 1373.38 340.22 1373.4C339.627 1373.49 339.079 1373.53 338.576 1373.53C335.364 1373.53 333.803 1371.96 331.75 1369.9L326.887 1365.04C326.76 1364.91 326.598 1364.84 326.422 1364.84H326.419C326.246 1364.84 326.081 1364.91 325.953 1365.04L325.864 1365.14C325.643 1365.35 325.609 1365.67 325.774 1365.94C326.188 1366.61 326.594 1367.24 326.987 1367.86C329.661 1372.02 331.774 1375.31 331.746 1381.34C331.725 1386.01 330.195 1392.36 328.845 1397.97C328.538 1399.23 328.248 1400.44 327.99 1401.57C327.952 1401.74 328.059 1401.91 328.228 1401.95L328.472 1402.02C328.627 1402.06 328.765 1402 328.845 1401.86L335.698 1389.59C335.912 1389.22 336.308 1389 336.722 1389C336.849 1389 336.977 1389.02 337.101 1389.06C337.635 1389.25 337.966 1389.78 337.88 1390.34L336.071 1402.27C336.043 1402.46 336.122 1402.59 336.171 1402.65C336.219 1402.71 336.333 1402.81 336.522 1402.84L336.798 1402.86C337.022 1402.87 337.201 1402.76 337.287 1402.55C340.24 1395.32 342.752 1387.79 344.971 1379.53C345.292 1378.34 345.747 1377.35 346.446 1376.34C349.486 1371.95 352.387 1367.27 355.078 1362.44ZM323.228 1365.94C323.394 1365.67 323.359 1365.36 323.139 1365.14L323.049 1365.04C322.921 1364.91 322.76 1364.84 322.584 1364.84H322.58C322.408 1364.84 322.243 1364.91 322.119 1365.04L317.256 1369.91C314.882 1372.29 313.166 1374.01 308.786 1373.41C308.6 1373.39 308.418 1373.36 308.238 1373.32C307.611 1373.25 307.015 1373.06 306.474 1372.78C303.755 1371.68 301.705 1369.49 299.992 1367.65C298.249 1365.78 296.629 1363.76 295.178 1361.66C295.051 1361.48 294.844 1361.38 294.637 1361.38C294.513 1361.38 294.386 1361.41 294.275 1361.49L294.138 1361.58C293.848 1361.77 293.759 1362.15 293.927 1362.44C296.619 1367.28 299.524 1371.96 302.553 1376.35C303.252 1377.36 303.707 1378.35 304.027 1379.53C306.247 1387.8 308.759 1395.33 311.712 1402.56C311.798 1402.76 311.977 1402.87 312.201 1402.86L312.477 1402.84C312.666 1402.82 312.78 1402.72 312.828 1402.65C312.877 1402.59 312.956 1402.46 312.928 1402.28L311.119 1390.35C311.033 1389.79 311.36 1389.25 311.898 1389.06C312.435 1388.89 313.025 1389.1 313.3 1389.6L320.154 1401.87C320.233 1402.01 320.371 1402.07 320.523 1402.03L320.768 1401.96C320.94 1401.92 321.047 1401.74 321.005 1401.57C320.747 1400.45 320.457 1399.24 320.151 1397.97C318.8 1392.37 317.273 1386.02 317.249 1381.35C317.222 1375.32 319.334 1372.02 322.008 1367.86C322.404 1367.25 322.815 1366.61 323.228 1365.94ZM296.091 1359.03C298.207 1359.22 300.002 1359.14 301.587 1358.78C306.088 1357.75 307.149 1355.3 308.493 1352.19C308.7 1351.72 308.917 1351.21 309.158 1350.7L311.998 1344.55C312.294 1345.13 312.594 1345.74 312.894 1346.35C311.267 1352.5 310.157 1357.56 309.73 1362.9C309.441 1362.85 309.144 1362.82 308.841 1362.82C305.971 1362.82 303.634 1365.13 303.579 1367.99C302.921 1367.35 302.301 1366.69 301.705 1366.05C300.04 1364.26 298.493 1362.34 297.108 1360.33C296.743 1359.8 296.226 1359.42 295.657 1359.23C295.674 1359.2 295.692 1359.18 295.705 1359.17C295.764 1359.11 295.895 1359.01 296.091 1359.03ZM302.056 1350.06C300.447 1350.06 299.134 1351.37 299.134 1352.98C299.134 1354.58 300.443 1355.9 302.056 1355.9C302.659 1355.9 303.221 1355.71 303.689 1355.41C303.689 1355.4 303.689 1355.4 303.693 1355.4C303.71 1355.39 303.727 1355.38 303.745 1355.37C303.834 1355.3 303.917 1355.23 304 1355.16C304.599 1354.63 304.982 1353.84 304.982 1352.99C304.978 1351.37 303.665 1350.06 302.056 1350.06ZM312.008 1363.88C312.314 1359.21 313.179 1354.77 314.468 1349.61C315.984 1352.85 317.318 1356.12 317.866 1358.94C318.224 1360.78 318.469 1362.84 318.614 1365.23L315.592 1368.25C314.892 1368.95 314.31 1369.53 313.744 1369.99C313.975 1369.4 314.103 1368.75 314.103 1368.08C314.106 1366.37 313.279 1364.84 312.008 1363.88ZM307.442 1370.65C306.536 1370.15 305.919 1369.19 305.919 1368.09C305.919 1366.47 307.228 1365.17 308.841 1365.17C310.45 1365.17 311.763 1366.47 311.763 1368.09C311.763 1369.7 310.454 1371.01 308.841 1371.01C308.755 1371.01 308.669 1371 308.582 1370.99C308.19 1370.91 307.807 1370.79 307.442 1370.65ZM312.883 1340.68C312.914 1340.6 312.997 1340.47 313.186 1340.41L313.286 1340.38C313.517 1340.3 313.751 1340.39 313.869 1340.6C315.653 1343.81 317.731 1346.39 320.037 1348.26C322.666 1350.4 326.339 1350.4 328.969 1348.26C331.274 1346.39 333.348 1343.81 335.137 1340.6C335.233 1340.43 335.392 1340.35 335.605 1340.36C335.785 1340.37 336.026 1340.46 336.122 1340.68C336.184 1340.83 336.181 1340.95 336.112 1341.09C335.733 1341.87 335.333 1342.67 334.923 1343.49C332.494 1348.36 329.744 1353.86 328.841 1358.49C328.565 1359.9 328.355 1361.41 328.204 1363.09C327.69 1362.7 327.077 1362.5 326.429 1362.5H326.419C325.712 1362.51 325.044 1362.76 324.506 1363.2C323.969 1362.76 323.3 1362.51 322.594 1362.5C321.942 1362.5 321.325 1362.7 320.809 1363.09C320.657 1361.41 320.443 1359.9 320.171 1358.49C319.268 1353.86 316.518 1348.36 314.089 1343.49C313.679 1342.67 313.279 1341.87 312.897 1341.09C312.807 1340.91 312.852 1340.75 312.883 1340.68ZM324.503 1341.68C322.89 1341.68 321.581 1342.99 321.581 1344.6C321.581 1346.11 322.732 1347.36 324.2 1347.51C324.399 1347.52 324.603 1347.52 324.803 1347.51C326.274 1347.36 327.422 1346.11 327.422 1344.6C327.425 1342.99 326.115 1341.68 324.503 1341.68ZM334.534 1349.61C335.826 1354.77 336.687 1359.21 336.998 1363.88C335.726 1364.84 334.899 1366.37 334.899 1368.09C334.899 1368.76 335.027 1369.4 335.257 1370C334.692 1369.53 334.11 1368.96 333.41 1368.25L330.388 1365.23C330.533 1362.84 330.778 1360.78 331.136 1358.94C331.687 1356.12 333.018 1352.85 334.534 1349.61ZM340.426 1370.99C340.34 1371 340.254 1371.01 340.168 1371.01C338.559 1371.01 337.246 1369.69 337.246 1368.09C337.246 1366.47 338.555 1365.17 340.168 1365.17C341.781 1365.17 343.09 1366.47 343.09 1368.09C343.09 1369.19 342.473 1370.15 341.567 1370.65C341.198 1370.79 340.819 1370.91 340.426 1370.99ZM340.512 1352.2C341.277 1353.97 341.98 1355.59 343.38 1356.84C343.583 1357.03 343.8 1357.21 344.031 1357.35C344.892 1357.96 345.981 1358.44 347.418 1358.78C349 1359.13 350.799 1359.22 352.914 1359.03C353.114 1359.01 353.245 1359.11 353.304 1359.16C353.318 1359.17 353.335 1359.2 353.352 1359.22C352.78 1359.42 352.267 1359.79 351.901 1360.33C350.516 1362.34 348.969 1364.25 347.304 1366.05C346.708 1366.69 346.088 1367.35 345.43 1367.98C345.375 1365.13 343.035 1362.82 340.168 1362.82C339.865 1362.82 339.568 1362.84 339.279 1362.9C338.855 1357.56 337.742 1352.51 336.119 1346.34C336.419 1345.73 336.719 1345.13 337.015 1344.55L339.854 1350.7C340.089 1351.21 340.306 1351.72 340.512 1352.2ZM346.95 1350.06C345.337 1350.06 344.027 1351.37 344.027 1352.98C344.027 1353.87 344.434 1354.67 345.068 1355.21C345.082 1355.23 345.096 1355.24 345.106 1355.25C345.609 1355.65 346.25 1355.9 346.946 1355.9C348.555 1355.9 349.868 1354.58 349.868 1352.98C349.872 1351.37 348.562 1350.06 346.95 1350.06ZM356.167 1359.63L356.029 1359.53C355.95 1359.48 355.871 1359.43 355.788 1359.39C355.757 1358.67 355.454 1357.99 354.934 1357.48C354.341 1356.9 353.524 1356.61 352.697 1356.69C351.942 1356.76 351.243 1356.79 350.585 1356.78C351.587 1355.82 352.215 1354.47 352.215 1352.98C352.215 1350.07 349.854 1347.71 346.949 1347.71C344.951 1347.71 343.21 1348.83 342.318 1350.47C342.208 1350.22 342.097 1349.98 341.973 1349.71L338.334 1341.83C338.579 1341.16 338.558 1340.43 338.272 1339.76C337.845 1338.76 336.846 1338.07 335.722 1338.01C334.623 1337.95 333.614 1338.5 333.083 1339.46C332.063 1341.29 330.946 1342.9 329.751 1344.25C329.572 1341.51 327.287 1339.34 324.499 1339.34C321.711 1339.34 319.423 1341.51 319.248 1344.25C318.052 1342.9 316.935 1341.29 315.915 1339.46C315.25 1338.27 313.875 1337.72 312.573 1338.14L312.473 1338.17C311.684 1338.43 311.05 1339 310.726 1339.76C310.447 1340.42 310.429 1341.16 310.667 1341.83L307.028 1349.71C306.908 1349.97 306.794 1350.22 306.684 1350.47C305.791 1348.83 304.051 1347.71 302.052 1347.71C299.151 1347.71 296.787 1350.07 296.787 1352.98C296.787 1354.47 297.414 1355.82 298.417 1356.78C297.759 1356.79 297.056 1356.76 296.305 1356.69C295.478 1356.61 294.661 1356.9 294.068 1357.48C293.548 1357.99 293.245 1358.67 293.214 1359.39C293.131 1359.43 293.052 1359.48 292.972 1359.53L292.834 1359.63C291.539 1360.49 291.118 1362.22 291.877 1363.59C294.606 1368.48 297.549 1373.22 300.619 1377.67C301.167 1378.47 301.508 1379.2 301.76 1380.14C304.003 1388.49 306.549 1396.11 309.537 1403.43C309.975 1404.5 311.012 1405.2 312.159 1405.2C312.225 1405.2 312.294 1405.2 312.359 1405.18L312.635 1405.16C313.424 1405.12 314.162 1404.73 314.654 1404.12C315.147 1403.49 315.361 1402.69 315.24 1401.91L314.399 1396.37L318.104 1403C318.707 1404.08 319.913 1404.6 321.108 1404.29L321.353 1404.23C322.763 1403.86 323.61 1402.46 323.286 1401.04C323.024 1399.9 322.735 1398.69 322.428 1397.41C321.108 1391.94 319.613 1385.73 319.592 1381.33C319.568 1375.99 321.419 1373.11 323.982 1369.12C324.151 1368.86 324.327 1368.59 324.499 1368.31C324.675 1368.59 324.847 1368.86 325.016 1369.12C327.576 1373.11 329.43 1375.99 329.403 1381.33C329.382 1385.73 327.887 1391.93 326.567 1397.41C326.26 1398.69 325.967 1399.9 325.709 1401.04C325.385 1402.46 326.233 1403.86 327.642 1404.23L327.887 1404.29C329.082 1404.6 330.289 1404.08 330.892 1403L334.596 1396.37L333.755 1401.91C333.634 1402.69 333.852 1403.49 334.341 1404.12C334.834 1404.73 335.568 1405.12 336.36 1405.16L336.636 1405.18C336.705 1405.2 336.77 1405.2 336.836 1405.2C337.983 1405.2 339.021 1404.5 339.458 1403.43C342.446 1396.11 344.992 1388.49 347.236 1380.14C347.487 1379.2 347.828 1378.47 348.376 1377.67C351.447 1373.22 354.389 1368.48 357.119 1363.59C357.884 1362.22 357.463 1360.49 356.167 1359.63Z"/>
</mask>

<mask id="path-29-inside-5_181_4180" fill="white">
<path fill-rule="evenodd" clip-rule="evenodd" d="M299.261 1384.62C299.733 1385.06 299.754 1385.81 299.31 1386.28L298.255 1387.4C298.024 1387.65 297.714 1387.76 297.401 1387.76C297.111 1387.76 296.825 1387.66 296.598 1387.45C296.126 1387 296.105 1386.26 296.549 1385.79L297.604 1384.67C298.048 1384.2 298.789 1384.18 299.261 1384.62ZM294.12 1392.26C293.527 1392 293.255 1391.32 293.517 1390.72L294.065 1389.47C294.323 1388.88 295.016 1388.61 295.609 1388.87C296.201 1389.13 296.474 1389.82 296.212 1390.41L295.667 1391.66C295.474 1392.1 295.044 1392.36 294.592 1392.36C294.434 1392.36 294.275 1392.33 294.12 1392.26ZM293.82 1397.26C293.172 1397.26 292.649 1396.73 292.649 1396.08V1394.79C292.649 1394.14 293.172 1393.62 293.82 1393.62C294.468 1393.62 294.992 1394.14 294.992 1394.79V1396.08C294.992 1396.73 294.465 1397.26 293.82 1397.26ZM295.605 1401.99C295.454 1402.06 295.292 1402.09 295.137 1402.09C294.685 1402.09 294.254 1401.84 294.061 1401.39L293.514 1400.14C293.255 1399.55 293.524 1398.86 294.117 1398.6C294.709 1398.34 295.402 1398.61 295.66 1399.2L296.205 1400.45C296.47 1401.04 296.198 1401.74 295.605 1401.99ZM299.31 1404.59C299.754 1405.06 299.73 1405.8 299.261 1406.24C299.034 1406.46 298.744 1406.56 298.458 1406.56C298.148 1406.56 297.835 1406.44 297.604 1406.19L296.549 1405.08C296.105 1404.6 296.129 1403.86 296.598 1403.42C297.07 1402.98 297.811 1403 298.255 1403.47L299.31 1404.59ZM304.551 1409.8C304.33 1410.16 303.944 1410.36 303.552 1410.36C303.341 1410.36 303.131 1410.3 302.942 1410.18L301.45 1409.27C300.898 1408.93 300.726 1408.21 301.064 1407.66C301.401 1407.1 302.125 1406.94 302.676 1407.27L304.168 1408.18C304.716 1408.52 304.889 1409.24 304.551 1409.8ZM311.177 1412.43C311.009 1412.91 310.557 1413.21 310.075 1413.21C309.944 1413.21 309.813 1413.19 309.685 1413.14L307.859 1412.49C307.249 1412.28 306.929 1411.62 307.146 1411C307.363 1410.39 308.031 1410.07 308.641 1410.29L310.468 1410.93C311.074 1411.15 311.394 1411.82 311.177 1412.43ZM318.738 1413.95C318.645 1414.52 318.148 1414.93 317.583 1414.93C317.521 1414.93 317.456 1414.93 317.394 1414.92L315.354 1414.58C314.716 1414.47 314.282 1413.87 314.389 1413.24C314.496 1412.59 315.095 1412.17 315.736 1412.27L317.776 1412.6C318.41 1412.71 318.841 1413.32 318.738 1413.95ZM326.729 1414.21C326.743 1414.86 326.229 1415.39 325.581 1415.4C325.213 1415.41 324.858 1415.41 324.503 1415.41C324.148 1415.41 323.789 1415.41 323.424 1415.4C322.776 1415.39 322.263 1414.86 322.277 1414.21C322.29 1413.56 322.828 1413.05 323.472 1413.06C324.175 1413.08 324.83 1413.08 325.533 1413.06C326.181 1413.05 326.715 1413.56 326.729 1414.21ZM334.62 1413.24C334.727 1413.87 334.293 1414.48 333.655 1414.58L331.615 1414.92C331.55 1414.93 331.488 1414.93 331.426 1414.93C330.86 1414.93 330.364 1414.52 330.271 1413.95C330.168 1413.32 330.599 1412.71 331.236 1412.61L333.276 1412.27C333.914 1412.17 334.517 1412.59 334.62 1413.24ZM341.863 1411C342.08 1411.62 341.76 1412.28 341.15 1412.49L339.324 1413.14C339.193 1413.19 339.062 1413.21 338.934 1413.21C338.452 1413.21 338 1412.91 337.832 1412.43C337.615 1411.82 337.935 1411.15 338.545 1410.93L340.371 1410.29C340.978 1410.07 341.646 1410.39 341.863 1411ZM347.945 1407.66C348.283 1408.21 348.111 1408.93 347.559 1409.27L346.067 1410.18C345.878 1410.3 345.664 1410.36 345.457 1410.36C345.065 1410.36 344.679 1410.16 344.458 1409.8C344.12 1409.24 344.293 1408.52 344.844 1408.18L346.336 1407.27C346.884 1406.94 347.608 1407.1 347.945 1407.66ZM352.408 1403.42C352.88 1403.86 352.901 1404.6 352.456 1405.08L351.402 1406.19C351.171 1406.44 350.861 1406.56 350.547 1406.56C350.258 1406.56 349.972 1406.46 349.744 1406.24C349.272 1405.8 349.251 1405.06 349.696 1404.59L350.75 1403.47C351.195 1403 351.936 1402.98 352.408 1403.42ZM355.489 1400.14L354.941 1401.39C354.748 1401.84 354.317 1402.09 353.866 1402.09C353.707 1402.09 353.548 1402.06 353.397 1401.99C352.804 1401.74 352.535 1401.05 352.794 1400.45L353.342 1399.2C353.6 1398.61 354.293 1398.34 354.886 1398.6C355.478 1398.86 355.747 1399.55 355.489 1400.14ZM356.357 1394.79V1396.08C356.357 1396.73 355.833 1397.26 355.185 1397.26C354.538 1397.26 354.014 1396.73 354.014 1396.08V1394.79C354.014 1394.14 354.538 1393.62 355.185 1393.62C355.833 1393.62 356.357 1394.14 356.357 1394.79ZM352.794 1390.41C352.535 1389.82 352.804 1389.13 353.397 1388.87C353.99 1388.61 354.682 1388.88 354.941 1389.47L355.489 1390.72C355.747 1391.31 355.478 1392 354.886 1392.26C354.734 1392.33 354.572 1392.36 354.417 1392.36C353.965 1392.36 353.535 1392.1 353.342 1391.66L352.794 1390.41ZM352.456 1385.79C352.901 1386.26 352.877 1387 352.408 1387.45C352.18 1387.66 351.894 1387.76 351.605 1387.76C351.295 1387.76 350.981 1387.65 350.75 1387.4L349.696 1386.28C349.251 1385.81 349.276 1385.06 349.744 1384.62C350.216 1384.18 350.957 1384.2 351.402 1384.67L352.456 1385.79Z"/>
</mask>



<g opacity="0.59" filter="url(#filter4_f_181_4180)">
<path d="M506 1797C506 1927.89 399.891 2034 269 2034C138.109 2034 32 1927.89 32 1797C32 1666.11 138.109 1560 269 1560C399.891 1560 506 1666.11 506 1797Z" fill="url(#paint2_linear_181_4180)"/>
</g>
<g opacity="0.16" filter="url(#filter5_f_181_4180)">
<path d="M298 1769.5L350.598 1767.01C366.017 1766.13 369.701 1753.58 370.558 1737.86L373 1693L375.449 1737.86C376.3 1753.58 379.99 1766.13 395.402 1767.01L448 1769.5L395.402 1771.99C379.991 1772.87 376.3 1776.62 375.449 1792.35L373 1846L370.558 1792.35C369.7 1776.62 366.017 1772.87 350.598 1771.99L298 1769.5Z" fill="white"/>
</g>













<defs>
<filter id="filter0_f_181_4180" x="-197.8" y="829.199" width="1031.6" height="1031.6" filterUnits="userSpaceOnUse" color-interpolation-filters="sRGB">
<feFlood flood-opacity="0" result="BackgroundImageFix"/>
<feBlend mode="normal" in="SourceGraphic" in2="BackgroundImageFix" result="shape"/>
<feGaussianBlur stdDeviation="122.9" result="effect1_foregroundBlur_181_4180"/>
</filter>
<filter id="filter1_f_181_4180" x="280" y="1182" width="166" height="169" filterUnits="userSpaceOnUse" color-interpolation-filters="sRGB">
<feFlood flood-opacity="0" result="BackgroundImageFix"/>
<feBlend mode="normal" in="SourceGraphic" in2="BackgroundImageFix" result="shape"/>
<feGaussianBlur stdDeviation="4" result="effect1_foregroundBlur_181_4180"/>
</filter>
<filter id="filter2_f_181_4180" x="-380.924" y="0.300003" width="1090.94" height="1090.94" filterUnits="userSpaceOnUse" color-interpolation-filters="sRGB">
<feFlood flood-opacity="0" result="BackgroundImageFix"/>
<feBlend mode="normal" in="SourceGraphic" in2="BackgroundImageFix" result="shape"/>
<feGaussianBlur stdDeviation="80.85" result="effect1_foregroundBlur_181_4180"/>
</filter>
<filter id="filter3_f_181_4180" x="54.4" y="518.399" width="73.2" height="74.2" filterUnits="userSpaceOnUse" color-interpolation-filters="sRGB">
<feFlood flood-opacity="0" result="BackgroundImageFix"/>
<feBlend mode="normal" in="SourceGraphic" in2="BackgroundImageFix" result="shape"/>
<feGaussianBlur stdDeviation="2.8" result="effect1_foregroundBlur_181_4180"/>
</filter>
<filter id="filter4_f_181_4180" x="-213.8" y="1314.2" width="965.6" height="965.6" filterUnits="userSpaceOnUse" color-interpolation-filters="sRGB">
<feFlood flood-opacity="0" result="BackgroundImageFix"/>
<feBlend mode="normal" in="SourceGraphic" in2="BackgroundImageFix" result="shape"/>
<feGaussianBlur stdDeviation="122.9" result="effect1_foregroundBlur_181_4180"/>
</filter>
<filter id="filter5_f_181_4180" x="290" y="1685" width="166" height="169" filterUnits="userSpaceOnUse" color-interpolation-filters="sRGB">
<feFlood flood-opacity="0" result="BackgroundImageFix"/>
<feBlend mode="normal" in="SourceGraphic" in2="BackgroundImageFix" result="shape"/>
<feGaussianBlur stdDeviation="4" result="effect1_foregroundBlur_181_4180"/>
</filter>
<linearGradient id="paint0_linear_181_4180" x1="334.452" y1="1230.81" x2="104.129" y2="1409.35" gradientUnits="userSpaceOnUse">
<stop stop-color="#3860FF"/>
<stop offset="1" stop-color="#C488FF"/>
</linearGradient>
<linearGradient id="paint1_linear_181_4180" x1="57.3468" y1="476.853" x2="340.777" y2="690.245" gradientUnits="userSpaceOnUse">
<stop stop-color="#FD873F"/>
<stop offset="1" stop-color="#DD70F9" stop-opacity="0.54"/>
</linearGradient>
<linearGradient id="paint2_linear_181_4180" x1="283.441" y1="1696.76" x2="81.2688" y2="1853.49" gradientUnits="userSpaceOnUse">
<stop stop-color="#FFA9AB"/>
<stop offset="1" stop-color="#EB88FF"/>
</linearGradient>
</defs>
</svg>