<svg width="28" height="30" viewBox="0 0 28 30" fill="none" xmlns="http://www.w3.org/2000/svg">
<g id="Frame 56186">
<circle id="Ellipse 87" cx="14" cy="15" r="13.7" stroke="#070D13" stroke-width="0.6"/>
<g id="Group 1116605721">
<path id="Vector" d="M7.9546 26.4593C7.83815 26.5976 7.90007 26.8258 8.01566 26.6872C9.74992 24.5546 9.97665 24.4785 9.91886 24.261C9.85997 24.0469 9.72414 24.4056 7.9546 26.4593Z" fill="#070D13" stroke="#070D13" stroke-width="0.3"/>
<path id="Vector_2" d="M12.4204 25.2098L11.7729 28.8688C11.7357 29.0822 11.8888 29.1946 11.9259 28.9867L12.5735 25.3278C12.6133 25.1143 12.4576 24.9964 12.4204 25.2098Z" fill="#070D13" stroke="#070D13" stroke-width="0.3"/>
<path id="Vector_3" d="M15.2249 24.3074L15.2095 26.1233C15.2095 26.2039 15.3145 26.2147 15.2928 26.2066C15.4477 26.2066 15.3435 26.0381 15.3888 24.3101C15.3915 24.1996 15.2276 24.1951 15.2249 24.3074Z" fill="#070D13" stroke="#070D13" stroke-width="0.3"/>
<g id="Vector_4">
<path d="M21.4702 18.55L20.6804 18.4096C21.0037 15.9272 20.0609 13.5634 17.8411 11.9667C17.7207 11.8507 17.3575 11.4332 17.0469 11.2294C17.2914 8.74883 15.7345 7.4166 14.1116 7.38205C14.0808 6.19833 14.184 1 14.0283 1C13.8734 1 13.9776 6.20559 13.9449 7.38205C11.8628 7.45179 10.6728 9.51673 11.0621 11.2709C11.0295 11.3171 10.9923 11.3696 10.9443 11.4376C10.6753 11.6015 10.4498 11.7835 10.2859 11.9665C7.11417 14.1383 6.47124 18.6132 8.7834 21.6273C8.38128 21.9181 8.16482 21.9552 8.24091 22.0757C8.3197 22.1961 8.44469 22.0104 8.88574 21.756C11.1998 24.617 15.5895 25.0717 18.4641 22.5584C18.753 22.8319 18.8272 23.0311 18.9278 22.9369C19.031 22.8409 18.8318 22.7486 18.5845 22.4488C19.7266 21.4009 20.4285 20.0452 20.6558 18.5706C21.3731 18.6974 21.432 18.7109 21.4546 18.7109C21.5551 18.7137 21.568 18.5672 21.4702 18.55ZM16.892 11.1326C16.8766 11.196 16.9074 11.5238 16.4672 11.9549C15.0036 13.3922 11.2505 12.8868 11.1997 11.003C12.1181 12.5934 15.9789 12.5798 16.8973 10.9876C16.8964 11.1615 16.8874 11.0936 16.892 11.1326ZM13.9476 7.5523C13.9739 8.01782 13.886 8.22159 14.031 8.22159C14.1731 8.22159 14.088 8.01782 14.1143 7.54778C15.5317 7.57857 16.8685 8.70524 16.9028 10.4089C16.901 11.8525 13.7528 12.5961 11.9796 11.5265C11.4788 11.2267 11.2034 10.8354 11.2034 10.4261C11.2641 8.66541 12.5474 7.60215 13.9476 7.5523ZM18.4734 22.332C18.0604 21.9272 17.9789 21.7107 17.8739 21.8095C17.7643 21.91 17.9807 22.006 18.353 22.4434C15.5536 24.8888 11.2814 24.4423 9.02619 21.6691C9.63843 21.238 9.85943 21.2072 9.77881 21.0849C9.69821 20.9599 9.57775 21.1529 8.92385 21.5396C6.66419 18.6087 7.2728 14.2343 10.3956 12.0925C10.7452 11.7076 10.9997 11.6532 11.1219 11.4757C11.842 13.499 16.4175 13.3985 17.0124 11.406C17.3339 11.6378 17.6971 12.0753 17.736 12.0925C19.9323 13.672 20.829 15.9841 20.5183 18.3815C20.0899 18.3308 19.8952 18.2112 19.8689 18.3507C19.8445 18.4911 20.0591 18.4422 20.4947 18.5454C20.2756 19.9764 19.5928 21.3014 18.4734 22.332Z" fill="#070D13"/>
<path d="M16.8938 11.1217V11.1262M21.4702 18.55L20.6804 18.4096C21.0037 15.9272 20.0609 13.5634 17.8411 11.9667C17.7207 11.8507 17.3575 11.4332 17.0469 11.2294C17.2914 8.74883 15.7345 7.4166 14.1116 7.38205C14.0808 6.19833 14.184 1 14.0283 1C13.8734 1 13.9776 6.20559 13.9449 7.38205C11.8628 7.45179 10.6728 9.51673 11.0621 11.2709C11.0295 11.3171 10.9923 11.3696 10.9443 11.4376C10.6753 11.6015 10.4498 11.7835 10.2859 11.9665C7.11417 14.1383 6.47124 18.6132 8.7834 21.6273C8.38128 21.9181 8.16482 21.9552 8.24091 22.0757C8.3197 22.1961 8.44469 22.0104 8.88574 21.756C11.1998 24.617 15.5895 25.0717 18.4641 22.5584C18.753 22.8319 18.8272 23.0311 18.9278 22.9369C19.031 22.8409 18.8318 22.7486 18.5845 22.4488C19.7266 21.4009 20.4285 20.0452 20.6558 18.5706C21.3731 18.6974 21.432 18.7109 21.4546 18.7109C21.5551 18.7137 21.568 18.5672 21.4702 18.55ZM16.892 11.1326C16.8766 11.196 16.9074 11.5238 16.4672 11.9549C15.0036 13.3922 11.2505 12.8868 11.1997 11.003C12.1181 12.5934 15.9789 12.5798 16.8973 10.9876C16.8964 11.1615 16.8874 11.0936 16.892 11.1326ZM13.9476 7.5523C13.9739 8.01782 13.886 8.22159 14.031 8.22159C14.1731 8.22159 14.088 8.01782 14.1143 7.54778C15.5317 7.57857 16.8685 8.70524 16.9028 10.4089C16.901 11.8525 13.7528 12.5961 11.9796 11.5265C11.4788 11.2267 11.2034 10.8354 11.2034 10.4261C11.2641 8.66541 12.5474 7.60215 13.9476 7.5523ZM18.4734 22.332C18.0604 21.9272 17.9789 21.7107 17.8739 21.8095C17.7643 21.91 17.9807 22.006 18.353 22.4434C15.5536 24.8888 11.2814 24.4423 9.02619 21.6691C9.63843 21.238 9.85943 21.2072 9.77881 21.0849C9.69821 20.9599 9.57775 21.1529 8.92385 21.5396C6.66419 18.6087 7.2728 14.2343 10.3956 12.0925C10.7452 11.7076 10.9997 11.6532 11.1219 11.4757C11.842 13.499 16.4175 13.3985 17.0124 11.406C17.3339 11.6378 17.6971 12.0753 17.736 12.0925C19.9323 13.672 20.829 15.9841 20.5183 18.3815C20.0899 18.3308 19.8952 18.2112 19.8689 18.3507C19.8445 18.4911 20.0591 18.4422 20.4947 18.5454C20.2756 19.9764 19.5928 21.3014 18.4734 22.332Z" stroke="#070D13" stroke-width="0.3"/>
</g>
<path id="Vector_5" d="M23.7349 13.9176C23.6901 13.8786 23.5987 13.8668 23.5256 13.8913C21.0222 14.7906 20.6418 14.7924 20.793 14.9238C20.8378 14.9627 20.9292 14.9745 21.0023 14.95C23.5106 14.0507 23.8878 14.0489 23.7349 13.9176Z" fill="#070D13" stroke="#070D13" stroke-width="0.3"/>
</g>
</g>
</svg>
