<svg width="222" height="170" viewBox="0 0 222 170" fill="none" xmlns="http://www.w3.org/2000/svg">
<path d="M83.9764 169.132C83.9764 169.132 82.386 118.077 83.7776 94.0222C83.9764 92.4317 88.1513 90.2449 89.5429 88.6545C92.1273 86.07 92.3261 80.9012 93.3202 78.3167C94.3142 75.9311 98.0914 71.1598 97.6938 69.5694C97.2962 67.979 95.9046 67.7802 95.1094 68.1778C93.3202 68.1778 91.1333 69.5694 90.3381 70.961C89.1453 72.949 87.9525 77.9191 86.9585 77.9191C85.9644 77.9191 85.5668 75.5335 85.5668 74.5395C85.5668 69.1718 87.7537 58.4364 86.9585 52.6711C86.7597 50.6831 85.1692 50.2855 84.374 50.2855C83.5788 50.0867 82.386 51.0807 82.1872 52.2735C81.7896 56.2496 81.392 63.8041 80.1992 67.7802C80.0004 67.979 79.2051 67.7802 79.2051 67.5814C79.0063 63.0089 79.2051 54.2615 78.6087 49.8879C78.2111 47.8999 77.2171 46.707 76.2231 46.707C74.4339 46.707 73.6386 48.0987 73.6386 48.8939C73.241 52.6711 74.2351 64.5993 73.6386 67.979C73.6386 68.3766 72.6446 68.3766 72.6446 68.1778C71.6506 63.0089 70.4578 55.0568 69.4638 50.8819C69.265 49.8879 68.0722 49.2915 67.0781 49.6891C65.4877 50.2855 65.4877 52.0747 65.4877 53.0687C65.6865 57.6412 68.0722 65.7921 67.6746 70.7622C67.6746 71.7562 65.0901 68.5754 64.6925 67.5814C63.8973 65.1957 62.3069 61.2197 61.3129 59.828C60.7164 58.834 59.7224 58.4364 58.7284 59.0328C57.5356 59.828 58.7284 63.6053 59.126 64.9969C59.9212 67.5813 62.3069 72.1538 62.9033 74.7383C63.3009 76.9251 62.7045 81.4976 63.3009 83.4856C64.8913 90.4437 67.8734 90.2449 67.8734 92.4317C67.277 116.089 62.9033 169.132 62.9033 169.132" stroke="black" stroke-width="0.6"/>
<path d="M1 169.134C1 169.134 8.35571 146.905 10.3437 125.434C10.5425 124.043 7.16289 121.458 6.16888 119.868C4.37965 117.283 4.97606 112.711 4.37965 110.325C3.78324 108.139 1.1988 103.367 1.79521 101.976C2.39162 100.584 3.78324 100.584 4.57845 100.982C5.97008 101.379 7.7593 102.97 8.15691 104.162C8.95212 105.952 9.15092 110.524 10.1449 110.723C10.9402 110.922 11.5366 108.735 11.7354 107.94C12.7294 103.168 12.3318 93.4271 13.7234 88.4571C14.121 86.8666 15.5126 86.6678 16.3078 86.6678C16.9042 86.8666 17.8983 87.6618 17.8983 88.8547C17.6995 92.4331 17.103 99.1924 17.5007 102.97C17.5007 103.168 18.2959 103.168 18.2959 102.97C19.0911 98.9936 20.0851 91.2403 21.2779 87.463C21.6755 85.6738 22.8683 84.6798 23.6635 84.8786C25.0552 85.0774 25.4528 86.469 25.4528 87.2642C25.4528 90.6439 22.8683 100.982 22.8683 104.162C22.8683 104.361 23.6635 104.56 23.6635 104.361C25.0552 99.9876 27.242 93.0295 28.6336 89.4511C29.0312 88.6559 30.2241 88.2583 31.0193 88.6559C32.4109 89.2523 32.2121 91.0415 32.0133 91.8367C31.2181 95.8128 28.0372 102.771 27.6396 107.145C27.6396 107.94 30.224 105.554 30.6217 104.759C31.8145 102.771 33.6037 99.3912 34.5977 98.3972C35.1941 97.8008 36.1881 97.602 36.9834 98.1984C37.7786 98.9936 36.3869 102.174 35.7905 103.367C34.7965 105.554 32.0133 109.331 31.2181 111.518C30.4229 113.109 30.4229 117.284 29.6276 119.073C27.242 124.838 24.6576 124.242 24.4588 126.23C21.6755 147.104 19.0911 169.134 19.0911 169.134" stroke="black" stroke-width="0.6"/>
<path d="M150.054 169.132C150.054 169.132 148.066 108.137 149.656 80.3048C149.855 78.7144 153.036 78.1179 155.422 75.3347C158.205 71.955 159.398 65.3945 160.591 62.4125C161.783 59.8281 166.555 53.4664 165.958 51.6771C165.561 49.6891 163.573 49.6891 162.976 49.8879C160.988 50.0867 159 52.0747 158.006 53.4664C156.416 55.852 154.825 61.4185 154.03 61.6173C153.036 61.8161 152.44 58.6352 152.44 57.6412C152.241 51.2795 154.825 38.9537 154.03 32.1944C153.633 30.0076 151.843 29.4112 150.849 29.4112C150.054 29.4112 148.464 30.4052 148.265 31.7968C147.867 36.3693 147.271 45.3154 145.879 49.8879C145.68 50.0867 144.686 49.8879 144.686 49.6891C144.488 44.3214 144.488 34.1825 143.891 29.0136C143.692 26.6279 142.698 25.2363 141.108 25.2363C139.12 25.2363 138.722 27.0256 138.524 28.0196C137.927 32.1944 138.921 46.1107 138.126 50.0867C138.126 50.4843 136.933 50.4843 136.933 50.2855C135.74 44.3214 134.349 35.1765 133.156 30.2064C132.758 28.8148 131.367 28.4172 130.174 28.8148C127.987 29.4112 128.385 31.2004 128.385 32.3932C128.583 37.7609 131.565 47.3035 131.168 53.0688C130.969 53.6652 130.373 53.6652 129.577 52.87C128.583 51.8759 127.589 49.8879 127.192 49.2915C125.8 46.7071 124.21 42.1346 123.017 40.5442C122.222 39.5501 120.631 38.9537 119.836 39.9478C118.246 41.5382 120.234 45.3154 120.83 46.7071C121.824 49.6891 124.21 54.858 124.806 58.0388C125.204 60.4245 124.607 65.7922 125.204 68.1778C127.192 76.1299 130.77 75.9311 130.77 78.5156C130.174 105.95 124.806 169.132 124.806 169.132" stroke="black" stroke-width="0.6"/>
<path d="M202.413 169.132C202.413 169.132 194.461 129.011 190.286 107.938C190.088 106.745 187.702 106.546 185.714 104.757C183.527 102.372 181.937 97.6004 180.744 95.4135C179.551 93.6243 175.575 89.2506 175.774 87.859C175.973 86.4674 177.364 86.2686 178.159 86.0698C179.75 86.0698 181.34 87.2626 182.135 88.2566C183.527 89.847 185.316 93.8231 185.913 94.0219C186.509 94.0219 186.509 91.6363 186.509 90.8411C185.913 86.0698 182.732 76.9248 182.533 71.756C182.533 70.1655 183.925 69.5691 184.521 69.3703C185.316 69.3703 186.509 69.9667 186.708 70.9607C187.702 74.3404 189.094 81.0997 190.485 84.4794C190.684 84.6782 191.28 84.4794 191.28 84.2806C190.883 80.1057 189.491 72.5512 189.491 68.5751C189.491 66.7859 190.088 65.5931 191.082 65.3943C192.672 65.1955 193.07 66.5871 193.268 67.1835C194.262 70.3643 195.058 80.9009 196.052 83.8829C196.052 84.0817 196.847 84.0817 196.847 83.8829C197.046 79.3105 196.847 72.1536 197.245 68.3763C197.443 67.1835 198.437 66.7859 199.233 66.9847C200.823 67.3823 200.823 68.7739 200.823 69.5691C201.221 73.5452 200.028 81.2985 201.022 85.4734C201.022 85.871 201.618 85.6722 202.016 85.0758C202.612 84.2806 203.01 82.6901 203.209 82.0937C204.004 80.1057 204.401 76.3284 205.197 75.1356C205.594 74.1416 206.588 73.744 207.383 74.3404C208.576 75.5332 207.582 78.5153 207.383 79.7081C206.986 82.0937 205.992 86.2686 205.793 88.6542C205.594 90.6423 206.787 94.6183 206.588 96.4075C205.992 102.57 203.407 102.769 203.805 104.757C207.185 125.433 221.499 169.132 221.499 169.132" stroke="black" stroke-width="0.6"/>
<path d="M27.58 37.5171L27.599 37.5488L27.6251 37.5749C27.6866 37.6365 27.718 37.6959 27.7677 37.7952L27.7712 37.8022C27.8155 37.8908 27.8746 38.0091 27.9826 38.1291C29.5867 41.6688 28.5939 45.323 27.0882 48.9268C26.7114 49.8288 26.3049 50.7223 25.9019 51.6075L25.8942 51.6244C25.4946 52.5023 25.0985 53.3724 24.7429 54.2265C24.107 55.7537 23.591 57.2511 23.413 58.6848C22.2017 57.8718 20.7259 57.2829 19.152 56.7685C18.2798 56.4834 17.3705 56.2191 16.4537 55.9526L16.4144 55.9412C15.4827 55.6704 14.543 55.3968 13.6166 55.0942C9.91744 53.8858 6.51479 52.239 4.87246 48.6195C4.85466 48.4771 4.79148 48.352 4.75427 48.2783C4.75141 48.2726 4.7487 48.2672 4.74619 48.2622C4.71991 48.2097 4.70254 48.1743 4.69042 48.1419C4.68484 48.127 4.68174 48.1162 4.68007 48.1086C4.67844 48.1011 4.67846 48.098 4.67846 48.0982V48.0468L4.66135 47.9983C3.52073 44.7666 5.04063 41.3518 8.07716 40.0233L8.07718 40.0233L8.08263 40.0208C10.5477 38.8831 13.2042 39.4473 15.1119 41.1642L15.6126 41.6149V40.9412C15.6126 38.4608 16.9473 35.9919 19.4117 34.8532C22.4498 33.5256 25.8667 34.6617 27.58 37.5171Z" stroke="black" stroke-width="0.6"/>
<path d="M90.652 7.24545L90.6747 7.30962L90.7228 7.35773C90.7557 7.39063 90.7916 7.46424 90.8129 7.59253C90.8332 7.71393 90.8337 7.83968 90.8337 7.94081V7.97604L90.8419 8.0103C91.8044 12.0529 90.0334 15.6356 87.7295 19.0295C87.155 19.8758 86.5506 20.7059 85.9506 21.5266C85.9115 21.5801 85.8723 21.6336 85.8333 21.687C85.274 22.4517 84.7201 23.2089 84.2049 23.9577C83.2218 25.3865 82.3644 26.8049 81.8639 28.2244C80.8202 27.1185 79.4506 26.1837 77.9601 25.3044C77.1255 24.8121 76.2464 24.3336 75.3596 23.8514L75.3198 23.8298C74.4444 23.3538 73.5614 22.8736 72.697 22.3684C69.1779 20.3114 66.051 17.8831 65.185 13.842L65.1771 13.8048L65.16 13.7707C65.0697 13.5901 65.0304 13.4664 65.0119 13.3739C64.9935 13.2816 64.9929 13.2086 64.9929 13.1097V13.0849L64.9888 13.0604C64.4201 9.64823 66.6934 6.4136 70.1226 5.64992C72.9879 5.07808 75.6523 6.22417 77.1737 8.31607L77.6021 8.9051L77.7128 8.18524C78.0912 5.72557 80.1836 3.43716 82.8468 2.86647L82.8468 2.86648L82.8491 2.86599C86.2738 2.10494 89.5077 4.00336 90.652 7.24545Z" stroke="black" stroke-width="0.6"/>
<path d="M221.421 51.559L221.396 51.6156V51.6772C221.396 51.6806 221.396 51.6839 221.396 51.6869C221.392 51.6893 221.388 51.6918 221.383 51.6945C221.334 51.7217 221.267 51.7555 221.165 51.8065L221.086 51.8455L221.042 51.9205C220.215 53.2974 218.787 53.8223 217.209 54.1674C216.827 54.2509 216.442 54.3229 216.057 54.3948L216.025 54.4009C215.631 54.4745 215.238 54.5484 214.859 54.6337C214.292 54.7613 213.741 54.9176 213.251 55.1474C213.218 54.6019 213.084 54.0352 212.913 53.4672C212.8 53.0879 212.667 52.7005 212.534 52.3127C212.525 52.287 212.516 52.2612 212.507 52.2355C212.382 51.8716 212.257 51.5071 212.142 51.1404C211.651 49.5707 211.394 48.0566 212.194 46.6938L212.366 46.5216L212.376 46.512L212.384 46.5016C213.307 45.3944 214.731 45.0751 215.765 45.7639L215.771 45.7679L215.777 45.7715C216.682 46.315 217.198 47.3909 217.029 48.2387L216.896 48.9037L217.477 48.5548C218.415 47.992 219.484 47.8367 220.349 48.356L220.349 48.3561L220.355 48.3592C220.994 48.7244 221.387 49.2148 221.56 49.7557C221.733 50.2981 221.695 50.9192 221.421 51.559Z" stroke="black" stroke-width="0.6"/>
<path d="M186.151 17.7817L186.134 17.8298V17.8808C186.134 17.8807 186.134 17.8814 186.134 17.8829C186.134 17.8846 186.133 17.8873 186.132 17.8912C186.131 17.8989 186.128 17.9097 186.122 17.9245C186.11 17.9569 186.093 17.9923 186.066 18.0448C186.064 18.0499 186.061 18.0552 186.058 18.0609C186.021 18.1335 185.96 18.2562 185.941 18.3961C183.805 22.713 179.558 24.6604 174.989 26.0681C173.845 26.4205 172.686 26.7377 171.539 27.0504L171.423 27.0821C170.317 27.3835 169.222 27.6819 168.171 28.0031C166.193 28.6076 164.346 29.2996 162.837 30.2663C162.658 28.4808 162.053 26.5973 161.298 24.6645C160.9 23.6464 160.458 22.6082 160.012 21.5593L159.953 21.4214C159.486 20.3241 159.016 19.2148 158.583 18.0956C156.848 13.6086 155.75 9.04487 157.876 4.69393C157.96 4.52773 158.013 4.38655 158.054 4.28094C158.065 4.25113 158.075 4.22415 158.085 4.20023C158.128 4.09187 158.16 4.03563 158.217 3.9779L158.24 3.95542L158.257 3.92874C160.362 0.6752 164.769 -0.667333 168.407 1.05179C171.286 2.59026 173.006 5.6605 172.815 8.71713L172.771 9.41932L173.308 8.96486C175.811 6.84666 179.258 6.28257 182.118 7.80773L182.118 7.80782L182.125 7.81135C185.96 9.72908 187.495 13.9422 186.151 17.7817Z" stroke="black" stroke-width="0.6"/>
</svg>
