<svg xmlns="http://www.w3.org/2000/svg" width="1280" height="832" viewBox="0 0 1280 832" fill="none">
<path xmlns="http://www.w3.org/2000/svg" d="M1020.98 632.132C1020.98 632.132 1019.39 581.077 1020.78 557.022C1020.98 555.432 1025.15 553.245 1026.54 551.654C1029.13 549.07 1029.33 543.901 1030.32 541.317C1031.31 538.931 1035.09 534.16 1034.69 532.569C1034.3 530.979 1032.9 530.78 1032.11 531.178C1030.32 531.178 1028.13 532.569 1027.34 533.961C1026.15 535.949 1024.95 540.919 1023.96 540.919C1022.96 540.919 1022.57 538.533 1022.57 537.539C1022.57 532.172 1024.75 521.436 1023.96 515.671C1023.76 513.683 1022.17 513.285 1021.37 513.285C1020.58 513.087 1019.39 514.081 1019.19 515.274C1018.79 519.25 1018.39 526.804 1017.2 530.78C1017 530.979 1016.21 530.78 1016.21 530.581C1016.01 526.009 1016.21 517.262 1015.61 512.888C1015.21 510.9 1014.22 509.707 1013.22 509.707C1011.43 509.707 1010.64 511.099 1010.64 511.894C1010.24 515.671 1011.24 527.599 1010.64 530.979C1010.64 531.377 1009.64 531.377 1009.64 531.178C1008.65 526.009 1007.46 518.057 1006.46 513.882C1006.26 512.888 1005.07 512.291 1004.08 512.689C1002.49 513.285 1002.49 515.075 1002.49 516.069C1002.69 520.641 1005.07 528.792 1004.67 533.762C1004.67 534.756 1002.09 531.575 1001.69 530.581C1000.9 528.196 999.307 524.22 998.313 522.828C997.716 521.834 996.722 521.436 995.728 522.033C994.536 522.828 995.728 526.605 996.126 527.997C996.921 530.581 999.307 535.154 999.903 537.738C1000.3 539.925 999.704 544.498 1000.3 546.486C1001.89 553.444 1004.87 553.245 1004.87 555.432C1004.28 579.089 999.903 632.132 999.903 632.132" stroke="black" stroke-width="0.6"/>
<path xmlns="http://www.w3.org/2000/svg" d="M938 632.134C938 632.134 945.356 609.905 947.344 588.434C947.543 587.043 944.163 584.458 943.169 582.868C941.38 580.283 941.976 575.711 941.38 573.325C940.783 571.139 938.199 566.367 938.795 564.976C939.392 563.584 940.783 563.584 941.578 563.982C942.97 564.379 944.759 565.97 945.157 567.162C945.952 568.952 946.151 573.524 947.145 573.723C947.94 573.922 948.537 571.735 948.735 570.94C949.729 566.168 949.332 556.427 950.723 551.457C951.121 549.867 952.513 549.668 953.308 549.668C953.904 549.867 954.898 550.662 954.898 551.855C954.699 555.433 954.103 562.192 954.501 565.97C954.501 566.168 955.296 566.168 955.296 565.97C956.091 561.994 957.085 554.24 958.278 550.463C958.676 548.674 959.868 547.68 960.664 547.879C962.055 548.077 962.453 549.469 962.453 550.264C962.453 553.644 959.868 563.982 959.868 567.162C959.868 567.361 960.664 567.56 960.664 567.361C962.055 562.988 964.242 556.03 965.634 552.451C966.031 551.656 967.224 551.258 968.019 551.656C969.411 552.252 969.212 554.041 969.013 554.837C968.218 558.813 965.037 565.771 964.64 570.145C964.64 570.94 967.224 568.554 967.622 567.759C968.814 565.771 970.604 562.391 971.598 561.397C972.194 560.801 973.188 560.602 973.983 561.198C974.779 561.994 973.387 565.174 972.791 566.367C971.797 568.554 969.013 572.331 968.218 574.518C967.423 576.109 967.423 580.284 966.628 582.073C964.242 587.838 961.658 587.242 961.459 589.23C958.676 610.104 956.091 632.134 956.091 632.134" stroke="black" stroke-width="0.6"/>
<path xmlns="http://www.w3.org/2000/svg" d="M1087.05 632.132C1087.05 632.132 1085.07 571.137 1086.66 543.305C1086.86 541.714 1090.04 541.118 1092.42 538.335C1095.21 534.955 1096.4 528.395 1097.59 525.413C1098.78 522.828 1103.55 516.466 1102.96 514.677C1102.56 512.689 1100.57 512.689 1099.98 512.888C1097.99 513.087 1096 515.075 1095.01 516.466C1093.42 518.852 1091.83 524.418 1091.03 524.617C1090.04 524.816 1089.44 521.635 1089.44 520.641C1089.24 514.28 1091.83 501.954 1091.03 495.194C1090.63 493.008 1088.84 492.411 1087.85 492.411C1087.05 492.411 1085.46 493.405 1085.26 494.797C1084.87 499.369 1084.27 508.315 1082.88 512.888C1082.68 513.087 1081.69 512.888 1081.69 512.689C1081.49 507.321 1081.49 497.182 1080.89 492.014C1080.69 489.628 1079.7 488.236 1078.11 488.236C1076.12 488.236 1075.72 490.026 1075.52 491.02C1074.93 495.194 1075.92 509.111 1075.13 513.087C1075.13 513.484 1073.93 513.484 1073.93 513.286C1072.74 507.321 1071.35 498.176 1070.16 493.206C1069.76 491.815 1068.37 491.417 1067.17 491.815C1064.99 492.411 1065.38 494.2 1065.38 495.393C1065.58 500.761 1068.57 510.303 1068.17 516.069C1067.97 516.665 1067.37 516.665 1066.58 515.87C1065.58 514.876 1064.59 512.888 1064.19 512.292C1062.8 509.707 1061.21 505.135 1060.02 503.544C1059.22 502.55 1057.63 501.954 1056.84 502.948C1055.25 504.538 1057.23 508.315 1057.83 509.707C1058.82 512.689 1061.21 517.858 1061.81 521.039C1062.2 523.424 1061.61 528.792 1062.2 531.178C1064.19 539.13 1067.77 538.931 1067.77 541.516C1067.17 568.95 1061.81 632.132 1061.81 632.132" stroke="black" stroke-width="0.6"/>
<path xmlns="http://www.w3.org/2000/svg" d="M1139.41 632.132C1139.41 632.132 1131.46 592.011 1127.29 570.938C1127.09 569.745 1124.7 569.546 1122.71 567.757C1120.53 565.372 1118.94 560.6 1117.74 558.414C1116.55 556.624 1112.57 552.251 1112.77 550.859C1112.97 549.467 1114.36 549.269 1115.16 549.07C1116.75 549.07 1118.34 550.263 1119.14 551.257C1120.53 552.847 1122.32 556.823 1122.91 557.022C1123.51 557.022 1123.51 554.636 1123.51 553.841C1122.91 549.07 1119.73 539.925 1119.53 534.756C1119.53 533.166 1120.92 532.569 1121.52 532.37C1122.32 532.37 1123.51 532.967 1123.71 533.961C1124.7 537.34 1126.09 544.1 1127.49 547.479C1127.68 547.678 1128.28 547.479 1128.28 547.281C1127.88 543.106 1126.49 535.551 1126.49 531.575C1126.49 529.786 1127.09 528.593 1128.08 528.394C1129.67 528.195 1130.07 529.587 1130.27 530.183C1131.26 533.364 1132.06 543.901 1133.05 546.883C1133.05 547.082 1133.85 547.082 1133.85 546.883C1134.05 542.31 1133.85 535.154 1134.24 531.376C1134.44 530.183 1135.44 529.786 1136.23 529.985C1137.82 530.382 1137.82 531.774 1137.82 532.569C1138.22 536.545 1137.03 544.299 1138.02 548.473C1138.02 548.871 1138.62 548.672 1139.02 548.076C1139.61 547.281 1140.01 545.69 1140.21 545.094C1141 543.106 1141.4 539.328 1142.2 538.136C1142.59 537.142 1143.59 536.744 1144.38 537.34C1145.58 538.533 1144.58 541.515 1144.38 542.708C1143.99 545.094 1142.99 549.269 1142.79 551.654C1142.59 553.642 1143.79 557.618 1143.59 559.408C1142.99 565.57 1140.41 565.769 1140.81 567.757C1144.18 588.433 1158.5 632.132 1158.5 632.132" stroke="black" stroke-width="0.6"/>
<path xmlns="http://www.w3.org/2000/svg" d="M964.58 500.517L964.599 500.549L964.625 500.575C964.687 500.636 964.718 500.696 964.768 500.795L964.771 500.802C964.815 500.891 964.875 501.009 964.983 501.129C966.587 504.669 965.594 508.323 964.088 511.927C963.711 512.829 963.305 513.722 962.902 514.607L962.894 514.624C962.495 515.502 962.098 516.372 961.743 517.227C961.107 518.754 960.591 520.251 960.413 521.685C959.202 520.872 957.726 520.283 956.152 519.768C955.28 519.483 954.37 519.219 953.454 518.953L953.414 518.941C952.483 518.67 951.543 518.397 950.617 518.094C946.917 516.886 943.515 515.239 941.872 511.619C941.855 511.477 941.791 511.352 941.754 511.278C941.751 511.273 941.749 511.267 941.746 511.262C941.72 511.21 941.703 511.174 941.69 511.142C941.685 511.127 941.682 511.116 941.68 511.109C941.678 511.101 941.678 511.098 941.678 511.098V511.047L941.661 510.998C940.521 507.767 942.041 504.352 945.077 503.023L945.077 503.023L945.083 503.021C947.548 501.883 950.204 502.447 952.112 504.164L952.613 504.615V503.941C952.613 501.461 953.947 498.992 956.412 497.853C959.45 496.526 962.867 497.662 964.58 500.517Z" stroke="black" stroke-width="0.6"/>
<path xmlns="http://www.w3.org/2000/svg" d="M1027.65 470.245L1027.67 470.31L1027.72 470.358C1027.76 470.391 1027.79 470.464 1027.81 470.593C1027.83 470.714 1027.83 470.84 1027.83 470.941V470.976L1027.84 471.01C1028.8 475.053 1027.03 478.636 1024.73 482.03C1024.16 482.876 1023.55 483.706 1022.95 484.527C1022.91 484.58 1022.87 484.634 1022.83 484.687C1022.27 485.452 1021.72 486.209 1021.2 486.958C1020.22 488.386 1019.36 489.805 1018.86 491.224C1017.82 490.119 1016.45 489.184 1014.96 488.304C1014.13 487.812 1013.25 487.334 1012.36 486.851L1012.32 486.83C1011.44 486.354 1010.56 485.874 1009.7 485.368C1006.18 483.311 1003.05 480.883 1002.19 476.842L1002.18 476.805L1002.16 476.771C1002.07 476.59 1002.03 476.466 1002.01 476.374C1001.99 476.282 1001.99 476.209 1001.99 476.11V476.085L1001.99 476.06C1001.42 472.648 1003.69 469.414 1007.12 468.65C1009.99 468.078 1012.65 469.224 1014.17 471.316L1014.6 471.905L1014.71 471.185C1015.09 468.726 1017.18 466.437 1019.85 465.866L1019.85 465.866L1019.85 465.866C1023.27 465.105 1026.51 467.003 1027.65 470.245Z" stroke="black" stroke-width="0.6"/>
<path xmlns="http://www.w3.org/2000/svg" d="M1158.42 514.559L1158.4 514.616V514.677C1158.4 514.681 1158.4 514.684 1158.4 514.687C1158.39 514.689 1158.39 514.692 1158.38 514.695C1158.33 514.722 1158.27 514.756 1158.16 514.807L1158.09 514.846L1158.04 514.921C1157.22 516.298 1155.79 516.822 1154.21 517.167C1153.83 517.251 1153.44 517.323 1153.06 517.395L1153.03 517.401C1152.63 517.475 1152.24 517.549 1151.86 517.634C1151.29 517.761 1150.74 517.918 1150.25 518.148C1150.22 517.602 1150.08 517.035 1149.91 516.467C1149.8 516.088 1149.67 515.701 1149.53 515.313C1149.52 515.287 1149.52 515.261 1149.51 515.236C1149.38 514.872 1149.26 514.507 1149.14 514.141C1148.65 512.571 1148.39 511.057 1149.19 509.694L1149.37 509.522L1149.38 509.512L1149.38 509.502C1150.31 508.395 1151.73 508.075 1152.76 508.764L1152.77 508.768L1152.78 508.772C1153.68 509.315 1154.2 510.391 1154.03 511.239L1153.9 511.904L1154.48 511.555C1155.42 510.992 1156.48 510.837 1157.35 511.356L1157.35 511.356L1157.35 511.359C1157.99 511.725 1158.39 512.215 1158.56 512.756C1158.73 513.298 1158.69 513.919 1158.42 514.559Z" stroke="black" stroke-width="0.6"/>
<path xmlns="http://www.w3.org/2000/svg" d="M1123.15 480.782L1123.13 480.83V480.881C1123.13 480.881 1123.13 480.881 1123.13 480.883C1123.13 480.885 1123.13 480.887 1123.13 480.891C1123.13 480.899 1123.13 480.91 1123.12 480.925C1123.11 480.957 1123.09 480.992 1123.07 481.045C1123.06 481.05 1123.06 481.055 1123.06 481.061C1123.02 481.134 1122.96 481.256 1122.94 481.396C1120.8 485.713 1116.56 487.66 1111.99 489.068C1110.85 489.421 1109.69 489.738 1108.54 490.05L1108.42 490.082C1107.32 490.384 1106.22 490.682 1105.17 491.003C1103.19 491.608 1101.35 492.3 1099.84 493.266C1099.66 491.481 1099.05 489.597 1098.3 487.665C1097.9 486.646 1097.46 485.608 1097.01 484.559L1096.95 484.421C1096.49 483.324 1096.02 482.215 1095.58 481.096C1093.85 476.609 1092.75 472.045 1094.88 467.694C1094.96 467.528 1095.01 467.387 1095.05 467.281C1095.07 467.251 1095.08 467.224 1095.08 467.2C1095.13 467.092 1095.16 467.036 1095.22 466.978L1095.24 466.955L1095.26 466.929C1097.36 463.675 1101.77 462.333 1105.41 464.052C1108.29 465.59 1110.01 468.661 1109.81 471.717L1109.77 472.419L1110.31 471.965C1112.81 469.847 1116.26 469.283 1119.12 470.808L1119.12 470.808L1119.12 470.811C1122.96 472.729 1124.49 476.942 1123.15 480.782Z" stroke="black" stroke-width="0.6"/>
</svg>