<svg width="148" height="156" viewBox="0 0 148 156" fill="none" xmlns="http://www.w3.org/2000/svg">
<path d="M51.3533 63.5643C51.3968 63.5643 51.4489 63.5469 51.4924 63.5122C51.5619 63.434 51.5619 63.3123 51.4837 63.2341L50.8581 62.6172C50.7799 62.539 50.6583 62.539 50.5801 62.6172C50.5106 62.6954 50.5106 62.8171 50.5801 62.8953L51.2143 63.5122C51.2491 63.5469 51.3012 63.5643 51.3533 63.5643Z" fill="#070D13"/>
<path d="M54.3679 66.5361C54.4201 66.5361 54.4722 66.5187 54.507 66.4753C54.5765 66.3971 54.5765 66.2755 54.507 66.206L53.8727 65.5804C53.7945 65.5109 53.6729 65.5109 53.6033 65.5891C53.5251 65.6586 53.5251 65.7802 53.6033 65.8584L54.2289 66.4753C54.2724 66.5187 54.3158 66.5361 54.3679 66.5361Z" fill="#070D13"/>
<path d="M53.7162 63.5379C53.7683 63.5379 53.8205 63.5205 53.8552 63.4771L54.4721 62.8428C54.5503 62.7646 54.5503 62.643 54.4721 62.5648C54.3939 62.4953 54.2723 62.4953 54.1941 62.5735L53.5772 63.2077C53.499 63.2859 53.5077 63.4076 53.5772 63.4857C53.6206 63.5205 53.6641 63.5379 53.7162 63.5379Z" fill="#070D13"/>
<path d="M50.7531 66.5797C50.8052 66.5797 50.8487 66.5623 50.8921 66.5189L51.509 65.8846C51.5872 65.8064 51.5785 65.6848 51.509 65.6153C51.4308 65.5371 51.3092 65.5371 51.231 65.6153L50.6141 66.2496C50.5359 66.3278 50.5359 66.4494 50.6141 66.5276C50.6575 66.5623 50.701 66.5797 50.7531 66.5797Z" fill="#070D13"/>
<path d="M34.0027 142.203C34.107 142.203 34.1938 142.117 34.1938 142.012C34.1938 141.908 34.107 141.821 34.0027 141.812H33.1165C33.0122 141.812 32.9253 141.899 32.9253 142.004C32.9253 142.108 33.0035 142.195 33.1165 142.195L33.994 142.203C33.9998 142.203 34.0027 142.203 34.0027 142.203Z" fill="#070D13"/>
<path d="M38.2337 142.229C38.3379 142.229 38.4248 142.142 38.4248 142.038C38.4248 141.933 38.3379 141.838 38.2337 141.838H37.3474C37.2432 141.838 37.1563 141.925 37.1563 142.029C37.1563 142.133 37.2432 142.22 37.3474 142.22L38.2337 142.229Z" fill="#070D13"/>
<path d="M35.6795 140.535C35.7837 140.535 35.8706 140.448 35.8706 140.335V139.449C35.8706 139.345 35.7837 139.258 35.6795 139.258C35.5665 139.258 35.4796 139.345 35.4796 139.449V140.335C35.4796 140.448 35.5665 140.535 35.6795 140.535Z" fill="#070D13"/>
<path d="M35.6702 144.785C35.7744 144.785 35.8613 144.698 35.8613 144.585V143.699C35.8613 143.595 35.7744 143.508 35.6702 143.508C35.5659 143.508 35.479 143.595 35.479 143.699V144.585C35.479 144.698 35.5659 144.785 35.6702 144.785Z" fill="#070D13"/>
<path d="M54.0128 20.1067C54.2648 16.8224 54.0128 12.1567 51.1977 8.25556C43.4128 -2.5269 20.701 -0.945592 16.2872 7.85588C14.0456 12.3218 16.4697 18.7513 20.0841 22.2875C25.4449 27.518 34.4723 27.4659 39.9808 24.3206C45.2287 21.3318 46.8622 15.7711 50.1899 16.2924C52.0492 16.5792 53.283 18.5601 54.0128 20.1067Z" fill="white"/>
<path fill-rule="evenodd" clip-rule="evenodd" d="M31.2749 26.6838C34.4462 26.6838 37.6001 25.9106 40.0763 24.4943C42.5004 23.1042 44.1252 21.2274 45.5588 19.5679C47.1749 17.6999 48.4608 16.2142 50.1637 16.4835C51.5365 16.692 52.7703 17.9432 53.8303 20.1848C53.8737 20.263 53.9606 20.3065 54.0475 20.2978C54.1344 20.2804 54.1952 20.2109 54.2039 20.124C54.5775 15.3106 53.6131 11.2791 51.354 8.14253C49.3557 5.37089 46.2104 3.21613 42.2658 1.91286C38.747 0.748593 34.6026 0.288102 30.5885 0.609577C23.5855 1.17433 18.0422 3.91122 16.1134 7.76892C13.8109 12.3478 16.2611 18.812 19.9537 22.4265C22.456 24.8679 26.0096 26.3624 29.9629 26.6404C30.4031 26.6694 30.8404 26.6838 31.2749 26.6838ZM49.7553 16.0578C48.0785 16.0578 46.8186 17.5174 45.2634 19.316C43.8558 20.9494 42.2485 22.8088 39.8852 24.1555C34.5417 27.2052 25.497 27.3007 20.2231 22.1484C16.7042 18.7078 14.2714 12.3043 16.4609 7.94269C18.3289 4.20663 23.7593 1.54794 30.6145 1.00056C37.2004 0.470561 46.5058 2.07794 51.0412 8.36843C53.1352 11.2704 54.0822 14.9717 53.865 19.3768C52.8137 17.4132 51.5886 16.3097 50.2245 16.1012C50.0623 16.0723 49.9059 16.0578 49.7553 16.0578Z" fill="#070D13"/>
<path d="M24.0024 11.2093H43.1258C43.2388 11.2093 43.3257 11.1225 43.3257 11.0182C43.3257 10.9052 43.2388 10.8184 43.1258 10.8184H24.0024C23.8981 10.8184 23.8113 10.9052 23.8113 11.0182C23.8113 11.1225 23.8981 11.2093 24.0024 11.2093Z" fill="#070D13"/>
<path d="M29.0935 14.5707H38.7117C38.816 14.5707 38.9028 14.4838 38.9028 14.3708C38.9028 14.2666 38.816 14.1797 38.7117 14.1797H29.0935C28.9805 14.1797 28.8937 14.2666 28.8937 14.3708C28.8937 14.4838 28.9805 14.5707 29.0935 14.5707Z" fill="#070D13"/>
<path d="M3.85296 41.0267C3.36641 40.3403 -2.11605 32.3468 1.32461 23.2413C3.7487 16.8378 9.89149 11.6595 17.0335 11.3814C18.2412 11.3293 25.8349 11.0339 29.9098 17.1072C32.6554 21.1908 32.9595 26.8991 30.2835 31.0523C27.1121 35.9873 21.0562 36.6911 20.1613 36.7867C13.8708 37.4123 10.4041 33.3808 6.97215 35.327C4.87821 36.5173 4.14837 39.176 3.85296 41.0267Z" fill="white"/>
<path fill-rule="evenodd" clip-rule="evenodd" d="M3.85273 41.2169C3.87011 41.2169 3.88459 41.214 3.89618 41.2082C3.97437 41.1909 4.0352 41.13 4.04389 41.0518C4.49569 38.2541 5.51224 36.3774 7.06749 35.4999C8.76175 34.5354 10.4734 35.1002 12.6368 35.8127C14.7221 36.4991 17.094 37.281 20.1785 36.9769C21.8206 36.8118 27.3986 35.8995 30.4483 31.1556C33.0809 27.0633 32.9245 21.242 30.066 16.9933C26.3386 11.4414 19.7093 11.0764 17.0245 11.1894C13.5665 11.3197 10.204 12.5882 7.29338 14.8646C4.54781 17.002 2.35831 19.9561 1.1506 23.1709C-2.30743 32.3025 3.07077 40.2612 3.69634 41.1387C3.7311 41.1822 3.79191 41.2169 3.85273 41.2169ZM9.03109 34.5963C8.30125 34.5963 7.5888 34.7527 6.87634 35.161C5.30372 36.0559 4.25241 37.8545 3.74847 40.5218C2.52339 38.6451 -1.5689 31.451 1.50683 23.3099C4.06126 16.5502 10.2996 11.8323 17.0419 11.5717C19.6572 11.4761 26.1214 11.815 29.7532 17.2105C32.5162 21.3289 32.6726 26.9851 30.1268 30.9471C27.0945 35.665 21.2732 36.473 20.1437 36.5859C17.1375 36.89 14.809 36.1255 12.7585 35.4477C11.4204 35.0046 10.204 34.5963 9.03109 34.5963Z" fill="#070D13"/>
<path d="M7.40662 22.9554H25.3919C25.4961 22.9554 25.583 22.8686 25.583 22.7643C25.583 22.6513 25.4961 22.5645 25.3919 22.5645H7.40662C7.30236 22.5645 7.21548 22.6513 7.21548 22.7643C7.21548 22.8686 7.30236 22.9554 7.40662 22.9554Z" fill="#070D13"/>
<path d="M13.2193 25.3011H19.6488C19.7618 25.3011 19.8486 25.2143 19.8486 25.1013C19.8486 24.997 19.7618 24.9102 19.6488 24.9102H13.2193C13.115 24.9102 13.0281 24.997 13.0281 25.1013C13.0281 25.2143 13.115 25.3011 13.2193 25.3011Z" fill="#070D13"/>
<path d="M135.858 151.136H67.4271C64.5165 151.136 62.1619 148.747 62.1619 145.793L68.826 5.3951C68.826 2.441 71.1893 0.0429688 74.0999 0.0429688H142.531C145.441 0.0429688 147.805 2.441 147.805 5.3951L141.132 145.793C141.132 148.747 138.769 151.136 135.858 151.136Z" fill="#070D13"/>
<path d="M131.218 151.173H62.7875C59.8768 151.173 57.5223 148.784 57.5223 145.847L64.195 5.70107C64.195 2.76435 66.5496 0.375 69.4603 0.375H137.891C140.802 0.375 143.165 2.76435 143.165 5.70107L136.492 145.847C136.492 148.784 134.129 151.173 131.218 151.173Z" fill="white"/>
<path d="M69.6166 151.18H83.718C83.8223 151.18 83.9092 151.093 83.9092 150.989C83.9092 150.876 83.8223 150.789 83.718 150.789H69.6166C69.5123 150.789 69.4254 150.876 69.4254 150.989C69.4254 151.093 69.5123 151.18 69.6166 151.18Z" fill="#070D13"/>
<path d="M91.1038 151.178H131.219C134.234 151.178 136.684 148.702 136.684 145.661L139.229 98.2219C139.229 98.1177 139.151 98.0221 139.047 98.0221C138.934 98.0134 138.847 98.1003 138.839 98.2046L136.301 145.653C136.301 148.494 134.025 150.787 131.219 150.787H91.1038C90.9908 150.787 90.9039 150.874 90.9039 150.987C90.9039 151.092 90.9908 151.178 91.1038 151.178Z" fill="#070D13"/>
<path d="M140.967 53.5039C141.071 53.5039 141.158 53.4257 141.158 53.3215L143.356 5.5259C143.356 2.47623 140.906 0 137.891 0H69.46C66.4451 0 63.995 2.47623 63.995 5.51721L63.4823 18.2633C63.4737 18.3762 63.5605 18.4631 63.6648 18.4718C63.7778 18.4718 63.8646 18.3849 63.8646 18.2807L64.386 5.5259C64.386 2.69344 66.6623 0.390984 69.46 0.390984H137.891C140.689 0.390984 142.974 2.69344 142.974 5.51721L140.775 53.3041C140.767 53.4084 140.854 53.4952 140.958 53.5039C140.964 53.5039 140.967 53.5039 140.967 53.5039Z" fill="#070D13"/>
<path d="M128.047 147.166H65.5591C62.9004 147.166 60.7456 144.985 60.7456 142.301L67.3315 9.58345C67.3315 6.89869 69.4863 4.72656 72.145 4.72656H134.633C137.292 4.72656 139.446 6.89869 139.446 9.58345L132.86 142.301C132.86 144.985 130.706 147.166 128.047 147.166Z" fill="white"/>
<path fill-rule="evenodd" clip-rule="evenodd" d="M65.5589 147.356H128.047C130.81 147.356 133.051 145.088 133.051 142.299L139.637 9.5908C139.637 6.79309 137.396 4.52539 134.633 4.52539H72.1447C69.3818 4.52539 67.1315 6.79309 67.1315 9.58211L60.5456 142.291C60.5456 145.088 62.7959 147.356 65.5589 147.356ZM134.633 4.91637C137.178 4.91637 139.255 7.01031 139.255 9.58211L132.669 142.291C132.669 144.871 130.592 146.965 128.047 146.965H65.5589C63.0044 146.965 60.9365 144.871 60.9365 142.299L67.5225 9.5908C67.5225 7.01031 69.5903 4.91637 72.1447 4.91637H134.633Z" fill="#070D13"/>
<path d="M134.885 47.1264C134.989 47.1264 135.076 47.0482 135.076 46.9439L135.676 34.3542C135.676 34.25 135.598 34.1544 135.493 34.1544C135.389 34.137 135.293 34.2326 135.285 34.3369L134.694 46.9265C134.685 47.0308 134.772 47.1177 134.876 47.1264C134.876 47.1264 134.879 47.1264 134.885 47.1264Z" fill="#070D13"/>
<path d="M68.9045 35.5266C69.0088 35.5266 69.087 35.4397 69.0957 35.3354L70.2078 11.9199C70.2078 9.42625 72.1106 7.40183 74.4565 7.40183H132.105C134.442 7.40183 136.354 9.42625 136.354 11.9112L135.511 29.6879C135.502 29.8008 135.589 29.8877 135.693 29.8964C135.797 29.8964 135.893 29.8182 135.893 29.714L136.736 11.9199C136.736 9.20904 134.659 7.01953 132.105 7.01953H74.4565C71.8934 7.01953 69.8168 9.20904 69.8168 11.9112L68.7047 35.3181C68.7047 35.4223 68.7829 35.5179 68.8958 35.5179C68.8958 35.5237 68.8987 35.5266 68.9045 35.5266Z" fill="#070D13"/>
<path d="M63.9691 120.11C64.0647 120.11 64.1516 120.023 64.1603 119.919L65.0986 100.187C65.0986 100.074 65.0204 99.9872 64.9075 99.9785C64.8119 99.9785 64.7163 100.057 64.7076 100.161L63.7693 119.901C63.7693 120.014 63.8475 120.101 63.9604 120.11C63.9604 120.11 63.9633 120.11 63.9691 120.11Z" fill="white"/>
<path d="M73.9781 145.037H111.139C111.243 145.037 111.33 144.951 111.33 144.838C111.33 144.733 111.243 144.646 111.139 144.646H73.9781C73.8739 144.646 73.787 144.733 73.787 144.838C73.787 144.951 73.8739 145.037 73.9781 145.037Z" fill="#070D13"/>
<path d="M115.787 145.038H126.022C128.586 145.038 130.662 142.84 130.662 140.147L131.47 123.013C131.479 122.909 131.392 122.822 131.288 122.813C131.183 122.804 131.088 122.891 131.088 122.996L130.271 140.129C130.271 142.623 128.368 144.647 126.022 144.647H115.787C115.683 144.647 115.596 144.734 115.596 144.839C115.596 144.951 115.683 145.038 115.787 145.038Z" fill="#070D13"/>
<path d="M92.0942 0.380859L93.4149 2.57906C94.2142 3.9084 95.5609 4.70775 96.9945 4.70775H110.305C111.704 4.70775 113.025 3.94316 113.833 2.65725L115.258 0.380859H92.0942Z" fill="#070D13"/>
<path d="M60.6414 83.889C60.7457 83.889 60.8326 83.8108 60.8326 83.7066L61.8057 64.5484C61.8057 64.4441 61.7275 64.3485 61.6145 64.3398C61.5103 64.3398 61.4234 64.418 61.4147 64.531L60.4503 83.6892C60.4416 83.7934 60.5285 83.889 60.6327 83.889C60.6327 83.889 60.6356 83.889 60.6414 83.889Z" fill="#070D13"/>
<path d="M67.3227 67.8319C67.3227 86.8598 82.7448 102.282 101.773 102.282C120.801 102.282 136.223 86.8598 136.223 67.8319C136.223 48.8128 120.801 33.3906 101.773 33.3906C82.7448 33.3906 67.3227 48.8128 67.3227 67.8319Z" fill="white"/>
<path fill-rule="evenodd" clip-rule="evenodd" d="M101.773 102.474C120.87 102.474 136.414 86.9386 136.414 67.8326C136.414 48.7352 120.87 33.1914 101.773 33.1914C82.6755 33.1914 67.1318 48.7352 67.1318 67.8326C67.1318 86.9386 82.6755 102.474 101.773 102.474ZM101.773 33.5824C120.662 33.5824 136.023 48.9437 136.023 67.8326C136.023 86.7214 120.662 102.091 101.773 102.091C82.8841 102.091 67.5228 86.7214 67.5228 67.8326C67.5228 48.9437 82.8841 33.5824 101.773 33.5824Z" fill="#070D13"/>
<path d="M82.6237 91.7949L114.624 93.6021C114.624 93.6021 114.641 96.4085 114.71 99.6059C110.158 101.83 105.075 102.282 99.6706 102.282C93.1542 102.282 87.1157 99.1193 81.92 95.9741L82.6237 91.7949Z" fill="#0080FF"/>
<path d="M55.4636 29.8995C55.5418 29.2478 55.1682 28.5267 55.0378 27.8751C54.7598 26.4501 54.5165 25.0078 54.5513 23.5655C54.5947 22.2796 54.6469 21.1328 55.1769 19.9685C55.5331 19.1778 56.1065 18.1787 57.2013 18.2829C58.0006 18.3611 58.7392 18.8651 59.1823 19.5254C59.7905 20.4203 59.9295 21.5585 59.8947 22.6446C59.8687 23.6177 59.5124 24.808 59.7209 25.7637C59.9469 26.7803 60.529 26.6934 61.0416 25.9028C62.3275 23.9131 64.4649 23.5395 63.709 24.2432C62.9618 24.947 61.6064 27.7621 61.1024 28.5354C60.92 28.8134 60.3552 29.1523 59.7123 29.4737C59.7123 31.3157 59.9382 34.1395 61.2414 37.2239C62.7967 40.8905 65.2382 43.4101 67.2539 45.0349C65.6118 47.9195 62.0147 52.6373 55.8459 53.428C54.977 51.6903 54.2906 49.857 53.8128 47.9803C52.9613 44.6352 52.7701 41.1337 53.2306 37.7191C53.4652 35.9901 53.8649 34.2872 54.4296 32.6364C54.7164 31.8023 55.116 31.0029 55.4028 30.1688C55.4317 30.0819 55.452 29.9922 55.4636 29.8995Z" fill="white"/>
<path fill-rule="evenodd" clip-rule="evenodd" d="M55.8456 53.62C55.8572 53.62 55.8659 53.62 55.8717 53.62C62.1622 52.8206 65.8113 47.9551 67.4274 45.1313C67.4709 45.0444 67.4535 44.9402 67.3753 44.8793C64.6818 42.7159 62.6835 40.118 61.4236 37.1466C60.4245 34.792 59.9205 32.2549 59.9118 29.5962C60.6504 29.2139 61.0935 28.9011 61.2672 28.6405C61.4236 28.3885 61.6756 27.928 61.9623 27.398C62.5531 26.3206 63.3525 24.8436 63.8477 24.3831C63.9086 24.3223 64.1171 24.1311 64.0476 23.9226C64.0302 23.8792 63.9781 23.7575 63.7869 23.7315C63.283 23.662 61.8407 24.3136 60.8763 25.7993C60.6069 26.2164 60.3723 26.338 60.2507 26.3207C60.1117 26.2946 59.99 26.0687 59.9118 25.7211C59.7815 25.1477 59.8771 24.4526 59.9727 23.7836C60.0248 23.4013 60.0769 23.0103 60.0943 22.6454C60.1291 21.2813 59.8858 20.2213 59.3384 19.4133C58.8431 18.6748 58.0351 18.1708 57.2184 18.0926C56.0194 17.9797 55.4025 18.9962 54.9941 19.8911C54.4728 21.0467 54.4033 22.1849 54.3599 23.5577C54.3251 24.9479 54.525 26.3033 54.8464 27.9107C54.8986 28.1452 54.9681 28.3798 55.0463 28.6144C55.1766 29.0402 55.3156 29.4833 55.2722 29.8743C55.2606 29.9553 55.2432 30.0335 55.22 30.1088C55.081 30.5085 54.9159 30.9082 54.7509 31.2905C54.5771 31.7075 54.3946 32.1333 54.2469 32.5764C53.6822 34.2359 53.2738 35.9562 53.0392 37.6939C52.5787 41.1172 52.7786 44.6882 53.6213 48.0246C54.1079 49.9274 54.7943 51.7693 55.6718 53.5157C55.7066 53.5766 55.7761 53.62 55.8456 53.62ZM67.0104 45.0792C65.403 47.8421 61.8928 52.3949 55.9586 53.2203C55.1245 51.5347 54.4641 49.7536 54.0036 47.929C53.1609 44.6447 52.961 41.1172 53.4215 37.7461C53.6561 36.0257 54.0558 34.3315 54.6118 32.698C54.7509 32.2723 54.9333 31.8552 55.1071 31.4469C55.2722 31.0559 55.4459 30.6475 55.585 30.2392C55.6197 30.1349 55.6429 30.0278 55.6545 29.9177C55.7153 29.4485 55.5589 28.9707 55.4112 28.5015C55.3417 28.2669 55.2722 28.0497 55.2287 27.8325C54.9159 26.2511 54.7074 24.9218 54.7509 23.5751C54.7856 22.1936 54.8551 21.1423 55.3504 20.0475C55.7066 19.2743 56.2279 18.388 57.1836 18.4836C57.8874 18.5444 58.5912 18.9875 59.0169 19.6305C59.5209 20.369 59.7381 21.3508 59.7033 22.6367C59.6946 22.9756 59.6425 23.3405 59.5904 23.7315C59.4948 24.4352 59.3905 25.1564 59.5295 25.808C59.6772 26.4684 59.964 26.6595 60.1812 26.6943C60.5113 26.7551 60.8763 26.5118 61.2064 26.0079C62.0058 24.7654 63.1005 24.2354 63.5523 24.1311C63.0223 24.6525 62.249 26.0687 61.6235 27.2069C61.3368 27.7369 61.0935 28.1887 60.9371 28.4233C60.8589 28.5449 60.5809 28.8229 59.6251 29.3008C59.5643 29.3356 59.5209 29.4051 59.5209 29.4746C59.5122 32.2288 60.0335 34.8615 61.0674 37.2943C62.3272 40.2831 64.3256 42.8984 67.0104 45.0792Z" fill="#070D13"/>
<path d="M67.254 45.0332C68.5572 46.0671 69.6781 46.7362 70.2689 47.0924C80.0782 52.9137 86.0559 46.2322 102.13 46.6666C108.003 46.823 112.035 45.9889 122.513 50.533C122.513 50.533 141.61 56.6584 141.61 76.2163C141.61 81.6988 138.005 86.3471 133.747 87.8242C129.933 83.0716 128.717 80.3521 125.745 79.1791C125.762 78.9619 127.83 77.5457 127.804 77.3111C127.292 72.3412 125.615 70.925 123.686 70.004C122.808 69.587 121.766 70.0996 121.67 71.064C121.218 75.3388 121.844 78.7273 120.888 88.8668C120.341 94.7576 119.75 95.6265 119.185 96.1999C115.441 100.005 109.072 94.914 94.171 94.6881C87.1072 94.5752 82.4415 95.6352 81.1208 93.185C80.1651 91.4299 81.7551 89.3447 82.9194 86.2776C84.353 82.4894 85.3435 76.6507 82.8499 67.9796C72.9363 69.083 63.1964 64.6258 57.6184 56.4325C56.9581 55.4594 56.3672 54.4603 55.8459 53.4263C62.0148 52.6357 65.6118 47.9178 67.254 45.0332Z" fill="white"/>
<path fill-rule="evenodd" clip-rule="evenodd" d="M115.475 97.808C117.03 97.808 118.264 97.417 119.315 96.3396C119.967 95.6793 120.541 94.6714 121.088 88.8849C121.653 82.8637 121.661 79.258 121.67 76.3647C121.67 74.3837 121.679 72.8198 121.861 71.0908C121.896 70.7172 122.104 70.3957 122.435 70.2132C122.782 70.0134 123.225 70.0047 123.608 70.1872C125.337 71.0039 127.074 72.2377 127.613 77.2857C127.5 77.4421 126.961 77.8678 126.596 78.1632C125.78 78.8149 125.563 78.9973 125.554 79.1624C125.545 79.2493 125.589 79.3275 125.675 79.3623C127.787 80.1964 128.986 81.8211 130.967 84.5059C131.714 85.5137 132.557 86.6519 133.591 87.9465C133.643 88.016 133.73 88.0421 133.808 88.0073C138.439 86.4 141.81 81.4388 141.81 76.217C141.81 66.0341 136.58 59.5437 132.192 55.8946C127.439 51.9413 122.626 50.3687 122.574 50.3513C113.703 46.5023 109.367 46.5023 104.771 46.4936C103.919 46.4936 103.042 46.4936 102.13 46.4675C95.535 46.2937 90.7215 47.2929 86.4815 48.1705C80.4604 49.4216 76.1074 50.3252 70.373 46.928C69.7735 46.5718 68.6701 45.9114 67.3755 44.8775C67.332 44.8428 67.2799 44.8254 67.2191 44.8428C67.1669 44.8514 67.1148 44.8862 67.0888 44.9296C65.5074 47.7013 61.9451 52.4539 55.8197 53.2359C55.7589 53.2446 55.7068 53.2793 55.6807 53.3314C55.646 53.3923 55.646 53.4531 55.672 53.5139C56.202 54.5652 56.8015 55.5818 57.4532 56.5375C63.0746 64.7829 72.7363 69.2401 82.7107 68.1975C84.6569 75.0528 84.6656 81.1087 82.7368 86.2088C82.424 87.0255 82.0938 87.7554 81.7724 88.4591C80.8948 90.3793 80.1997 91.9085 80.9469 93.2813C81.9722 95.1754 84.7873 95.0885 89.0446 94.9582C90.5651 94.906 92.2855 94.8539 94.1709 94.88C100.8 94.9842 105.831 96.0703 109.506 96.861C111.93 97.391 113.868 97.808 115.475 97.808ZM123.034 69.6659C122.765 69.6659 122.487 69.7354 122.244 69.8744C121.809 70.1177 121.531 70.5434 121.47 71.0473C121.288 72.7937 121.288 74.3664 121.279 76.3647C121.27 79.2493 121.262 82.8464 120.697 88.8501C120.167 94.4977 119.611 95.4882 119.046 96.0703C117.048 98.0947 114.241 97.4865 109.584 96.4873C105.892 95.688 100.844 94.5932 94.1796 94.4977C92.2855 94.4629 90.5564 94.515 89.036 94.5672C84.9176 94.6975 82.1981 94.7844 81.2858 93.0988C80.6342 91.8911 81.2945 90.4488 82.1286 88.6155C82.4327 87.9378 82.7802 87.1733 83.093 86.3478C85.074 81.1347 85.0566 74.9311 83.0322 67.9282C83.0061 67.8413 82.9192 67.7805 82.8237 67.7891C72.9361 68.8839 63.344 64.4962 57.7746 56.3203C57.1838 55.4514 56.6365 54.5305 56.1412 53.5834C62.1276 52.6972 65.6725 48.127 67.3147 45.3206C68.5484 46.2937 69.5997 46.9193 70.1732 47.2582C76.0379 50.7423 80.4517 49.8213 86.5597 48.5528C90.7824 47.6752 95.5697 46.6847 102.121 46.8585C103.042 46.8846 103.919 46.8846 104.771 46.8846C109.324 46.8846 113.624 46.8846 122.443 50.7162C122.504 50.7336 127.257 52.2888 131.949 56.1987C136.275 59.7957 141.419 66.1905 141.419 76.217C141.419 81.2303 138.23 85.9916 133.808 87.599C132.817 86.3565 132.001 85.2531 131.28 84.28C129.333 81.6387 128.126 79.9965 126.058 79.1016C126.24 78.9365 126.57 78.6759 126.831 78.4673C127.848 77.6593 128.021 77.4855 127.995 77.2944C127.448 72.0031 125.528 70.6737 123.773 69.8309C123.538 69.7267 123.286 69.6659 123.034 69.6659Z" fill="#070D13"/>
<path d="M108.264 77.972C108.298 77.972 108.33 77.9633 108.359 77.946C112.278 75.5392 114.085 71.7424 113.094 69.9525C112.799 69.4138 111.774 68.3104 108.776 69.8048C108.681 69.8569 108.637 69.9699 108.689 70.0655C108.733 70.161 108.854 70.1958 108.95 70.1524C110.844 69.2053 112.234 69.2053 112.756 70.1437C113.546 71.5599 112.139 75.1656 108.159 77.6158C108.072 77.6766 108.038 77.7896 108.098 77.8851C108.133 77.946 108.194 77.972 108.264 77.972Z" fill="#070D13"/>
<path d="M108.22 79.4744L102.486 79.0313C102.077 79.0052 101.773 78.6577 101.782 78.258L102.043 67.7449C102.051 67.3105 102.425 66.9716 102.859 67.0064L109.636 67.5277C110.062 67.5624 110.383 67.9447 110.331 68.3792L109.037 78.8141C108.985 79.2137 108.628 79.5005 108.22 79.4744Z" fill="#0080FF"/>
<path d="M103.85 73.3393C103.884 73.264 103.928 73.1916 103.98 73.1221C105.014 71.7667 107.256 73.1655 108.428 73.5392C109.349 73.8346 110.27 74.13 111.191 74.4254L114.702 78.5785C116.604 79.0824 122.391 81.0287 126.622 78.2744C127.978 77.3882 129.802 77.7618 130.767 79.0651C132.209 81.0113 133.564 83.5483 134.442 87.5103C127.647 89.5521 117.934 87.0585 113.572 83.1747C111.591 83.2442 110.027 81.3241 108.837 79.986C108.168 79.2388 107.534 78.3439 106.682 77.7878C105.9 77.2839 104.953 76.9711 104.362 76.2152C103.989 75.7287 103.815 75.1031 103.737 74.4949C103.693 74.1039 103.693 73.6869 103.85 73.3393Z" fill="white"/>
<path fill-rule="evenodd" clip-rule="evenodd" d="M128.986 88.4479C130.897 88.4479 132.774 88.2133 134.494 87.7006C134.59 87.6659 134.651 87.5703 134.633 87.4747C133.877 84.0515 132.696 81.3406 130.923 78.9513C129.881 77.5438 127.943 77.1788 126.518 78.1085C122.687 80.6021 117.491 79.1511 115.267 78.5343C115.099 78.4821 114.948 78.4387 114.815 78.4039L111.339 74.3029C111.316 74.274 111.287 74.2537 111.252 74.2421L108.49 73.3559C108.255 73.2864 107.968 73.1647 107.664 73.0344C106.43 72.5131 104.736 71.8006 103.824 72.9997C103.766 73.0807 103.717 73.1676 103.676 73.2603C103.528 73.5905 103.485 73.9901 103.546 74.5201C103.641 75.2847 103.859 75.8756 104.206 76.3361C104.64 76.8921 105.249 77.2136 105.84 77.5351C106.083 77.6654 106.343 77.8044 106.578 77.9521C107.195 78.3605 107.708 78.96 108.203 79.5508C108.368 79.742 108.533 79.9331 108.689 80.1156L108.941 80.3936C110.114 81.7229 111.574 83.3651 113.459 83.3651C113.471 83.3651 113.485 83.3651 113.503 83.3651C116.744 86.2062 123.043 88.4479 128.986 88.4479ZM134.216 87.3792C127.239 89.3775 117.838 86.7101 113.703 83.0262C113.668 82.9915 113.616 82.9741 113.564 82.9741C111.809 83.0436 110.375 81.4362 109.228 80.1416L108.985 79.8636C108.82 79.6811 108.663 79.49 108.498 79.2988C107.986 78.6906 107.456 78.0651 106.787 77.6306C106.543 77.4656 106.274 77.3265 106.022 77.1875C105.44 76.8834 104.901 76.588 104.519 76.0928C104.206 75.6931 104.015 75.1631 103.937 74.468C103.876 74.0162 103.911 73.6774 104.024 73.4167C104.058 73.353 104.096 73.2922 104.137 73.2343C104.866 72.2785 106.335 72.8954 107.516 73.3906C107.829 73.521 108.125 73.6513 108.368 73.7295L111.079 74.5897L114.554 78.6993C114.583 78.7283 114.615 78.7486 114.65 78.7602C114.8 78.8007 114.971 78.847 115.162 78.8992C117.43 79.5334 122.747 81.0192 126.727 78.43C127.987 77.6133 129.69 77.9347 130.61 79.1772C132.322 81.4884 133.469 84.0949 134.216 87.3792Z" fill="#070D13"/>
<path d="M104.945 37.6025C106.109 38.1933 106.995 38.2802 107.629 38.2454C109.923 38.1151 111.391 36.2645 111.687 35.8909C113.207 33.9794 113.937 30.8428 112.651 29.0009C111.722 27.6802 110.557 28.1754 109.489 26.6897C108.272 25.0128 109.515 23.6313 108.394 22.163C107.108 20.46 104.267 20.5904 103.763 20.6164C102.008 20.6946 101.799 21.5635 100.148 21.52C98.4542 21.4766 98.2283 20.6251 96.6817 20.6164C95.448 20.6077 93.6494 21.1377 92.8501 22.5627C91.8335 24.3525 92.8675 26.7071 94.0665 27.9495C95.5088 29.444 96.5253 28.6446 98.5411 29.8523C102.034 31.9636 101.2 35.7171 104.945 37.6025Z" fill="#070D13"/>
<path d="M98.437 45.5645L99.3841 39.6736C99.1755 39.6563 97.4291 39.3522 97.238 39.2479C95.6219 38.4486 96.0651 34.3997 96.0651 34.3997L95.1701 33.3223L97.8462 27.3359C100.687 29.7079 101.704 27.3794 104.51 28.5436C107.325 29.7166 105.796 32.8445 105.796 32.8445C105.796 32.8445 108.099 31.8279 107.603 34.0522C107.238 35.7291 106.013 35.8333 105.205 35.7725L106.708 45.8599C106.708 45.8599 109.645 46.694 111.374 47.1805C111.635 47.25 111.626 47.6236 111.366 47.6845C108.672 48.3535 101.921 50.2736 94.2926 47.4586C93.9798 47.3456 93.9972 46.8851 94.3187 46.7895L98.437 45.5645Z" fill="white"/>
<path fill-rule="evenodd" clip-rule="evenodd" d="M102.755 49.1353C106.422 49.1353 109.393 48.3881 111.053 47.9623L111.418 47.8754C111.617 47.8233 111.756 47.6495 111.765 47.441C111.765 47.2238 111.626 47.05 111.426 46.9892C109.906 46.5635 107.447 45.8684 106.882 45.712L105.431 35.9722C106.717 36.0069 107.516 35.3726 107.794 34.0954C107.951 33.4004 107.855 32.9138 107.525 32.6358C107.143 32.323 106.543 32.4099 106.135 32.5228C106.335 31.9581 106.587 30.9067 106.222 29.9423C105.953 29.2385 105.405 28.7085 104.588 28.3697C103.32 27.8484 102.382 28.0048 101.556 28.1438C100.461 28.3263 99.5143 28.4826 97.9678 27.1881C97.9243 27.1533 97.8635 27.1359 97.8027 27.1533C97.7419 27.162 97.6984 27.2054 97.6724 27.2576L94.9963 33.244C94.9615 33.3135 94.9789 33.3917 95.0224 33.4525L95.8651 34.4603C95.813 35.0685 95.5437 38.6222 97.151 39.4215C97.3596 39.5258 98.6542 39.7517 99.1581 39.8385L98.2632 45.4079L94.2665 46.5982C94.0319 46.6677 93.8842 46.8676 93.8755 47.1108C93.8668 47.3541 94.0058 47.5626 94.2317 47.6408C97.264 48.7617 100.183 49.1353 102.755 49.1353ZM105.205 35.5725C105.153 35.5725 105.101 35.5985 105.066 35.6333C105.023 35.6767 105.005 35.7376 105.014 35.7984L106.517 45.8858C106.526 45.964 106.578 46.0248 106.656 46.0422C106.656 46.0422 109.593 46.8849 111.322 47.3628C111.365 47.3802 111.374 47.4063 111.374 47.4323C111.374 47.4584 111.365 47.4844 111.322 47.4931L110.957 47.5887C108.159 48.2925 101.608 49.952 94.362 47.2759C94.2664 47.2412 94.2578 47.1543 94.2578 47.1282C94.2578 47.0935 94.2751 47.0066 94.3794 46.9718L98.4891 45.7467C98.5673 45.7294 98.6194 45.6685 98.6281 45.5904L99.5751 39.7082C99.5838 39.6561 99.5665 39.604 99.5404 39.5605C99.5056 39.5171 99.4535 39.491 99.4014 39.4823C99.1581 39.4563 97.4986 39.1608 97.3161 39.074C96.0997 38.4658 96.1432 35.5117 96.2648 34.4169C96.2648 34.3648 96.2474 34.3126 96.2214 34.2692L95.396 33.2961L97.9243 27.6485C99.4969 28.8736 100.531 28.7085 101.617 28.5261C102.434 28.3871 103.276 28.2481 104.441 28.7259C105.153 29.0213 105.631 29.4818 105.857 30.0813C106.326 31.3064 105.631 32.74 105.622 32.7574C105.588 32.8269 105.605 32.9138 105.657 32.9746C105.718 33.0354 105.805 33.0528 105.874 33.0181C106.152 32.8964 106.934 32.6531 107.282 32.9399C107.543 33.1484 107.499 33.6436 107.421 34.0085C107.16 35.1815 106.456 35.6767 105.223 35.5725C105.217 35.5725 105.211 35.5725 105.205 35.5725Z" fill="#070D13"/>
<path d="M100.018 39.9141C102.416 39.9141 103.528 38.0547 103.545 38.0374C103.597 37.9505 103.563 37.8288 103.476 37.7767C103.38 37.7159 103.267 37.7506 103.206 37.8375C103.163 37.9244 101.999 39.8359 99.4096 39.4797C99.3053 39.471 99.2098 39.5405 99.1924 39.6447C99.175 39.749 99.2532 39.8533 99.3575 39.8619C99.5892 39.8967 99.8093 39.9141 100.018 39.9141Z" fill="#070D13"/>
<path fill-rule="evenodd" clip-rule="evenodd" d="M109.384 116.999C111.677 116.999 113.545 115.13 113.545 112.837C113.545 110.543 111.677 108.684 109.384 108.684C107.09 108.684 105.222 110.543 105.222 112.837C105.222 115.13 107.09 116.999 109.384 116.999ZM109.384 109.066C111.46 109.066 113.154 110.76 113.154 112.837C113.154 114.922 111.46 116.616 109.384 116.616C107.307 116.616 105.613 114.922 105.613 112.837C105.613 110.76 107.307 109.066 109.384 109.066Z" fill="#070D13"/>
<path fill-rule="evenodd" clip-rule="evenodd" d="M98.2014 116.999C100.495 116.999 102.354 115.13 102.354 112.837C102.354 110.543 100.495 108.684 98.2014 108.684C95.9076 108.684 94.0396 110.543 94.0396 112.837C94.0396 115.13 95.9076 116.999 98.2014 116.999ZM98.2014 109.066C100.278 109.066 101.972 110.76 101.972 112.837C101.972 114.922 100.278 116.616 98.2014 116.616C96.1161 116.616 94.4306 114.922 94.4306 112.837C94.4306 110.76 96.1161 109.066 98.2014 109.066Z" fill="#070D13"/>
<path fill-rule="evenodd" clip-rule="evenodd" d="M86.8109 116.59C89.1046 116.59 90.9727 114.731 90.9727 112.437C90.9727 110.143 89.1046 108.275 86.8109 108.275C84.5171 108.275 82.6491 110.143 82.6491 112.437C82.6491 114.731 84.5171 116.59 86.8109 116.59ZM86.8109 108.658C88.8961 108.658 90.5817 110.352 90.5817 112.437C90.5817 114.514 88.8961 116.208 86.8109 116.208C84.7343 116.208 83.04 114.514 83.04 112.437C83.04 110.352 84.7343 108.658 86.8109 108.658Z" fill="#070D13"/>
<path d="M59.0073 146.515C59.0073 146.515 54.5762 145.133 47.3213 131.058C41.1958 119.172 46.6522 107.686 47.7557 100.005C47.8686 99.223 48.946 99.11 49.2067 99.8573C51.0399 105.018 53.994 114.402 53.5162 120.18C52.8298 128.503 59.0073 146.515 59.0073 146.515Z" fill="white"/>
<path fill-rule="evenodd" clip-rule="evenodd" d="M59.0077 146.705C59.0598 146.705 59.1032 146.687 59.1467 146.653C59.1901 146.6 59.2075 146.522 59.1901 146.453C59.1293 146.27 53.0386 128.389 53.7163 120.196C54.1942 114.366 51.214 104.913 49.3895 99.7867C49.2418 99.3696 48.8508 99.1177 48.4077 99.1611C47.9732 99.2045 47.6344 99.5347 47.5649 99.9778C47.3216 101.716 46.8437 103.67 46.3311 105.738C44.576 112.932 42.3778 121.89 47.1478 131.144C54.3593 145.132 58.7644 146.644 58.9468 146.696C58.9642 146.702 58.9845 146.705 59.0077 146.705ZM48.5119 99.5434C48.7031 99.5434 48.929 99.6476 49.0245 99.917C50.8404 105.008 53.8032 114.409 53.3254 120.161C52.6998 127.712 57.7391 143.325 58.6775 146.14C57.4524 145.436 53.3949 142.421 47.4954 130.961C42.7949 121.847 44.967 112.967 46.7134 105.825C47.2173 103.749 47.6952 101.785 47.9472 100.03C47.9993 99.7085 48.2513 99.5695 48.4511 99.5521C48.4685 99.5463 48.4888 99.5434 48.5119 99.5434Z" fill="#070D13"/>
<path d="M54.2022 138.818L52.6296 126.35C51.9432 120.937 52.8294 115.438 55.1753 110.52C58.5986 103.352 58.868 95.0629 55.9139 87.6951L53.3855 81.3611C53.064 80.5618 54.0806 79.9101 54.6627 80.5444L58.2163 84.4629C66.288 93.3426 69.0162 105.915 65.3583 117.384L58.7985 137.941L54.2022 138.818Z" fill="white"/>
<path fill-rule="evenodd" clip-rule="evenodd" d="M54.2026 139.018C54.2142 139.018 54.2258 139.015 54.2373 139.01L58.8336 138.132C58.9031 138.115 58.9639 138.063 58.9813 137.993L65.5411 117.445C69.2164 105.932 66.4621 93.2471 58.3644 84.3327L54.8021 80.4142C54.4285 80.0058 53.9246 80.0405 53.5857 80.2491C53.2468 80.4663 52.9949 80.9094 53.2034 81.4307L55.7405 87.7646C58.6598 95.0717 58.3905 103.334 55.0019 110.433C52.63 115.394 51.7437 120.911 52.4301 126.376L54.0114 138.844C54.0201 138.897 54.0462 138.949 54.0896 138.975C54.1244 139.001 54.1591 139.018 54.2026 139.018ZM58.6511 137.767L54.3677 138.593L52.8211 126.324C52.1347 120.937 53.0123 115.498 55.3495 110.598C58.7901 103.404 59.0595 95.0283 56.0967 87.6169L53.5596 81.2917C53.4293 80.9528 53.6031 80.6922 53.7942 80.5792C53.9767 80.4576 54.2808 80.4142 54.5154 80.6748L58.0777 84.5933C66.0798 93.4035 68.7993 105.95 65.1762 117.332L58.6511 137.767Z" fill="#070D13"/>
<path d="M56.236 139.227L61.7098 125.256C63.265 121.277 66.5406 118.236 70.5981 117.011L74.3342 115.881C75.2378 115.603 75.846 116.802 75.0988 117.384L72.805 119.165C70.3201 121.103 68.8344 124.066 68.7649 127.237C68.7301 129.096 68.2001 130.912 67.2357 132.494L63.5257 138.575L56.236 139.227Z" fill="white"/>
<path fill-rule="evenodd" clip-rule="evenodd" d="M56.2354 139.427C56.2412 139.427 56.247 139.427 56.2528 139.427L63.5425 138.767C63.6033 138.767 63.6554 138.732 63.6902 138.68L67.4002 132.598C68.382 130.982 68.9207 129.131 68.9641 127.237C69.0249 124.118 70.4672 121.233 72.9174 119.322L75.2112 117.54C75.689 117.167 75.7064 116.602 75.5066 116.22C75.3068 115.829 74.8463 115.525 74.2728 115.698L70.5454 116.828C66.401 118.079 63.1167 121.129 61.5267 125.186L56.053 139.158C56.0356 139.218 56.0443 139.297 56.079 139.349C56.1225 139.392 56.1746 139.427 56.2354 139.427ZM63.4122 138.393L56.5308 139.01L61.8917 125.325C63.4382 121.381 66.6269 118.418 70.6584 117.193L74.3858 116.063C74.7681 115.95 75.0461 116.168 75.159 116.394C75.2807 116.619 75.2981 116.984 74.9766 117.236L72.6828 119.018C70.1371 120.998 68.6426 123.987 68.5731 127.228C68.5384 129.053 68.0171 130.843 67.07 132.398L63.4122 138.393Z" fill="#070D13"/>
<path d="M57.0443 132.855C57.0501 132.855 57.0559 132.855 57.0617 132.855C57.1746 132.847 57.2528 132.751 57.2441 132.638C56.41 123.715 58.1999 117.963 59.7812 112.898C60.511 110.552 61.2061 108.336 61.6145 105.964C63.5433 94.7302 56.9487 84.9904 56.8792 84.8861C56.8271 84.7992 56.7055 84.7818 56.6186 84.8426C56.523 84.9035 56.5056 85.0164 56.5664 85.112C56.6273 85.2076 63.135 94.8258 61.2322 105.895C60.8238 108.25 60.1374 110.448 59.4076 112.776C57.8176 117.885 56.0104 123.672 56.8532 132.682C56.8618 132.777 56.9487 132.855 57.0443 132.855Z" fill="#070D13"/>
<path d="M49.754 126.889C49.7656 126.889 49.7772 126.889 49.7888 126.889C49.893 126.871 49.9712 126.767 49.9451 126.663C48.4594 117.844 48.972 104.272 48.9807 104.142C48.9807 104.029 48.9025 103.942 48.7983 103.934C48.6853 103.934 48.5984 104.02 48.5897 104.125C48.5897 104.264 48.0684 117.87 49.5715 126.724C49.5802 126.819 49.6671 126.889 49.754 126.889Z" fill="#070D13"/>
<path d="M62.8215 134.187C62.9345 134.187 63.0214 134.108 63.0214 133.995C63.1256 123.013 71.901 118.191 71.9879 118.147C72.0835 118.095 72.1182 117.974 72.0661 117.878C72.014 117.791 71.901 117.757 71.8055 117.8C71.7099 117.852 62.7346 122.787 62.6304 133.995C62.6304 134.1 62.7173 134.187 62.8215 134.187Z" fill="#070D13"/>
<path d="M61.64 113.646C61.6921 113.646 61.7529 113.619 61.7877 113.567C64.1597 110.518 65.2197 106.399 65.2284 106.356C65.2544 106.252 65.1936 106.147 65.0893 106.121C64.9851 106.095 64.8808 106.156 64.8547 106.26C64.8374 106.304 63.8034 110.344 61.4836 113.333C61.4228 113.411 61.4315 113.533 61.5184 113.602C61.5531 113.628 61.5965 113.646 61.64 113.646Z" fill="#070D13"/>
<path d="M57.0349 155.473H58.0341C63.4818 155.473 67.9043 151.051 67.9043 145.603V135.846H47.1648V145.603C47.1648 151.051 51.5872 155.473 57.0349 155.473Z" fill="white"/>
<path fill-rule="evenodd" clip-rule="evenodd" d="M57.0352 155.664H58.0344C63.5777 155.664 68.0957 151.146 68.0957 145.603V135.845C68.0957 135.741 68.0088 135.654 67.9046 135.654H47.165C47.0608 135.654 46.9739 135.741 46.9739 135.845V145.603C46.9739 151.146 51.4832 155.664 57.0352 155.664ZM67.7047 136.045V145.603C67.7047 150.937 63.3691 155.273 58.0344 155.273H57.0352C51.7005 155.273 47.3562 150.937 47.3562 145.603V136.045H67.7047Z" fill="#070D13"/>
<path d="M49.1981 139.503H65.8714C65.9756 139.503 66.0625 139.417 66.0625 139.312C66.0625 139.208 65.9756 139.121 65.8714 139.121H49.1981C49.0938 139.121 49.0069 139.208 49.0069 139.312C49.0069 139.417 49.0938 139.503 49.1981 139.503Z" fill="#070D13"/>
</svg>
