<svg xmlns="http://www.w3.org/2000/svg" width="430" height="198" viewBox="0 0 430 198" fill="none">
<path d="M0.999962 55.3228L6.3147 50.8512" stroke="#F8F8F8" stroke-opacity="0.37" stroke-width="2.16817" stroke-linecap="round"/>
<path d="M57.3457 103.994L61.0903 98.1408" stroke="#F8F8F8" stroke-opacity="0.37" stroke-width="2.16817" stroke-linecap="round"/>
<path d="M131.109 142.459L132.593 135.668" stroke="#F8F8F8" stroke-opacity="0.37" stroke-width="2.16817" stroke-linecap="round"/>
<path d="M303.936 146.273L300.797 140.073" stroke="#F8F8F8" stroke-opacity="0.37" stroke-width="2.16817" stroke-linecap="round"/>
<path d="M374.204 107.07L370.192 101.397" stroke="#F8F8F8" stroke-opacity="0.37" stroke-width="2.16817" stroke-linecap="round"/>
<path d="M428.594 58.461L423.603 53.6297" stroke="#F8F8F8" stroke-opacity="0.37" stroke-width="2.16817" stroke-linecap="round"/>
<g filter="url(#filter0_f_734_3504)">
<ellipse cx="221.195" cy="150.747" rx="41.1952" ry="41.2536" fill="#0080FF" fill-opacity="0.04"/>
</g>
<g filter="url(#filter1_f_734_3504)">
<ellipse cx="221.195" cy="150.747" rx="27.1021" ry="27.1405" fill="#0080FF" fill-opacity="0.16"/>
</g>
<ellipse cx="221.001" cy="150.747" rx="10.8408" ry="10.8562" fill="#0080FF"/>
<path d="M213.048 93.0918C215.791 97.5198 217.274 102.776 217.318 108.005C217.317 112.591 216.154 117.165 214.038 121.228C213.73 121.803 213.41 122.372 213.048 122.925L212.839 122.867L213.308 121.037C214.056 117.995 214.692 114.892 214.981 111.769C215.038 111.243 215.073 110.427 215.111 109.892C215.132 109.276 215.141 108.626 215.147 108.012C215.13 107.471 215.132 106.665 215.096 106.132C215.077 105.829 215.025 105.019 215.006 104.724C214.95 104.182 214.871 103.393 214.806 102.852C214.533 100.837 214.176 98.8069 213.717 96.8241C213.487 95.7557 213.107 94.2182 212.838 93.1504L213.047 93.0932L213.048 93.0918Z" fill="#C46BFF"/>
<path d="M206.425 115.159C208.656 113.995 211.032 113.117 213.464 112.488C220.512 110.566 228.215 111.526 234.747 114.728L235.169 114.941L235.38 115.047L235.59 115.159L235.549 115.304L233.76 114.836C224.631 112.476 218.322 112.392 209.156 114.633C208.503 114.775 207.12 115.141 206.465 115.304L206.425 115.158V115.159Z" fill="#81FF81"/>
<path d="M229.025 93.0918C226.282 97.5198 224.799 102.776 224.755 108.005C224.756 112.591 225.919 117.165 228.035 121.228C228.343 121.803 228.663 122.372 229.025 122.925L229.234 122.867L228.765 121.037C228.017 117.995 227.38 114.892 227.092 111.769C227.034 111.243 227 110.427 226.962 109.892C226.941 109.276 226.932 108.626 226.926 108.012C226.942 107.471 226.941 106.665 226.977 106.132C226.996 105.829 227.048 105.019 227.067 104.724C227.123 104.182 227.202 103.393 227.267 102.852C227.539 100.837 227.897 98.8069 228.355 96.8241C228.586 95.7557 228.966 94.2182 229.235 93.1504L229.026 93.0932L229.025 93.0918Z" fill="#FF9900"/>
<path d="M206.425 100.035C208.655 101.2 211.031 102.078 213.463 102.708C220.509 104.631 228.21 103.67 234.742 100.466L235.164 100.253L235.375 100.147L235.584 100.035L235.543 99.8896L233.754 100.358C224.627 102.72 218.32 102.804 209.155 100.561C208.503 100.419 207.12 100.053 206.465 99.8896L206.425 100.036V100.035Z" fill="#FF1A37"/>
<mask id="mask0_734_3504" style="mask-type:luminance" maskUnits="userSpaceOnUse" x="212" y="99" width="6" height="6">
<path d="M217.3 99.3604H212.836V104.442H217.3V99.3604Z" fill="white"/>
</mask>
<g mask="url(#mask0_734_3504)">
<path d="M213.046 93.0908C215.789 97.5188 217.272 102.775 217.316 108.004C217.315 112.59 216.152 117.164 214.036 121.227C213.728 121.802 213.409 122.371 213.046 122.924L212.837 122.866L213.306 121.036C214.054 117.994 214.691 114.891 214.979 111.768C215.037 111.242 215.071 110.426 215.109 109.891C215.13 109.275 215.139 108.625 215.145 108.011C215.129 107.47 215.13 106.664 215.094 106.131C215.075 105.828 215.024 105.018 215.004 104.723C214.948 104.181 214.869 103.392 214.804 102.851C214.531 100.836 214.174 98.8059 213.715 96.8232C213.485 95.7547 213.105 94.2172 212.836 93.1495L213.045 93.0922L213.046 93.0908Z" fill="#C46BFF"/>
</g>
<path d="M216.757 128.208L216.756 128.207L216.755 128.206C215.552 126.722 214.397 125.41 213.284 124.149H213.284C213.284 124.149 213.283 124.149 213.283 124.149L212.546 123.313C212.468 123.207 212.386 123.118 212.31 123.043C208.233 118.382 205 114.139 205 106.383C205 101.965 206.79 97.965 209.685 95.0697C212.58 92.1744 216.58 90.3848 220.998 90.3848C225.421 90.3848 229.423 92.172 232.315 95.0664V95.0668L232.315 95.0671C235.21 97.959 237 101.961 237 106.383C237 114.142 233.766 118.385 229.687 123.046C229.605 123.127 229.53 123.214 229.461 123.306L228.716 124.149C226.176 127.023 223.413 130.151 221.001 134.3C219.665 132.005 218.22 130.021 216.757 128.208Z" stroke="#0080FF" stroke-width="1.89956"/>
<defs>
<filter id="filter0_f_734_3504" x="174.254" y="103.748" width="93.8814" height="93.9981" filterUnits="userSpaceOnUse" color-interpolation-filters="sRGB">
<feFlood flood-opacity="0" result="BackgroundImageFix"/>
<feBlend mode="normal" in="SourceGraphic" in2="BackgroundImageFix" result="shape"/>
<feGaussianBlur stdDeviation="2.87282" result="effect1_foregroundBlur_734_3504"/>
</filter>
<filter id="filter1_f_734_3504" x="188.348" y="117.861" width="65.6954" height="65.7725" filterUnits="userSpaceOnUse" color-interpolation-filters="sRGB">
<feFlood flood-opacity="0" result="BackgroundImageFix"/>
<feBlend mode="normal" in="SourceGraphic" in2="BackgroundImageFix" result="shape"/>
<feGaussianBlur stdDeviation="2.87282" result="effect1_foregroundBlur_734_3504"/>
</filter>
</defs>
</svg>