<svg width="163" height="24" viewBox="0 0 163 24" fill="none" xmlns="http://www.w3.org/2000/svg">
<path d="M2.64811 23.9382C1.78811 23.9382 1.13184 23.7116 0.679177 23.2597C0.226513 22.8066 0.000244141 22.1711 0.000244141 21.3519V3.15271C0.000244141 2.33379 0.226513 1.69802 0.679177 1.24552C1.13184 0.792894 1.78811 0.566702 2.64811 0.566702C3.48544 0.566702 4.13044 0.792894 4.5831 1.24552C5.03576 1.69802 5.26204 2.33379 5.26204 3.15271V10.0057H16.3968V3.15271C16.3968 2.33379 16.6231 1.69802 17.0757 1.24552C17.5284 0.792894 18.1734 0.566702 19.0107 0.566702C19.8707 0.566702 20.527 0.792894 20.9797 1.24552C21.4323 1.69802 21.6586 2.33379 21.6586 3.15271V21.3519C21.6586 22.1711 21.4323 22.8066 20.9797 23.2597C20.527 23.7116 19.8707 23.9382 19.0107 23.9382C18.1734 23.9382 17.5284 23.7116 17.0757 23.2597C16.6231 22.8066 16.3968 22.1711 16.3968 21.3519V14.1758H5.26204V21.3519C5.26204 22.1711 5.03576 22.8066 4.5831 23.2597C4.1531 23.7116 3.50811 23.9382 2.64811 23.9382ZM29.2382 23.6473C28.3555 23.6473 27.6766 23.4207 27.2014 22.9688C26.7261 22.5157 26.4884 21.8694 26.4884 21.0288V3.47596C26.4884 2.63546 26.7261 1.98896 27.2014 1.53645C27.6766 1.08383 28.3555 0.857517 29.2382 0.857517H41.0858C41.7648 0.857517 42.274 1.02993 42.6135 1.37477C42.9755 1.69802 43.1566 2.17211 43.1566 2.79715C43.1566 3.44365 42.9755 3.93931 42.6135 4.28414C42.274 4.60739 41.7648 4.76896 41.0858 4.76896H31.5126V10.1028H40.305C41.0066 10.1028 41.5271 10.2752 41.8666 10.6199C42.2287 10.9432 42.4098 11.4281 42.4098 12.0746C42.4098 12.7211 42.2287 13.2168 41.8666 13.5616C41.5271 13.8849 41.0066 14.0465 40.305 14.0465H31.5126V19.7358H41.0858C41.7648 19.7358 42.274 19.9082 42.6135 20.2531C42.9755 20.5763 43.1566 21.0504 43.1566 21.6751C43.1566 22.3213 42.9755 22.8174 42.6135 23.162C42.274 23.4851 41.7648 23.6473 41.0858 23.6473H29.2382ZM49.7244 23.6473C48.8644 23.6473 48.1967 23.4207 47.7215 22.9688C47.2688 22.5157 47.0424 21.8909 47.0424 21.0936V3.3467C47.0424 2.5062 47.2688 1.87043 47.7215 1.43939C48.1741 1.00847 48.8304 0.792891 49.6904 0.792891C50.5278 0.792891 51.1728 1.00847 51.6254 1.43939C52.078 1.87043 52.3044 2.5062 52.3044 3.3467V19.4126H61.4022C62.1265 19.4126 62.681 19.5957 63.0656 19.9621C63.4731 20.3284 63.6767 20.8457 63.6767 21.5141C63.6767 22.2033 63.4731 22.7315 63.0656 23.0976C62.681 23.4636 62.1265 23.6473 61.4022 23.6473H49.7244ZM69.1505 23.9382C68.2905 23.9382 67.6342 23.7116 67.1815 23.2597C66.7289 22.8066 66.5026 22.1711 66.5026 21.3519V3.41133C66.5026 2.57083 66.7289 1.93506 67.1815 1.50414C67.6567 1.0731 68.3244 0.857517 69.1844 0.857517H77.4336C80.1042 0.857517 82.1636 1.50414 83.612 2.79715C85.0604 4.06857 85.7847 5.84651 85.7847 8.13085C85.7847 10.4152 85.0604 12.204 83.612 13.497C82.1636 14.79 80.1042 15.4365 77.4336 15.4365H71.7644V21.3519C71.7644 22.1711 71.5381 22.8066 71.0855 23.2597C70.6555 23.7116 70.0105 23.9382 69.1505 23.9382ZM71.7644 11.5574H76.551C77.9089 11.5574 78.9386 11.2665 79.6402 10.6847C80.3644 10.1028 80.7265 9.25155 80.7265 8.13085C80.7265 7.01026 80.3644 6.16976 79.6402 5.60947C78.9386 5.04917 77.9089 4.76896 76.551 4.76896H71.7644V11.5574ZM97.6004 24.0026C96.6499 24.0026 95.6768 23.9275 94.6809 23.776C93.7079 23.6473 92.7686 23.4529 91.8634 23.1942C90.9808 22.9366 90.1886 22.6123 89.487 22.2248C88.9892 21.966 88.6384 21.6322 88.4347 21.2228C88.231 20.7918 88.1518 20.3608 88.197 19.9298C88.2649 19.4988 88.4347 19.1216 88.7063 18.7984C89.0004 18.4535 89.3626 18.2381 89.7926 18.1519C90.2452 18.0441 90.7431 18.1196 91.2863 18.3782C92.2141 18.8738 93.2213 19.2401 94.3075 19.4772C95.4165 19.7142 96.5141 19.8329 97.6004 19.8329C99.252 19.8329 100.429 19.5957 101.132 19.1216C101.833 18.6259 102.183 18.0118 102.183 17.2791C102.183 16.6541 101.934 16.1585 101.437 15.792C100.939 15.4258 100.067 15.1132 98.8225 14.8546L94.9865 14.0789C92.8139 13.6478 91.1958 12.9151 90.132 11.8807C89.091 10.8246 88.5704 9.44543 88.5704 7.74297C88.5704 6.66543 88.8081 5.68494 89.2834 4.80128C89.7586 3.91773 90.4263 3.15271 91.2863 2.50621C92.1463 1.85971 93.1647 1.36404 94.3415 1.0192C95.5409 0.674371 96.8536 0.501953 98.2791 0.501953C99.5463 0.501953 100.791 0.65279 102.013 0.954579C103.235 1.23467 104.311 1.65498 105.239 2.21527C105.691 2.47389 105.996 2.80788 106.155 3.21733C106.336 3.60521 106.393 4.00394 106.324 4.4134C106.279 4.80128 106.11 5.14611 105.816 5.44778C105.544 5.74957 105.194 5.94345 104.763 6.02965C104.333 6.11586 103.812 6.01892 103.201 5.73872C102.455 5.37242 101.662 5.10307 100.826 4.93065C99.9883 4.75823 99.1281 4.67203 98.2453 4.67203C97.2949 4.67203 96.4802 4.79055 95.8013 5.02759C95.1449 5.26463 94.6357 5.59873 94.2736 6.02965C93.9341 6.4607 93.7645 6.95636 93.7645 7.51666C93.7645 8.1417 94.002 8.6481 94.4773 9.03597C94.9525 9.42385 95.7786 9.73637 96.9555 9.97341L100.791 10.7493C103.01 11.2018 104.661 11.9345 105.748 12.9474C106.834 13.9387 107.377 15.2533 107.377 16.8912C107.377 17.9687 107.151 18.9492 106.699 19.8329C106.245 20.6948 105.589 21.4378 104.729 22.0638C103.869 22.6886 102.84 23.1727 101.64 23.5185C100.44 23.8416 99.0943 24.0026 97.6004 24.0026ZM119.326 23.9382C118.466 23.9382 117.809 23.7116 117.357 23.2597C116.904 22.8066 116.679 22.1711 116.679 21.3519V4.99528H110.669C109.968 4.99528 109.425 4.81213 109.04 4.44571C108.655 4.07942 108.463 3.5729 108.463 2.9264C108.463 2.25831 108.655 1.75191 109.04 1.40708C109.425 1.04078 109.968 0.857517 110.669 0.857517H127.948C128.651 0.857517 129.193 1.04078 129.579 1.40708C129.963 1.75191 130.155 2.25831 130.155 2.9264C130.155 3.5729 129.963 4.07942 129.579 4.44571C129.193 4.81213 128.651 4.99528 127.948 4.99528H121.94V21.3519C121.94 22.1711 121.714 22.8066 121.26 23.2597C120.831 23.7116 120.186 23.9382 119.326 23.9382ZM145.514 23.9382C144.654 23.9382 143.997 23.7116 143.544 23.2597C143.092 22.8066 142.866 22.1711 142.866 21.3519V3.41133C142.866 2.57083 143.092 1.93506 143.544 1.50414C144.02 1.0731 144.687 0.857517 145.548 0.857517H153.797C156.467 0.857517 158.527 1.4717 159.975 2.7002C161.423 3.92858 162.148 5.64178 162.148 7.83991C162.148 9.26229 161.82 10.4907 161.164 11.525C160.506 12.5595 159.556 13.3569 158.311 13.9172C157.089 14.4775 155.584 14.7577 153.797 14.7577L154.069 14.2081H155.46C156.41 14.2081 157.237 14.4344 157.938 14.8869C158.662 15.318 159.284 15.986 159.805 16.8912L161.91 20.6086C162.227 21.1473 162.374 21.6751 162.351 22.1926C162.328 22.7101 162.125 23.1298 161.74 23.4529C161.355 23.776 160.789 23.9382 160.043 23.9382C159.297 23.9382 158.686 23.7868 158.21 23.4851C157.758 23.1834 157.349 22.7208 156.988 22.096L153.728 16.3739C153.389 15.7706 152.971 15.3611 152.472 15.1455C151.998 14.9301 151.409 14.8223 150.708 14.8223H148.127V21.3519C148.127 22.1711 147.901 22.8066 147.449 23.2597C147.019 23.7116 146.373 23.9382 145.514 23.9382ZM148.127 11.2018H152.847C154.249 11.2018 155.302 10.9324 156.003 10.3937C156.727 9.85489 157.089 9.04682 157.089 7.96928C157.089 6.91331 156.727 6.11586 156.003 5.57715C155.302 5.03832 154.249 4.76896 152.847 4.76896H148.127V11.2018Z" fill="#0E0E0E"/>
<path d="M135.246 23.9241C134.408 23.9241 133.763 23.6976 133.31 23.2456C132.88 22.7711 132.665 22.1141 132.665 21.2732V10.2178C132.665 9.35586 132.88 8.69851 133.31 8.24601C133.763 7.7718 134.408 7.53476 135.246 7.53476C136.059 7.53476 136.682 7.7718 137.113 8.24601C137.565 8.69851 137.791 9.35586 137.791 10.2178V21.2732C137.791 22.1141 137.576 22.7711 137.146 23.2456C136.716 23.6976 136.082 23.9241 135.246 23.9241ZM135.246 4.88412C134.294 4.88412 133.559 4.67939 133.038 4.26993C132.541 3.83889 132.292 3.23544 132.292 2.45969C132.292 1.66223 132.541 1.05889 133.038 0.649432C133.559 0.21839 134.294 0.00292969 135.246 0.00292969C136.196 0.00292969 136.92 0.21839 137.418 0.649432C137.915 1.05889 138.164 1.66223 138.164 2.45969C138.164 3.23544 137.915 3.83889 137.418 4.26993C136.92 4.67939 136.196 4.88412 135.246 4.88412Z" fill="#0080FF"/>
</svg>
