<svg width="136" height="20" viewBox="0 0 136 20" fill="none" xmlns="http://www.w3.org/2000/svg">
<path d="M2.20704 19.9499C1.49038 19.9499 0.943485 19.7611 0.566265 19.3845C0.189046 19.0069 0.000488281 18.4773 0.000488281 17.7947V2.62864C0.000488281 1.94621 0.189046 1.4164 0.566265 1.03931C0.943485 0.662128 1.49038 0.473635 2.20704 0.473635C2.90482 0.473635 3.44232 0.662128 3.81954 1.03931C4.19676 1.4164 4.38532 1.94621 4.38532 2.62864V8.33949H13.6643V2.62864C13.6643 1.94621 13.8529 1.4164 14.2301 1.03931C14.6073 0.662128 15.1448 0.473635 15.8426 0.473635C16.5592 0.473635 17.1061 0.662128 17.4833 1.03931C17.8606 1.4164 18.0491 1.94621 18.0491 2.62864V17.7947C18.0491 18.4773 17.8606 19.0069 17.4833 19.3845C17.1061 19.7611 16.5592 19.9499 15.8426 19.9499C15.1448 19.9499 14.6073 19.7611 14.2301 19.3845C13.8529 19.0069 13.6643 18.4773 13.6643 17.7947V11.8145H4.38532V17.7947C4.38532 18.4773 4.19676 19.0069 3.81954 19.3845C3.4612 19.7611 2.92371 19.9499 2.20704 19.9499ZM24.3654 19.7074C23.6299 19.7074 23.0641 19.5186 22.6681 19.142C22.272 18.7645 22.0739 18.2259 22.0739 17.5254V2.89802C22.0739 2.1976 22.272 1.65885 22.6681 1.28176C23.0641 0.904577 23.6299 0.715981 24.3654 0.715981H34.2385C34.8042 0.715981 35.2286 0.859662 35.5115 1.14702C35.8132 1.4164 35.9641 1.81147 35.9641 2.33234C35.9641 2.87109 35.8132 3.28414 35.5115 3.5715C35.2286 3.84088 34.8042 3.97552 34.2385 3.97552H26.2608V8.42037H33.5878C34.1724 8.42037 34.6062 8.56405 34.8891 8.85131C35.1909 9.12069 35.3417 9.5248 35.3417 10.0635C35.3417 10.6023 35.1909 11.0154 34.8891 11.3027C34.6062 11.5721 34.1724 11.7068 33.5878 11.7068H26.2608V16.4479H34.2385C34.8042 16.4479 35.2286 16.5916 35.5115 16.8789C35.8132 17.1483 35.9641 17.5434 35.9641 18.0639C35.9641 18.6025 35.8132 19.0159 35.5115 19.303C35.2286 19.5723 34.8042 19.7074 34.2385 19.7074H24.3654ZM41.4373 19.7074C40.7206 19.7074 40.1642 19.5186 39.7682 19.142C39.391 18.7645 39.2023 18.2438 39.2023 17.5793V2.7903C39.2023 2.08988 39.391 1.56008 39.7682 1.20088C40.1453 0.841776 40.6923 0.662126 41.409 0.662126C42.1068 0.662126 42.6443 0.841776 43.0215 1.20088C43.3986 1.56008 43.5873 2.08988 43.5873 2.7903V16.1785H51.1688C51.7724 16.1785 52.2344 16.3311 52.555 16.6365C52.8945 16.9417 53.0642 17.3728 53.0642 17.9298C53.0642 18.5041 52.8945 18.9443 52.555 19.2494C52.2344 19.5544 51.7724 19.7074 51.1688 19.7074H41.4373ZM57.6257 19.9499C56.909 19.9499 56.3621 19.7611 55.9849 19.3845C55.6077 19.0069 55.4191 18.4773 55.4191 17.7947V2.84416C55.4191 2.14375 55.6077 1.61394 55.9849 1.25484C56.3809 0.895634 56.9373 0.715981 57.654 0.715981H64.5283C66.7538 0.715981 68.47 1.25483 69.677 2.33234C70.884 3.39186 71.4875 4.87347 71.4875 6.77709C71.4875 8.68071 70.884 10.1714 69.677 11.2489C68.47 12.3264 66.7538 12.8651 64.5283 12.8651H59.804V17.7947C59.804 18.4773 59.6154 19.0069 59.2382 19.3845C58.8798 19.7611 58.3423 19.9499 57.6257 19.9499ZM59.804 9.63251H63.7928C64.9243 9.63251 65.7825 9.39016 66.3672 8.90526C66.9706 8.42037 67.2724 7.71101 67.2724 6.77709C67.2724 5.84327 66.9706 5.14285 66.3672 4.67594C65.7825 4.20903 64.9243 3.97552 63.7928 3.97552H59.804V9.63251ZM81.334 20.0035C80.5419 20.0035 79.731 19.9409 78.9011 19.8147C78.0902 19.7074 77.3075 19.5455 76.5531 19.3298C75.8176 19.1152 75.1575 18.8449 74.5728 18.522C74.1579 18.3064 73.8656 18.0282 73.6959 17.6871C73.5261 17.3279 73.4601 16.9688 73.4978 16.6096C73.5544 16.2504 73.6959 15.9361 73.9222 15.6667C74.1673 15.3793 74.4691 15.1998 74.8274 15.1279C75.2046 15.0381 75.6195 15.101 76.0722 15.3165C76.8454 15.7296 77.6847 16.0348 78.5899 16.2324C79.514 16.4299 80.4287 16.5288 81.334 16.5288C82.7103 16.5288 83.6912 16.3311 84.2766 15.9361C84.8609 15.523 85.1531 15.0112 85.1531 14.4006C85.1531 13.8798 84.9455 13.4668 84.5312 13.1614C84.1159 12.8562 83.3896 12.5957 82.3524 12.3802L79.1557 11.7338C77.3452 11.3746 75.9967 10.764 75.1103 9.90199C74.2428 9.02192 73.809 7.87258 73.809 6.45386C73.809 5.55591 74.007 4.73883 74.4031 4.00245C74.7991 3.26616 75.3555 2.62864 76.0722 2.08989C76.7889 1.55114 77.6375 1.13808 78.6182 0.85072C79.6177 0.563359 80.7116 0.419678 81.8995 0.419678C82.9555 0.419678 83.9928 0.545375 85.0112 0.796866C86.0296 1.03027 86.926 1.38053 87.6992 1.84744C88.0759 2.06296 88.3305 2.34128 88.4631 2.6825C88.6133 3.00573 88.6613 3.338 88.6039 3.67922C88.5664 4.00245 88.4255 4.28981 88.1803 4.5412C87.9538 4.79269 87.6617 4.95426 87.3027 5.0261C86.9448 5.09794 86.5107 5.01715 86.0015 4.78365C85.3795 4.4784 84.719 4.25394 84.022 4.11026C83.3239 3.96658 82.607 3.89474 81.8714 3.89474C81.0794 3.89474 80.4005 3.99351 79.8347 4.19104C79.2877 4.38858 78.8634 4.66699 78.5616 5.0261C78.2787 5.3853 78.1374 5.79835 78.1374 6.26526C78.1374 6.78613 78.3353 7.20813 78.7314 7.53136C79.1274 7.85459 79.8158 8.11503 80.7966 8.31256L83.9928 8.95912C85.8418 9.33621 87.2182 9.9468 88.1239 10.7909C89.0286 11.617 89.4815 12.7125 89.4815 14.0774C89.4815 14.9753 89.2926 15.7924 88.9159 16.5288C88.5382 17.2471 87.9914 17.8662 87.2745 18.3879C86.5576 18.9085 85.6999 19.312 84.7002 19.6001C83.7006 19.8694 82.5788 20.0035 81.334 20.0035ZM99.4384 19.9499C98.7215 19.9499 98.1748 19.7611 97.7981 19.3845C97.4203 19.0069 97.2325 18.4773 97.2325 17.7947V4.16411H92.2248C91.6405 4.16411 91.1876 4.01149 90.8672 3.70614C90.5458 3.4009 90.3862 2.9788 90.3862 2.44005C90.3862 1.88331 90.5458 1.46131 90.8672 1.17395C91.1876 0.868704 91.6405 0.715981 92.2248 0.715981H106.624C107.209 0.715981 107.661 0.868704 107.982 1.17395C108.303 1.46131 108.462 1.88331 108.462 2.44005C108.462 2.9788 108.303 3.4009 107.982 3.70614C107.661 4.01149 107.209 4.16411 106.624 4.16411H101.617V17.7947C101.617 18.4773 101.428 19.0069 101.051 19.3845C100.693 19.7611 100.155 19.9499 99.4384 19.9499ZM121.262 19.9499C120.545 19.9499 119.998 19.7611 119.62 19.3845C119.244 19.0069 119.055 18.4773 119.055 17.7947V2.84416C119.055 2.14375 119.244 1.61394 119.62 1.25484C120.017 0.895634 120.573 0.715981 121.29 0.715981H128.165C130.389 0.715981 132.106 1.2278 133.313 2.25155C134.519 3.2752 135.124 4.70287 135.124 6.53464C135.124 7.71995 134.85 8.7436 134.303 9.60559C133.755 10.4677 132.964 11.1321 131.926 11.599C130.908 12.0659 129.654 12.2994 128.165 12.2994L128.391 11.8415H129.55C130.342 11.8415 131.031 12.0301 131.615 12.4072C132.218 12.7664 132.737 13.3231 133.171 14.0774L134.925 17.1752C135.189 17.6242 135.312 18.0639 135.293 18.4952C135.274 18.9264 135.105 19.2762 134.783 19.5455C134.463 19.8147 133.991 19.9499 133.369 19.9499C132.747 19.9499 132.238 19.8237 131.842 19.5723C131.465 19.3209 131.125 18.9354 130.823 18.4147L128.107 13.6463C127.824 13.1435 127.476 12.8023 127.061 12.6227C126.665 12.4431 126.175 12.3533 125.59 12.3533H123.44V17.7947C123.44 18.4773 123.251 19.0069 122.874 19.3845C122.516 19.7611 121.978 19.9499 121.262 19.9499ZM123.44 9.33621H127.373C128.541 9.33621 129.419 9.11174 130.003 8.66282C130.606 8.21379 130.908 7.5404 130.908 6.64245C130.908 5.76248 130.606 5.09794 130.003 4.64901C129.419 4.19998 128.541 3.97552 127.373 3.97552H123.44V9.33621Z" fill="white"/>
<path d="M112.705 19.9382C112.007 19.9382 111.469 19.7494 111.092 19.3728C110.734 18.9774 110.554 18.4299 110.554 17.7292V8.51632C110.554 7.79802 110.734 7.25022 111.092 6.87314C111.469 6.47797 112.007 6.28043 112.705 6.28043C113.383 6.28043 113.902 6.47797 114.261 6.87314C114.637 7.25022 114.826 7.79802 114.826 8.51632V17.7292C114.826 18.4299 114.647 18.9774 114.289 19.3728C113.93 19.7494 113.402 19.9382 112.705 19.9382ZM112.705 4.07157C111.912 4.07157 111.299 3.90096 110.865 3.55974C110.451 3.20054 110.243 2.69767 110.243 2.0512C110.243 1.38666 110.451 0.883874 110.865 0.542658C111.299 0.183457 111.912 0.00390625 112.705 0.00390625C113.497 0.00390625 114.1 0.183457 114.515 0.542658C114.929 0.883874 115.137 1.38666 115.137 2.0512C115.137 2.69767 114.929 3.20054 114.515 3.55974C114.1 3.90096 113.497 4.07157 112.705 4.07157Z" fill="#0080FF"/>
</svg>
