<svg width="143" height="251" viewBox="0 0 143 251" fill="none" xmlns="http://www.w3.org/2000/svg">
<path opacity="0.04" d="M63.0468 190.098V181.649C63.0468 173.435 64.1035 165.573 66.2168 158.063C68.3301 150.553 71.6174 142.926 76.0788 135.181C80.775 127.201 87.1149 118.635 95.0985 109.482C101.438 101.738 106.487 94.9317 110.244 89.0645C114.001 83.1973 116.701 77.5648 118.345 72.1669C119.989 66.5344 120.81 60.7845 120.81 54.9172C120.81 47.6419 119.049 41.4226 115.527 36.2595C112.005 31.0963 107.074 27.1066 100.734 24.2903C94.3941 21.2394 86.7627 19.7139 77.8399 19.7139C64.2209 19.7139 51.7759 22.1781 40.5049 27.1066C29.234 32.0351 18.6675 39.4278 8.80542 49.2847L0 31.683C5.87028 25.3464 12.9146 19.8312 21.133 15.1375C29.3514 10.4437 38.2742 6.80599 47.9015 4.22441C57.7635 1.40814 67.8604 0 78.1921 0C91.1067 0 102.378 2.22955 112.005 6.68866C121.867 11.1477 129.498 17.4843 134.899 25.6985C140.3 33.6779 143 43.0655 143 53.8612C143 61.3712 141.943 68.5292 139.83 75.3352C137.717 81.9065 134.312 88.8298 129.616 96.1052C125.154 103.146 118.814 111.125 110.596 120.043C103.317 128.258 97.3292 135.885 92.633 142.926C88.1716 149.732 84.7668 156.303 82.4187 162.64C80.3054 168.741 78.8966 175.195 78.1921 182.001L77.4877 190.098H63.0468ZM55.298 251V220.725H85.2365V251H55.298Z" fill="#070D13"/>
</svg>
