<svg width="138" height="168" viewBox="0 0 138 168" fill="none" xmlns="http://www.w3.org/2000/svg">
<path d="M135.667 35.3992C135.651 35.3992 135.632 35.3966 135.611 35.3913C135.515 35.3594 135.467 35.2556 135.499 35.1599L135.946 33.8435C135.978 33.7478 136.081 33.6919 136.177 33.7239C136.265 33.7558 136.321 33.8595 136.289 33.9552L135.842 35.2796C135.818 35.3514 135.746 35.3992 135.667 35.3992Z" fill="#070D13"/>
<path d="M134.63 38.486C134.608 38.486 134.59 38.4834 134.574 38.478C134.478 38.4461 134.43 38.3424 134.462 38.2467L134.909 36.9223C134.941 36.8266 135.036 36.7787 135.132 36.8106C135.228 36.8425 135.276 36.9463 135.244 37.042L134.797 38.3584C134.773 38.4381 134.701 38.486 134.63 38.486Z" fill="#070D13"/>
<path d="M134.494 35.9806C134.473 35.9806 134.454 35.978 134.438 35.9727L133.114 35.5259C133.018 35.494 132.97 35.3903 133.002 35.3025C133.034 35.2068 133.13 35.1509 133.225 35.1828L134.55 35.6296C134.646 35.6615 134.693 35.7652 134.661 35.861C134.638 35.9328 134.566 35.9806 134.494 35.9806Z" fill="#070D13"/>
<path d="M137.573 37.0284C137.557 37.0284 137.539 37.0257 137.517 37.0204L136.193 36.5736C136.105 36.5417 136.049 36.438 136.081 36.3422C136.113 36.2465 136.217 36.1986 136.313 36.2305L137.637 36.6773C137.733 36.7092 137.781 36.8129 137.749 36.9007C137.725 36.9805 137.653 37.0284 137.573 37.0284Z" fill="#070D13"/>
<path d="M5.95971 31.5385C5.86398 31.5385 5.79218 31.4667 5.77622 31.3789L5.6007 29.9907C5.59273 29.895 5.66453 29.8072 5.76026 29.7913C5.86398 29.7753 5.95174 29.8471 5.95971 29.9508L6.13523 31.331C6.15119 31.4348 6.07939 31.5225 5.97567 31.5385C5.97035 31.5385 5.96503 31.5385 5.95971 31.5385Z" fill="#070D13"/>
<path d="M6.36645 34.7689C6.27072 34.7689 6.19891 34.6971 6.18296 34.6094L6.00744 33.2212C5.99946 33.1255 6.07127 33.0297 6.167 33.0218C6.26274 33.0058 6.35848 33.0776 6.36645 33.1733L6.54197 34.5615C6.55792 34.6652 6.48612 34.753 6.38241 34.761C6.37709 34.7663 6.37177 34.7689 6.36645 34.7689Z" fill="#070D13"/>
<path d="M3.76563 32.7516C3.67788 32.7516 3.59809 32.6798 3.59012 32.592C3.57416 32.4963 3.64597 32.4006 3.7417 32.3926L5.12988 32.2171C5.22562 32.2011 5.32135 32.2729 5.32933 32.3687C5.34529 32.4724 5.27348 32.5601 5.17775 32.5761L3.78957 32.7516C3.77893 32.7516 3.77095 32.7516 3.76563 32.7516Z" fill="#070D13"/>
<path d="M6.9966 32.3434C6.90884 32.3434 6.82906 32.2716 6.81311 32.1838C6.80513 32.0881 6.87693 31.9924 6.97267 31.9844L8.36084 31.8089C8.45658 31.7929 8.54434 31.8647 8.56029 31.9604C8.56827 32.0642 8.50445 32.1519 8.40073 32.1679L7.02053 32.3434C7.0099 32.3434 7.00192 32.3434 6.9966 32.3434Z" fill="#070D13"/>
<path fill-rule="evenodd" clip-rule="evenodd" d="M11.7354 28.0834C11.488 28.0834 11.2407 28.0355 11.0014 27.9477C10.4828 27.7483 10.0759 27.3494 9.85254 26.8308C9.39779 25.7777 9.86849 24.5491 10.9056 24.0784C11.4003 23.855 11.9587 23.847 12.4614 24.0385C12.9799 24.2459 13.3868 24.6368 13.6102 25.1554C14.0649 26.2085 13.5942 27.4451 12.5571 27.9078C12.2938 28.0275 12.0146 28.0834 11.7354 28.0834ZM11.7354 24.2619C11.504 24.2619 11.2726 24.3097 11.0492 24.4135C10.1956 24.7964 9.80467 25.8176 10.1876 26.6952C10.3711 27.118 10.7062 27.4451 11.129 27.6126C11.5519 27.7722 12.0066 27.7642 12.4135 27.5807C13.2671 27.1898 13.6581 26.1686 13.2831 25.299C13.0996 24.8682 12.7565 24.5411 12.3337 24.3736C12.1422 24.3018 11.9348 24.2619 11.7354 24.2619Z" fill="#070D13"/>
<path fill-rule="evenodd" clip-rule="evenodd" d="M124.29 18.9986C124.042 18.9986 123.795 18.9508 123.556 18.855C123.037 18.6556 122.63 18.2646 122.407 17.7461C121.952 16.693 122.423 15.4564 123.46 14.9937C123.954 14.7703 124.513 14.7543 125.024 14.9538C125.534 15.1532 125.941 15.5521 126.164 16.0627C126.619 17.1158 126.148 18.3524 125.119 18.8151C124.848 18.9348 124.569 18.9986 124.29 18.9986ZM124.29 15.1771C124.058 15.1771 123.827 15.225 123.611 15.3208C122.75 15.7037 122.367 16.7329 122.742 17.6025C122.925 18.0333 123.26 18.3524 123.691 18.5199C124.106 18.6875 124.561 18.6715 124.968 18.488C125.821 18.1051 126.212 17.0839 125.837 16.2063C125.654 15.7835 125.319 15.4564 124.888 15.2888C124.696 15.2091 124.489 15.1771 124.29 15.1771Z" fill="#070D13"/>
<path fill-rule="evenodd" clip-rule="evenodd" d="M104.967 9.64616C104.962 9.64616 104.959 9.64616 104.959 9.64616C103.906 9.5983 102.861 9.4866 102.853 9.47862C102.781 9.47065 102.725 9.43076 102.701 9.36693C102.677 9.29513 102.693 9.22333 102.741 9.17546L103.978 7.92291C104.018 7.88302 104.074 7.86706 104.129 7.87504C104.185 7.87504 104.233 7.90695 104.265 7.95482L105.119 9.37491C105.159 9.43076 105.159 9.50256 105.119 9.5584C105.087 9.61425 105.031 9.64616 104.967 9.64616ZM103.268 9.1595C103.595 9.19142 104.098 9.23131 104.632 9.26322L104.074 8.34575L103.268 9.1595Z" fill="#070D13"/>
<path d="M101.896 8.23357C101.88 8.23357 101.861 8.23091 101.84 8.22559C99.4145 7.39588 96.8775 6.66988 94.2846 6.07153C79.5013 2.65693 63.0905 3.40686 48.0678 8.17773C47.9721 8.20964 47.8764 8.15379 47.8445 8.05806C47.8126 7.96232 47.8684 7.86658 47.9641 7.83467C63.0426 3.04785 79.5252 2.29792 94.3724 5.72049C96.9652 6.32682 99.5182 7.05282 101.959 7.89052C102.047 7.92243 102.103 8.01817 102.071 8.1139C102.047 8.19368 101.975 8.23357 101.896 8.23357Z" fill="#070D13"/>
<path d="M119.399 12.948C119.362 12.948 119.327 12.9373 119.296 12.916C112.331 8.10529 104.105 4.60293 94.8349 2.50471C93.5664 2.2175 92.258 1.95422 90.9576 1.72286C90.8618 1.7069 90.798 1.61117 90.814 1.51543C90.8299 1.41969 90.9257 1.34789 91.0214 1.37183C92.3298 1.60319 93.6382 1.86646 94.9147 2.15367C104.225 4.26785 112.498 7.78617 119.503 12.6129C119.583 12.6687 119.607 12.7884 119.543 12.8682C119.511 12.916 119.455 12.948 119.399 12.948Z" fill="#070D13"/>
<path d="M54.0908 2.79325C54.011 2.79325 53.9392 2.73741 53.9153 2.64965C53.8993 2.55391 53.9552 2.45818 54.0509 2.43424C63.6325 0.232305 73.3338 -0.477741 82.8995 0.312085C82.9952 0.320063 83.067 0.407821 83.0591 0.511536C83.0511 0.607272 82.9633 0.679074 82.8676 0.671096C73.3418 -0.118729 63.6724 0.591316 54.1307 2.78528C54.1201 2.79059 54.1068 2.79325 54.0908 2.79325Z" fill="#070D13"/>
<path d="M33.6274 10.1314C33.5635 10.1314 33.5077 10.0995 33.4678 10.0436C33.4199 9.95588 33.4518 9.84418 33.5316 9.79632C38.0711 7.14761 43.8552 5.05736 49.8308 3.91651C49.9265 3.90055 50.0222 3.96437 50.0382 4.06011C50.0541 4.16382 49.9903 4.25158 49.8946 4.27552C43.9589 5.40042 38.2147 7.47471 33.7151 10.1075C33.6885 10.1234 33.6593 10.1314 33.6274 10.1314Z" fill="#070D13"/>
<path d="M21.7487 52.2662C27.3413 46.2268 35.0002 42.9079 43.3213 42.9239C49.5361 42.9398 55.2325 44.9184 60.2347 48.8117C62.7637 50.7743 65.0534 53.1757 67.0639 55.9839C69.0903 53.1916 71.388 50.7982 73.925 48.8436C78.9432 44.9742 84.6475 43.0196 90.8624 43.0356C99.1835 43.0515 106.834 46.4023 112.395 52.4656C117.9 58.4651 120.916 66.6426 120.9 75.5062C120.876 84.6251 117.469 92.9621 110.161 101.746C103.619 109.612 94.2291 117.582 83.363 126.821C79.6452 129.972 75.4408 133.546 71.0689 137.352C69.912 138.357 68.4361 138.916 66.8964 138.908C65.3646 138.908 63.8886 138.349 62.7398 137.336C58.3838 133.506 54.1873 129.916 50.4855 126.741C39.6514 117.463 30.2931 109.445 23.791 101.554C16.5151 92.7387 13.1404 84.3857 13.1563 75.2668C13.1723 66.4032 16.2279 58.2417 21.7487 52.2662Z" fill="white"/>
<path d="M21.7487 52.2662C27.3413 46.2268 35.0002 42.9079 43.3213 42.9239C49.5361 42.9398 55.2325 44.9184 60.2347 48.8117C62.7637 50.7743 65.0534 53.1757 67.0639 55.9839C69.0903 53.1916 71.388 50.7982 73.925 48.8436C78.9432 44.9742 84.6475 43.0196 90.8624 43.0356C99.1835 43.0515 106.834 46.4023 112.395 52.4656C117.9 58.4651 120.916 66.6426 120.9 75.5062C120.876 84.6251 117.469 92.9621 110.161 101.746C103.619 109.612 94.2291 117.582 83.363 126.821C79.6452 129.972 75.4408 133.546 71.0689 137.352C69.9121 138.357 68.4361 138.916 66.8964 138.908C65.3646 138.908 63.8886 138.349 62.7398 137.336C58.3838 133.506 54.1873 129.916 50.4855 126.741C39.6514 117.463 30.2931 109.445 23.791 101.554C16.5151 92.7387 13.1404 84.3857 13.1563 75.2668C13.1723 66.4032 16.2279 58.2417 21.7487 52.2662Z" fill="white"/>
<path d="M116.049 57.5331C115.985 57.5331 115.929 57.5012 115.897 57.4453C114.844 55.6982 113.616 54.0706 112.267 52.5947C106.731 46.5633 99.1356 43.2365 90.8624 43.2125C90.8411 43.2125 90.8198 43.2125 90.7985 43.2125C84.6475 43.2125 79.007 45.1592 74.0367 48.9886C71.5236 50.9273 69.2259 53.3127 67.2155 56.0891C67.1756 56.1369 67.1277 56.1609 67.0639 56.1609C67.008 56.1609 66.9522 56.1369 66.9203 56.0891C66.5214 55.5386 66.1145 54.9961 65.6997 54.4775C65.6358 54.3977 65.6518 54.286 65.7236 54.2222C65.8034 54.1664 65.9151 54.1743 65.9789 54.2541C66.3459 54.7089 66.7129 55.1876 67.0639 55.6742C69.0664 52.9617 71.3321 50.6161 73.8133 48.7014C78.8554 44.8241 84.5677 42.8535 90.7985 42.8535C90.8198 42.8535 90.8411 42.8535 90.8624 42.8535C99.2393 42.8695 106.93 46.2442 112.531 52.3474C113.903 53.8393 115.14 55.4907 116.201 57.2618C116.256 57.3416 116.225 57.4533 116.145 57.5092C116.113 57.5251 116.081 57.5331 116.049 57.5331Z" fill="#070D13"/>
<path d="M66.9119 139.093C66.9066 139.093 66.9013 139.093 66.8959 139.093C65.3243 139.085 63.8005 138.511 62.6197 137.473C58.2956 133.668 54.1231 130.094 50.4373 126.942L50.3734 126.879C43.6081 121.087 37.2256 115.622 31.8883 110.46C31.8165 110.396 31.8165 110.276 31.8883 110.204C31.9521 110.133 32.0718 110.133 32.1436 110.204C37.465 115.358 43.8474 120.823 50.6048 126.607L50.6766 126.663C54.3545 129.822 58.527 133.397 62.8591 137.202C63.976 138.183 65.412 138.726 66.9039 138.734C66.9039 138.734 66.9066 138.734 66.9119 138.734C68.3958 138.734 69.8319 138.191 70.9488 137.218C75.3287 133.405 79.5331 129.83 83.2429 126.679C94.109 117.457 103.491 109.486 110.017 101.636C110.185 101.437 110.304 101.301 110.344 101.245C110.376 101.157 110.472 101.03 110.679 100.758C110.735 100.679 110.855 100.663 110.935 100.719C111.007 100.782 111.03 100.894 110.967 100.974C110.783 101.213 110.719 101.309 110.695 101.349C110.671 101.421 110.568 101.54 110.296 101.867C103.746 109.742 94.3563 117.72 83.4743 126.958C79.7645 130.11 75.5601 133.676 71.1881 137.489C69.9994 138.519 68.4836 139.093 66.9119 139.093Z" fill="#070D13"/>
<path d="M97.3945 67.006C96.5169 66.9581 95.4798 67.1975 93.3975 67.6682C91.5227 68.091 91.0121 68.3782 90.7807 68.8649C90.3978 69.6707 90.9642 70.66 91.1318 70.9551C92.0891 72.6305 93.8443 72.8539 95.0011 73.6198C98.7348 76.101 96.8281 80.3134 99.9315 82.9461C102.883 85.4592 105.636 82.5073 110.949 84.9007C115.122 86.7836 108.181 91.6821 111.587 92.7511C115.752 94.0516 119.837 96.5407 122.477 91.3071C123.69 88.9057 125.206 85.8182 123.299 83.353C122.406 82.1962 121.002 81.526 120.116 80.3612C119.063 78.9651 118.839 76.9706 117.475 75.8616C116.175 74.8006 114.236 74.9122 112.824 73.9948C111.42 73.0853 110.806 71.3381 109.657 70.1095C108.58 68.9606 107.008 68.2905 105.428 68.3064C104.024 68.3304 102.556 68.841 101.192 68.3144C99.8677 67.8118 98.8864 67.0858 97.3945 67.006Z" fill="#070D13"/>
<path d="M86.475 92.576C84.6959 103.466 95.4885 103.626 95.2491 104.766C95.2491 104.766 94.5391 107.966 94.3476 111.061C94.1801 113.734 83.6827 129.833 91.9958 133.376C95.0035 134.652 95.8731 132.307 102.272 132.562C108.821 132.817 110.154 135.155 113.018 134.333C119.201 132.57 112.227 119.286 111.884 111.077C111.605 104.391 119.278 98.0808 112.625 85.4596C111.611 83.5369 109.992 80.601 107.383 80.226C106.178 80.0585 103.7 80.242 98.8968 81.5583C93.6632 82.9944 92.3389 81.4706 90.0891 82.8827C87.7674 84.3427 87.3606 87.127 86.475 92.576Z" fill="white"/>
<path d="M98.0166 155.609V160.875L100.554 160.723L101.048 155.609H98.0166Z" fill="white"/>
<path fill-rule="evenodd" clip-rule="evenodd" d="M98.0163 161.058C97.9765 161.058 97.9286 161.034 97.8967 161.01C97.8568 160.97 97.8408 160.922 97.8408 160.875V155.609C97.8408 155.513 97.9206 155.434 98.0163 155.434H101.048C101.104 155.434 101.152 155.45 101.184 155.489C101.216 155.529 101.231 155.577 101.231 155.625L100.729 160.739C100.721 160.827 100.649 160.899 100.561 160.899L98.0323 161.058C98.027 161.058 98.0217 161.058 98.0163 161.058ZM98.1998 155.793V160.683L100.386 160.548L100.849 155.793H98.1998Z" fill="#070D13"/>
<path d="M100.928 167.443C99.8991 167.555 98.2157 167.627 96.2452 167.283C95.599 167.172 95.1921 166.534 95.3676 165.903C95.8622 164.148 96.8356 160.877 97.6094 159.313L98.0801 160.167L98.4551 159.266C98.5189 159.154 98.6306 159.09 98.7503 159.074L99.7236 158.986C99.931 158.962 100.17 159.162 100.202 159.369L100.849 160.167L101.215 159.218L101.91 166.238C101.965 166.837 101.535 167.379 100.928 167.443Z" fill="white"/>
<path fill-rule="evenodd" clip-rule="evenodd" d="M99.1734 167.714C98.3118 167.714 97.3065 167.65 96.2135 167.459C95.8545 167.403 95.5434 167.187 95.3439 166.884C95.1525 166.573 95.0966 166.198 95.1923 165.855C95.5992 164.411 96.6284 160.885 97.4501 159.233C97.482 159.169 97.5459 159.13 97.6097 159.13C97.6815 159.13 97.7373 159.169 97.7693 159.225L98.0565 159.752L98.2878 159.193C98.2931 159.188 98.2985 159.18 98.3038 159.169C98.3915 159.018 98.5591 158.914 98.7346 158.898L99.7079 158.802C99.9792 158.779 100.29 159.01 100.37 159.281L100.793 159.808L101.048 159.154C101.08 159.074 101.16 159.026 101.24 159.034C101.319 159.05 101.383 159.114 101.391 159.201L102.085 166.222C102.157 166.916 101.647 167.546 100.952 167.618C100.474 167.674 99.8675 167.714 99.1734 167.714ZM97.6256 159.712C96.8438 161.435 95.9184 164.61 95.5434 165.951C95.4716 166.206 95.5115 166.469 95.6471 166.693C95.7907 166.908 96.0141 167.06 96.2774 167.108C98.208 167.443 99.8595 167.379 100.913 167.259C101.407 167.211 101.774 166.757 101.726 166.254L101.112 159.983L101.016 160.231C100.992 160.286 100.937 160.334 100.873 160.342C100.809 160.35 100.745 160.326 100.705 160.278L100.067 159.481C100.046 159.454 100.032 159.427 100.027 159.401C100.011 159.281 99.8515 159.154 99.7398 159.161L98.7665 159.257C98.7107 159.257 98.6468 159.297 98.6149 159.345L98.2479 160.231C98.224 160.294 98.1602 160.342 98.0884 160.342C98.0246 160.35 97.9527 160.31 97.9208 160.254L97.6256 159.712Z" fill="#070D13"/>
<path d="M98.4874 166.515C97.7215 166.515 96.8678 166.443 96.0301 166.22C95.9344 166.196 95.8786 166.1 95.9025 166.004C95.9264 165.909 96.0222 165.853 96.1179 165.877C98.5113 166.499 101.048 165.877 101.072 165.877C101.168 165.853 101.264 165.909 101.288 166.004C101.312 166.1 101.256 166.196 101.16 166.228C101.088 166.244 99.9553 166.515 98.4874 166.515Z" fill="#070D13"/>
<path d="M99.9232 163.791H97.6096C97.5139 163.791 97.4341 163.711 97.4341 163.607C97.4341 163.511 97.5139 163.432 97.6096 163.432H99.9232C100.027 163.432 100.107 163.511 100.107 163.607C100.107 163.711 100.027 163.791 99.9232 163.791Z" fill="#070D13"/>
<path d="M116.653 152.826L117.403 159.177L119.773 159.089V152.826H116.653Z" fill="white"/>
<path fill-rule="evenodd" clip-rule="evenodd" d="M117.403 159.352C117.307 159.352 117.236 159.288 117.22 159.193L116.47 152.85C116.47 152.794 116.486 152.746 116.518 152.706C116.55 152.667 116.597 152.643 116.653 152.643H119.773C119.876 152.643 119.956 152.73 119.956 152.826V159.089C119.956 159.185 119.876 159.264 119.781 159.272L117.403 159.352ZM116.853 153.01L117.563 158.985L119.597 158.921V153.01H116.853Z" fill="#070D13"/>
<path d="M116.836 157.66C116.836 157.66 116.533 160.476 116.62 161.609C116.692 162.423 117.801 164.872 118.431 166.205C118.695 166.747 119.181 167.098 119.732 167.122C120.394 167.154 121.319 167.186 122.069 167.186C123.099 167.186 123.801 166.021 123.434 164.928C123.099 163.923 122.564 162.662 121.718 161.322C121.08 160.309 120.147 157.564 120.147 157.564H118.216L117.833 159.176L116.836 157.66Z" fill="white"/>
<path fill-rule="evenodd" clip-rule="evenodd" d="M122.07 167.361C121.312 167.361 120.379 167.329 119.724 167.305C119.11 167.273 118.56 166.883 118.272 166.276C117.618 164.896 116.517 162.463 116.445 161.625C116.35 160.484 116.645 157.756 116.653 157.636C116.661 157.564 116.717 157.5 116.796 157.484C116.868 157.468 116.948 157.492 116.988 157.556L117.754 158.721L118.041 157.524C118.057 157.445 118.129 157.389 118.216 157.389H120.147C120.227 157.389 120.291 157.437 120.315 157.508C120.331 157.532 121.248 160.245 121.87 161.226C122.596 162.383 123.187 163.612 123.61 164.872C123.817 165.486 123.721 166.165 123.346 166.683C123.035 167.114 122.572 167.361 122.07 167.361ZM116.964 158.178C116.884 159.04 116.733 160.779 116.804 161.593C116.852 162.168 117.506 163.819 118.599 166.125C118.823 166.611 119.262 166.922 119.74 166.938C120.387 166.97 121.32 167.002 122.07 167.002C122.453 167.002 122.812 166.811 123.059 166.468C123.362 166.053 123.442 165.494 123.267 164.984C122.852 163.755 122.277 162.55 121.559 161.418C120.993 160.508 120.211 158.298 120.02 157.748H118.352L118.009 159.216C117.993 159.287 117.937 159.335 117.865 159.351C117.794 159.359 117.722 159.327 117.682 159.271L116.964 158.178Z" fill="#070D13"/>
<path d="M120.594 166.16C119.757 166.16 118.999 165.673 118.608 164.899C117.746 163.152 117.579 162.865 117.547 162.817C117.483 162.753 117.475 162.649 117.539 162.578C117.603 162.506 117.714 162.49 117.786 162.554C117.834 162.594 117.898 162.641 118.935 164.732C119.262 165.394 119.892 165.801 120.594 165.801H122.796C122.9 165.801 122.98 165.88 122.98 165.976C122.98 166.08 122.9 166.16 122.796 166.16H120.594Z" fill="#070D13"/>
<path d="M121.783 163.869H119.661C119.565 163.869 119.485 163.781 119.485 163.685C119.485 163.582 119.565 163.502 119.661 163.502H121.783C121.879 163.502 121.959 163.582 121.959 163.685C121.959 163.781 121.879 163.869 121.783 163.869Z" fill="#070D13"/>
<path d="M93.9478 102.98C93.9478 102.98 94.2031 122.351 95.0168 134.964C95.8306 147.578 97.4342 157.215 97.4342 157.215C97.4342 157.215 100.195 158.212 102.014 157.686C102.014 157.686 103.513 146.628 103.856 142.886C104.2 139.145 103.29 137.294 103.21 134.23C103.138 131.175 104.535 117.66 104.535 117.66C104.535 117.66 114.946 148.208 116.143 154.957C116.143 154.957 118.664 155.38 120.443 154.407C120.443 154.407 120.491 142.4 120.243 140.541C119.773 137.102 117.092 133.72 116.605 130.066C116.127 126.412 115.847 117.245 114.515 111.748C113.191 106.251 110.582 100.068 110.582 100.068L93.9478 102.98Z" fill="#070D13"/>
<path d="M111.691 110.162C111.67 110.162 111.648 110.156 111.627 110.146C108.085 108.702 107.064 105.335 107.024 105.191C107 105.096 107.048 104.992 107.143 104.968C107.239 104.936 107.343 104.992 107.367 105.088C107.383 105.12 108.388 108.43 111.763 109.819C111.85 109.851 111.898 109.962 111.858 110.05C111.834 110.122 111.763 110.162 111.691 110.162Z" fill="white"/>
<path d="M114.842 119.192C114.746 119.192 114.675 119.12 114.659 119.032C113.47 109.89 109.912 103.786 109.872 103.731C109.824 103.643 109.848 103.531 109.936 103.483C110.023 103.435 110.135 103.459 110.183 103.547C110.215 103.603 113.821 109.77 115.018 118.985C115.034 119.08 114.962 119.176 114.858 119.184C114.853 119.189 114.848 119.192 114.842 119.192Z" fill="white"/>
<path d="M74.2181 76.2064L72.1358 74.0443C71.7848 73.6774 71.1944 74.0922 71.4178 74.547L72.056 75.8713C72.056 75.8713 71.6172 76.0708 71.4018 76.0867C70.9311 76.1186 70.4684 75.9112 70.1413 75.5682C69.7663 75.1693 69.152 74.539 68.9446 74.3874C68.6334 74.156 68.2345 73.797 67.7957 73.7651H67.7798C67.325 73.7332 67.0219 74.2358 67.2692 74.6267L68.1388 75.9671C68.7691 76.9404 69.6945 77.6903 70.7795 78.0972L73.5878 79.1662L73.7952 87.1602L77.4332 84.3759L75.7977 79.0865C75.4706 78.0334 74.9361 77.0521 74.2181 76.2064Z" fill="white"/>
<path fill-rule="evenodd" clip-rule="evenodd" d="M73.7954 87.3435C73.7688 87.3435 73.7422 87.3381 73.7156 87.3275C73.6518 87.2956 73.6119 87.2397 73.6119 87.1679L73.4044 79.2856L70.7158 78.2645C69.583 77.8416 68.6416 77.0757 67.9874 76.0625L67.1178 74.7222C66.9662 74.4829 66.9582 74.1877 67.1098 73.9404C67.2534 73.701 67.5167 73.5654 67.7959 73.5813C68.2427 73.6212 68.6176 73.9084 68.9208 74.1398C68.9633 74.177 69.0059 74.2116 69.0484 74.2435C69.2639 74.4031 69.8303 74.9855 70.2691 75.4482C70.5802 75.7594 70.9871 75.9269 71.386 75.903C71.4817 75.895 71.6573 75.8391 71.8088 75.7753L71.2504 74.6265C71.1148 74.3472 71.2025 74.0201 71.4578 73.8366C71.7211 73.6611 72.0482 73.693 72.2716 73.9164L74.3459 76.0864C74.3459 76.0864 74.3485 76.0891 74.3538 76.0944C75.0878 76.9561 75.6383 77.9453 75.9734 79.0303L77.6089 84.3278C77.6328 84.3996 77.6089 84.4793 77.5451 84.5192L73.8991 87.3036C73.8672 87.3275 73.8353 87.3435 73.7954 87.3435ZM67.748 73.9404C67.6044 73.9404 67.4847 74.0122 67.4129 74.1239C67.3411 74.2515 67.3411 74.4031 67.4209 74.5228L68.2905 75.871C68.9048 76.8124 69.7904 77.5305 70.8435 77.9294L73.6518 78.9905C73.7156 79.0224 73.7635 79.0862 73.7635 79.158L73.9629 86.8089L77.2259 84.3118L75.6303 79.142C75.3112 78.1049 74.7846 77.1555 74.0826 76.3338L72.0083 74.1717C71.8966 74.0521 71.753 74.076 71.6652 74.1318C71.5775 74.1957 71.5057 74.3233 71.5775 74.4669L72.2157 75.7913C72.2397 75.8312 72.2397 75.887 72.2237 75.9269C72.2077 75.9748 72.1758 76.0146 72.128 76.0306C72.0801 76.0545 71.6573 76.246 71.4099 76.262C70.8993 76.2939 70.3888 76.0864 70.0138 75.6955C69.4075 75.0653 68.9846 74.6424 68.833 74.5307C68.7905 74.4988 68.7453 74.4643 68.6974 74.427C68.4341 74.2196 68.107 73.9723 67.7799 73.9404C67.7693 73.9404 67.7587 73.9404 67.748 73.9404Z" fill="#070D13"/>
<path d="M78.1758 82.6914L69.0889 89.8956L73.1417 94.092L80.8485 87.6697L78.1758 82.6914Z" fill="white"/>
<path fill-rule="evenodd" clip-rule="evenodd" d="M73.1416 94.2755C73.0937 94.2755 73.0459 94.2516 73.014 94.2197L68.9611 90.0152C68.9212 89.9833 68.9053 89.9275 68.9053 89.8796C68.9133 89.8317 68.9372 89.7839 68.9771 89.752L78.0641 82.5478C78.1119 82.5159 78.1598 82.4999 78.2156 82.5079C78.2635 82.5238 78.3114 82.5558 78.3353 82.6036L81.0079 87.5819C81.0478 87.6617 81.0319 87.7495 80.9681 87.8053L73.2533 94.2276C73.2214 94.2595 73.1815 94.2755 73.1416 94.2755ZM69.352 89.9115L73.1496 93.8447L80.625 87.6218L78.1199 82.9626L69.352 89.9115Z" fill="#070D13"/>
<path d="M92.0564 81.573C92.0564 81.573 98.2712 80.6794 104.39 80.5039C104.39 80.5039 112.065 100.521 112.057 101.869C112.057 103.225 108.786 104.949 104.39 103.848C99.9945 102.747 94.4019 102.635 91.2665 103.369C86.5595 104.47 92.0564 81.573 92.0564 81.573Z" fill="white"/>
<path fill-rule="evenodd" clip-rule="evenodd" d="M107.151 104.382C106.297 104.382 105.356 104.278 104.343 104.023C100.194 102.986 94.5937 102.778 91.3067 103.544C90.8201 103.656 90.4052 103.552 90.0781 103.217C87.3656 100.489 91.6897 82.2989 91.8811 81.525C91.8971 81.4532 91.9529 81.4053 92.0247 81.3894C92.0886 81.3814 98.3274 80.4958 104.383 80.3203C104.462 80.3203 104.526 80.3682 104.558 80.44C104.869 81.2537 112.241 100.505 112.241 101.869C112.241 102.308 111.954 102.771 111.435 103.177C110.614 103.816 109.122 104.382 107.151 104.382ZM96.2052 102.723C98.9337 102.723 101.941 103.05 104.431 103.672C107.454 104.43 110.015 103.824 111.22 102.89C111.643 102.555 111.882 102.196 111.882 101.869C111.882 100.832 106.928 87.6362 104.263 80.6873C98.7343 80.8548 93.0938 81.6128 92.2003 81.7324C91.8253 83.336 87.8682 100.489 90.3334 102.962C90.5727 103.201 90.86 103.281 91.2269 103.193C92.5832 102.874 94.3304 102.723 96.2052 102.723Z" fill="#070D13"/>
<path d="M88.8583 82.7223C88.7705 82.8499 88.6907 83.0334 88.6269 83.2727C87.4541 84.5492 84.9012 87.1261 83.4891 86.9825C81.6222 86.799 80.4734 85.0598 80.4734 85.0598L70.0381 93.1097C79.2048 100.33 85.6192 97.5614 88.5711 95.3515L88.0046 108.26C88.0046 108.26 91.1799 110.143 91.1799 109.983C91.1799 109.816 92.5681 81.0469 92.5681 81.0469C92.5681 81.0469 90.0071 81.0947 88.8583 82.7223Z" fill="white"/>
<path d="M81.3982 97.9361C78.3506 97.9361 74.4733 96.8351 69.9258 93.253C69.8779 93.2211 69.854 93.1652 69.854 93.1094C69.854 93.0536 69.8859 93.0057 69.9258 92.9738L80.369 84.916C80.4089 84.884 80.4568 84.8681 80.5047 84.884C80.5525 84.892 80.6004 84.916 80.6243 84.9558C80.6403 84.9718 81.7493 86.6312 83.5044 86.8068C84.4538 86.8945 86.2568 85.5781 88.4668 83.1847C88.5386 82.9374 88.6183 82.7539 88.7141 82.6183C89.8948 80.9349 92.4558 80.8711 92.5675 80.8711C92.6153 80.8711 92.6632 80.887 92.6951 80.9269C92.735 80.9588 92.751 81.0067 92.751 81.0626L92.2563 91.2665C92.2483 91.3702 92.1686 91.442 92.0649 91.442C91.9691 91.434 91.8893 91.3542 91.8973 91.2505L92.376 81.2381C91.7776 81.2859 89.9108 81.5412 89.0093 82.8257C88.9295 82.9294 88.8577 83.097 88.8018 83.3203C88.7912 83.3469 88.7752 83.3709 88.754 83.3922C87.4057 84.8681 84.9325 87.3094 83.4725 87.1658C81.853 86.9982 80.7759 85.7616 80.4409 85.3149L70.3327 93.1094C76.9784 98.2712 82.1162 98.0398 85.2596 96.9229C85.3553 96.891 85.459 96.9389 85.491 97.0346C85.5229 97.1303 85.475 97.234 85.3793 97.266C84.2783 97.6569 82.946 97.9361 81.3982 97.9361Z" fill="#070D13"/>
<path d="M98.0241 88.455L86.2804 90.4974L74.5527 88.455L86.4161 86.3887L98.0241 88.455Z" fill="white"/>
<path fill-rule="evenodd" clip-rule="evenodd" d="M86.2804 90.6806C86.2697 90.6806 86.2591 90.6779 86.2484 90.6726L74.5207 88.6302C74.433 88.6223 74.3691 88.5425 74.3691 88.4547C74.3691 88.367 74.433 88.2952 74.5207 88.2792L86.3841 86.2129C86.4053 86.2129 86.4266 86.2129 86.4479 86.2129L98.0559 88.2792C98.1437 88.2952 98.1995 88.3749 98.1995 88.4627C98.1995 88.5425 98.1357 88.6223 98.0559 88.6382L86.3123 90.6726C86.3016 90.6779 86.291 90.6806 86.2804 90.6806ZM75.5978 88.4547L86.2804 90.3136L96.9789 88.4547L86.416 86.5719L75.5978 88.4547Z" fill="#070D13"/>
<path d="M86.2803 107.778V90.4815L98.0718 88.4551V105.704L86.2803 107.778Z" fill="white"/>
<path fill-rule="evenodd" clip-rule="evenodd" d="M86.2805 107.961C86.2406 107.961 86.2007 107.945 86.1688 107.921C86.1289 107.882 86.105 107.834 86.105 107.778V90.4815C86.105 90.3937 86.1688 90.3219 86.2566 90.306L98.0401 88.2716C98.096 88.2636 98.1438 88.2795 98.1837 88.3115C98.2236 88.3513 98.2476 88.3992 98.2476 88.4551V105.704C98.2476 105.791 98.1917 105.863 98.1039 105.879L86.3124 107.961C86.3018 107.961 86.2911 107.961 86.2805 107.961ZM86.464 90.6331V107.562L97.8885 105.552V88.6625L86.464 90.6331Z" fill="#070D13"/>
<path d="M86.2804 107.776V90.4797L74.6006 88.4453V105.71L86.2804 107.776Z" fill="white"/>
<path fill-rule="evenodd" clip-rule="evenodd" d="M86.2803 107.961C86.2697 107.961 86.2591 107.961 86.2484 107.961L74.5686 105.887C74.4808 105.879 74.417 105.799 74.417 105.712V88.4471C74.417 88.3992 74.4409 88.3434 74.4808 88.3115C74.5207 88.2795 74.5766 88.2636 74.6324 88.2716L86.3122 90.306C86.4 90.3219 86.4638 90.3937 86.4638 90.4815V107.778C86.4638 107.834 86.4399 107.882 86.4 107.921C86.3681 107.945 86.3282 107.961 86.2803 107.961ZM74.776 105.56L86.1048 107.562V90.6331L74.776 88.6625V105.56Z" fill="#070D13"/>
<path fill-rule="evenodd" clip-rule="evenodd" d="M91.8569 101.764C91.7611 101.764 91.6627 101.762 91.5617 101.756C90.4926 101.676 89.5512 101.198 88.913 100.4C88.2987 99.642 88.0434 98.6846 88.187 97.6954C88.4901 95.6291 90.4767 94.0813 92.6307 94.2329C93.6998 94.3127 94.6412 94.7914 95.2794 95.5892C95.8937 96.3471 96.149 97.3044 96.0054 98.2937C95.7182 100.264 93.8913 101.764 91.8569 101.764ZM92.3355 94.5839C90.4767 94.5839 88.8013 95.9562 88.546 97.7512C88.4103 98.6368 88.6417 99.4984 89.1922 100.177C89.7666 100.895 90.6203 101.325 91.5856 101.397C93.5482 101.541 95.3752 100.121 95.6464 98.2379C95.7741 97.3523 95.5507 96.4907 95.0002 95.8126C94.4258 95.0945 93.5721 94.6637 92.6068 94.5919C92.5164 94.5866 92.426 94.5839 92.3355 94.5839Z" fill="#070D13"/>
<path d="M92.6146 100.649L91.6971 100.84C91.3621 100.912 91.0908 100.697 91.0908 100.369V96.2049C91.0908 95.8698 91.3621 95.5507 91.6971 95.4789L92.6146 95.2795C92.9497 95.2076 93.2289 95.4231 93.2289 95.7502V99.9227C93.2289 100.25 92.9497 100.577 92.6146 100.649Z" fill="#0080FF"/>
<path d="M89.4316 99.094V98.1766C89.4316 97.8495 89.7109 97.5224 90.0459 97.4585L94.2663 96.565C94.6094 96.4932 94.8806 96.7006 94.8806 97.0277V97.9452C94.8806 98.2723 94.6094 98.5994 94.2663 98.6712L90.0459 99.5647C89.7109 99.6286 89.4316 99.4211 89.4316 99.094Z" fill="#0080FF"/>
<path d="M98.4475 93.4188L98.3198 95.0064L93.509 94.1288C93.509 94.1288 93.3974 94.2884 93.3255 94.5517C93.2378 94.8947 93.2298 95.4133 93.6686 95.9638C93.884 96.2191 94.7137 96.2271 94.6499 96.7536C94.5941 97.2004 96.4689 97.5594 98.0964 97.8546C99.9234 98.1976 99.7638 95.5968 99.317 94.2724C98.966 93.2353 98.4475 93.4188 98.4475 93.4188Z" fill="white"/>
<path fill-rule="evenodd" clip-rule="evenodd" d="M98.4075 98.0694C98.3011 98.0694 98.1868 98.0588 98.0644 98.0375C95.5673 97.5748 94.3945 97.2876 94.4663 96.7291C94.4903 96.5695 94.3626 96.4898 94.0116 96.3541C93.8201 96.2744 93.6366 96.2105 93.5329 96.0749C93.0383 95.4686 93.0542 94.8862 93.1579 94.5032C93.2297 94.216 93.3574 94.0325 93.3574 94.0246C93.3973 93.9687 93.4691 93.9448 93.5409 93.9527L98.1602 94.7904L98.2719 93.4102C98.2798 93.3384 98.3197 93.2746 98.3915 93.2507C98.4075 93.2427 98.599 93.1789 98.8303 93.2985C99.1016 93.4262 99.325 93.7373 99.4845 94.216C99.7957 95.1255 100.027 96.8647 99.3409 97.6625C99.1654 97.854 98.8782 98.0694 98.4075 98.0694ZM93.5967 94.3277C93.5728 94.3915 93.5329 94.4793 93.501 94.591C93.4292 94.8942 93.4132 95.3569 93.8121 95.8515C93.86 95.9074 94.0116 95.9632 94.1392 96.0191C94.4344 96.1308 94.8812 96.3063 94.8253 96.769C94.9211 97.0881 97.0911 97.487 98.1362 97.6785C98.5431 97.7583 98.8542 97.6705 99.0697 97.4232C99.6281 96.777 99.4526 95.2292 99.1415 94.3277C98.9739 93.8171 98.7585 93.6416 98.6149 93.5937L98.5032 95.0218C98.4952 95.0697 98.4713 95.1175 98.4314 95.1495C98.3915 95.1814 98.3357 95.1893 98.2878 95.1814L93.5967 94.3277Z" fill="#070D13"/>
<path d="M99.0537 97.795L100.019 96.327C100.019 96.327 104.806 97.2924 107.016 96.327C110.877 94.6277 110.143 88.708 109.489 85.7561C108.827 82.8043 107.798 80.7539 107.798 80.7539C107.798 80.7539 110.925 82.2298 113.326 86.6417C115.736 91.0456 116.518 100.898 108.476 102.686C103.21 103.85 99.0537 97.795 99.0537 97.795Z" fill="white"/>
<path d="M107.135 103.01C102.476 103.01 98.9419 97.9523 98.902 97.8964C98.8621 97.8326 98.8621 97.7528 98.902 97.689L99.8673 96.2211C99.9072 96.1652 99.979 96.1333 100.051 96.1493C100.099 96.1572 104.814 97.0986 106.944 96.1572C108.563 95.4472 109.513 93.8835 109.768 91.4981C109.776 91.4023 109.864 91.3305 109.96 91.3385C110.063 91.3545 110.135 91.4422 110.119 91.5379C109.856 94.059 108.835 95.7184 107.087 96.4843C105.021 97.3938 100.873 96.6678 100.099 96.5242L99.269 97.7848C99.8354 98.5506 103.713 103.553 108.436 102.508C114.587 101.143 114.914 95.1999 114.77 92.7027C114.762 92.607 114.842 92.5193 114.938 92.5113C115.042 92.5113 115.121 92.5831 115.129 92.6868C115.281 95.2637 114.938 101.431 108.516 102.859C108.045 102.962 107.582 103.01 107.135 103.01Z" fill="#070D13"/>
<path d="M97.7456 73.1127C97.626 73.1845 97.4744 73.1287 97.4185 73.001C97.1712 72.3867 96.7723 71.198 95.9506 71.0145C94.9055 70.7672 93.2061 70.456 93.0625 71.2857C92.9349 72.0117 93.0865 73.2723 92.3206 74.1738C92.2488 74.2616 92.3126 74.4052 92.4004 74.469L92.879 74.8759C92.9827 74.9556 93.0705 75.2189 93.0785 75.3466C93.1184 75.7375 93.1662 76.5752 93.3098 76.6869C93.5731 76.8943 94.8975 76.8145 94.8975 76.8145L95.9586 80.4685C96.0064 80.6121 95.9187 80.7557 95.783 80.7876L94.5145 81.2184C94.5145 81.2184 95.5357 82.6465 98.711 82.4311C100.737 82.2954 102.221 80.8594 102.221 80.8594C102.221 80.8594 98.2802 80.3009 97.7456 75.6338C97.7297 75.538 97.7775 75.4343 97.8573 75.3705C98.1765 75.1391 99.0221 74.4371 98.8705 73.735C98.719 72.9851 98.1525 72.8654 97.7456 73.1127Z" fill="white"/>
<path fill-rule="evenodd" clip-rule="evenodd" d="M98.0648 82.6308C95.3363 82.6308 94.4109 81.3862 94.371 81.3224C94.3391 81.2825 94.3311 81.2187 94.347 81.1628C94.363 81.115 94.4029 81.0671 94.4587 81.0511L95.7272 80.6203C95.7671 80.6124 95.7751 80.5884 95.7831 80.5804C95.7911 80.5725 95.799 80.5485 95.7911 80.5246L94.7619 76.9983C94.3391 77.0222 93.4535 77.0302 93.1982 76.8228C93.0466 76.7031 92.9908 76.3601 92.919 75.5702C92.9136 75.4905 92.9083 75.4213 92.903 75.3628C92.895 75.2431 92.8152 75.0596 92.7754 75.0197L92.2807 74.6129C92.193 74.5411 92.1212 74.4214 92.1132 74.3097C92.0972 74.214 92.1212 74.1262 92.185 74.0624C92.7195 73.4241 92.7754 72.5864 92.8232 71.9083C92.8392 71.669 92.8472 71.4456 92.8871 71.2541C92.919 71.0547 93.0227 70.8951 93.1982 70.7754C93.7886 70.3925 95.073 70.6239 95.9905 70.8393C96.8362 71.0307 97.251 72.0759 97.5223 72.762L97.5861 72.9375C97.5941 72.9534 97.6101 72.9614 97.618 72.9614C97.626 72.9614 97.642 72.9694 97.6579 72.9534C97.9212 72.8019 98.2164 72.7699 98.4797 72.8816C98.6791 72.9774 98.9424 73.1848 99.0461 73.6954C99.2057 74.4533 98.4398 75.1634 97.9691 75.5144C97.9372 75.5383 97.9212 75.5782 97.9212 75.6181C98.4318 80.0938 102.213 80.6762 102.245 80.6842C102.317 80.6921 102.373 80.74 102.397 80.8038C102.413 80.8756 102.397 80.9474 102.349 80.9953C102.285 81.0511 100.793 82.4712 98.719 82.6069C98.4903 82.6228 98.2722 82.6308 98.0648 82.6308ZM94.8417 81.2985C95.2406 81.6575 96.3735 82.4074 98.6951 82.2478C100.155 82.1521 101.328 81.3543 101.83 80.9554C100.817 80.6762 98.0089 79.5592 97.5622 75.658C97.5462 75.4905 97.618 75.3309 97.7537 75.2272C98.0728 74.9799 98.8227 74.3496 98.6951 73.7672C98.6392 73.488 98.5116 73.2965 98.3361 73.2167C98.1845 73.1529 98.001 73.1688 97.8414 73.2646C97.7377 73.3284 97.6101 73.3364 97.4984 73.3045C97.3867 73.2646 97.2989 73.1768 97.259 73.0731L97.1872 72.8976C96.9399 72.2753 96.5649 71.3419 95.9107 71.1903C94.5944 70.8871 93.7487 70.8472 93.3976 71.0786C93.3099 71.1424 93.254 71.2142 93.2381 71.3179C93.2062 71.4935 93.1902 71.7089 93.1822 71.9323C93.1264 72.6583 93.0705 73.5518 92.4722 74.2778C92.4722 74.2937 92.4882 74.3177 92.5121 74.3257L92.9987 74.7405C93.1503 74.8602 93.2461 75.1793 93.262 75.3229C93.2673 75.3867 93.2727 75.4585 93.278 75.5383C93.3019 75.8016 93.3578 76.4239 93.4296 76.5515C93.5811 76.6473 94.2912 76.6712 94.8895 76.6313C94.9693 76.6313 95.0491 76.6792 95.073 76.7669L96.1341 80.4209C96.166 80.5326 96.1581 80.6602 96.0942 80.7639C96.0384 80.8597 95.9426 80.9395 95.823 80.9634L94.8417 81.2985Z" fill="#070D13"/>
<path d="M11.0336 128.625L10.1959 134.505L8.05782 134.513L7.9541 128.729L11.0336 128.625Z" fill="white"/>
<path fill-rule="evenodd" clip-rule="evenodd" d="M8.05772 134.696C7.954 134.696 7.87422 134.616 7.87422 134.521L7.77051 128.737C7.77051 128.633 7.85029 128.553 7.94602 128.553L11.0335 128.441C11.0814 128.441 11.1372 128.465 11.1691 128.505C11.209 128.545 11.225 128.601 11.217 128.649L10.3793 134.537C10.3634 134.624 10.2916 134.688 10.1958 134.688L8.05772 134.696ZM8.1375 128.904L8.23323 134.337L10.0442 134.329L10.8261 128.808L8.1375 128.904Z" fill="#070D13"/>
<path d="M10.2681 140.128C9.4304 140.224 8.17785 140.256 6.50247 140.112C5.90411 140.056 5.48128 139.498 5.57702 138.907C5.84029 137.312 6.56629 134.496 7.70715 133.203L8.27359 134.009L8.60867 133.179C8.66451 133.083 10.0846 133.028 10.1085 133.195L10.1963 134.009L11.0021 133.107L10.9622 136.075C10.9542 136.402 10.9861 136.729 11.0499 137.049L11.2654 138.078C11.393 138.692 11.2334 139.346 10.8026 139.809C10.6351 139.984 10.4516 140.112 10.2681 140.128Z" fill="white"/>
<path fill-rule="evenodd" clip-rule="evenodd" d="M8.64032 140.392C8.04196 140.392 7.32394 140.36 6.48625 140.289C6.15117 140.257 5.848 140.097 5.64058 139.826C5.43315 139.563 5.34539 139.212 5.40123 138.877C5.47304 138.462 6.11128 134.736 7.57126 133.085C7.61115 133.045 7.65902 133.021 7.71486 133.021C7.77071 133.029 7.82656 133.053 7.85847 133.1L8.22546 133.635L8.44087 133.108C8.44618 133.103 8.4515 133.095 8.45682 133.085C8.59245 132.845 9.81309 132.909 9.9886 132.949C10.0604 132.957 10.2599 132.997 10.2918 133.164L10.3317 133.587L10.8742 132.989C10.922 132.933 11.0018 132.909 11.0736 132.941C11.1374 132.965 11.1853 133.037 11.1853 133.108L11.1374 136.076C11.1374 136.387 11.1694 136.707 11.2332 137.01L11.4406 138.039C11.5842 138.733 11.3927 139.443 10.938 139.93C10.7226 140.153 10.4992 140.289 10.2918 140.313C9.89287 140.352 9.35036 140.392 8.64032 140.392ZM7.69891 133.499C6.64581 134.856 5.98363 137.52 5.76025 138.94C5.72036 139.172 5.7762 139.419 5.92779 139.611C6.07139 139.794 6.2868 139.906 6.51816 139.93C8.30524 140.089 9.53386 140.025 10.2519 139.954C10.3715 139.938 10.5231 139.842 10.6747 139.682C11.0497 139.275 11.2092 138.693 11.0896 138.111L10.8742 137.089C10.8103 136.754 10.7784 136.411 10.7784 136.068L10.8183 133.587L10.3317 134.13C10.2838 134.185 10.212 134.201 10.1402 134.178C10.0764 134.162 10.0285 134.098 10.0205 134.026L9.94074 133.3C9.70937 133.252 8.97539 133.268 8.74403 133.316L8.44087 134.074C8.41693 134.138 8.36109 134.178 8.28928 134.185C8.22546 134.193 8.16164 134.17 8.12174 134.114L7.69891 133.499Z" fill="#070D13"/>
<path d="M8.73599 139.338C8.15359 139.338 7.41961 139.29 6.58989 139.146C6.49416 139.131 6.43034 139.035 6.44629 138.939C6.46225 138.843 6.55798 138.779 6.65372 138.795C8.72801 139.154 10.196 138.867 10.2119 138.867C10.3156 138.843 10.4034 138.907 10.4273 139.003C10.4433 139.099 10.3795 139.194 10.2837 139.218C10.2438 139.226 9.66942 139.338 8.73599 139.338Z" fill="#070D13"/>
<path d="M9.42196 137.082H7.47532C7.37959 137.082 7.2998 137.002 7.2998 136.906C7.2998 136.802 7.37959 136.723 7.47532 136.723H9.42196C9.52568 136.723 9.60546 136.802 9.60546 136.906C9.60546 137.002 9.52568 137.082 9.42196 137.082Z" fill="#070D13"/>
<path d="M26.4229 129.149L27.1808 136.002L30.0608 136.608L29.8853 128.566L26.4229 129.149Z" fill="white"/>
<path fill-rule="evenodd" clip-rule="evenodd" d="M30.0608 136.786C30.0502 136.786 30.0369 136.786 30.021 136.786L27.1409 136.179C27.0611 136.163 27.0053 136.099 26.9973 136.028L26.2474 129.167C26.2314 129.071 26.3032 128.991 26.391 128.975L29.8534 128.393C29.9093 128.385 29.9571 128.401 29.997 128.433C30.0449 128.464 30.0688 128.512 30.0688 128.568L30.2443 136.602C30.2443 136.658 30.2204 136.714 30.1805 136.746C30.1406 136.778 30.1007 136.786 30.0608 136.786ZM27.3403 135.852L29.8774 136.387L29.7098 128.784L26.6223 129.302L27.3403 135.852Z" fill="#070D13"/>
<path d="M25.9599 139.277C25.8961 138.072 25.8961 135.863 26.6221 134.793L28.9278 135.615V135.129C28.9278 134.969 29.0474 134.833 29.191 134.825L30.4755 134.754C30.9542 134.73 31.4329 134.825 31.8717 135.041C33.1641 135.679 37.1053 137.307 37.6478 139.142C37.8073 139.684 37.3845 140.227 36.818 140.242C35.5256 140.274 32.4142 140.314 26.8216 140.131C26.3588 140.115 25.9839 139.74 25.9599 139.277Z" fill="white"/>
<path fill-rule="evenodd" clip-rule="evenodd" d="M34.2411 140.45C32.5258 140.45 30.0925 140.418 26.8215 140.306C26.255 140.29 25.8083 139.851 25.7764 139.285C25.7125 138.048 25.7125 135.798 26.4784 134.697C26.5183 134.626 26.6061 134.602 26.6859 134.626L28.7522 135.36V135.128C28.7522 134.873 28.9357 134.658 29.183 134.65L30.4675 134.57C30.9701 134.546 31.4886 134.65 31.9514 134.881C32.1029 134.953 32.3024 135.048 32.5178 135.144C34.1932 135.934 37.3206 137.402 37.8232 139.093C37.911 139.396 37.8551 139.716 37.6636 139.979C37.4722 140.242 37.161 140.41 36.8259 140.418C36.2675 140.434 35.4218 140.45 34.2411 140.45ZM26.7018 135.017C26.0716 136.078 26.0795 138.12 26.1354 139.269C26.1593 139.644 26.4545 139.931 26.8295 139.947C32.3582 140.138 35.4617 140.099 36.818 140.059C37.0334 140.051 37.2408 139.947 37.3764 139.763C37.4961 139.596 37.536 139.389 37.4722 139.197C37.0174 137.657 33.8741 136.181 32.3662 135.471C32.1428 135.368 31.9514 135.28 31.7918 135.2C31.3849 135.001 30.9302 134.905 30.4834 134.937L29.1989 135.009C29.1511 135.009 29.1112 135.064 29.1112 135.128V135.615C29.1112 135.679 29.0793 135.735 29.0314 135.766C28.9835 135.798 28.9277 135.806 28.8718 135.79L26.7018 135.017Z" fill="#070D13"/>
<path d="M33.3479 139.308C31.7124 139.308 29.5025 139.237 27.0851 138.957C26.9814 138.949 26.9096 138.862 26.9256 138.758C26.9335 138.662 27.0293 138.59 27.125 138.598C32.0395 139.173 36.1003 138.878 36.1402 138.87C36.2359 138.862 36.3237 138.941 36.3317 139.037C36.3396 139.141 36.2678 139.221 36.1641 139.229C36.1482 139.237 35.0632 139.308 33.3479 139.308Z" fill="#070D13"/>
<path d="M32.6295 137.342C32.5976 137.342 32.5577 137.335 32.5258 137.311L30.3079 135.715C30.2281 135.659 30.2041 135.547 30.268 135.46C30.3238 135.38 30.4355 135.364 30.5153 135.42L32.7332 137.023C32.8209 137.079 32.8369 137.191 32.781 137.271C32.7412 137.319 32.6853 137.342 32.6295 137.342Z" fill="#070D13"/>
<path d="M26.8216 81.7832C26.8216 81.7832 31.4568 113.017 30.5792 131.949L29.2868 132.077C28.5927 132.149 27.8986 132.164 27.1965 132.133L25.9759 132.069C20.479 100.013 19.0829 98.4972 18.0138 94.9709C18.0138 94.9709 11.8867 124.107 11.6314 131.04C11.6314 131.04 8.65557 131.335 7.46684 130.912C6.83658 124.226 6.64511 117.301 6.62117 112.961C6.52544 100.524 7.71417 94.8752 8.36836 92.2025C8.96672 89.7373 9.60496 87.7428 10.0757 86.3865L11.6394 81.9188L26.8216 81.7832Z" fill="#070D13"/>
<path d="M18.0222 96.1446C18.0116 96.1446 18.0009 96.1446 17.9903 96.1446C17.8945 96.1207 17.8307 96.0329 17.8467 95.9292L18.5248 92.4348C18.7322 91.6769 19.3306 91.1184 20.0805 90.9589L20.7268 90.8312C20.8225 90.8073 20.9182 90.8711 20.9422 90.9668C20.9581 91.0706 20.8943 91.1583 20.7986 91.1823L20.1603 91.3179C19.538 91.4455 19.0434 91.9003 18.8759 92.5146L18.1977 96.001C18.1818 96.0887 18.11 96.1446 18.0222 96.1446Z" fill="white"/>
<path d="M9.85275 90.4886C9.765 90.4886 9.6932 90.4248 9.67724 90.337C9.66128 90.2413 9.72511 90.1456 9.82882 90.1296C12.661 89.6589 13.6982 87.816 14.0173 87.0501C14.0572 86.9543 14.1609 86.9145 14.2566 86.9464C14.3444 86.9863 14.3923 87.09 14.3524 87.1857C14.0093 88.0074 12.9004 89.986 9.88467 90.4886C9.87403 90.4886 9.86339 90.4886 9.85275 90.4886Z" fill="white"/>
<path d="M26.7739 88.6202C26.7527 88.6202 26.7287 88.6149 26.7021 88.6043C24.4842 87.6389 24.229 85.6843 24.221 85.6045C24.205 85.5008 24.2768 85.413 24.3726 85.3971C24.4763 85.3891 24.564 85.4609 24.572 85.5567C24.58 85.6364 24.8193 87.3996 26.8457 88.2772C26.9415 88.317 26.9814 88.4208 26.9415 88.5165C26.9096 88.5803 26.8457 88.6202 26.7739 88.6202Z" fill="white"/>
<path d="M6.94099 59.6296C7.74677 58.7201 9.38227 57.7467 10.571 57.4755C12.8208 56.9569 15.7089 56.6538 18.2778 56.4782L19.7378 56.3267C20.4877 56.2708 21.1898 56.2628 21.8599 56.3027C22.3226 56.2868 22.7455 56.2708 23.1045 56.2628C24.2374 56.2389 26.0643 56.6059 27.0377 57.1963C27.987 57.7787 28.8646 58.4807 29.6864 59.2705C32.8536 61.8235 34.4572 65.1025 36.4358 65.3019C37.2416 65.3817 38.8531 60.5071 39.4754 58.5286C39.8743 57.2441 41.3822 56.6697 42.531 57.3797C42.5842 57.4117 42.6374 57.4462 42.6906 57.4835C44.1505 58.5286 43.7038 60.8821 43.7038 60.8821C43.7038 60.8821 42.906 74.0219 39.2281 74.5485C35.1274 75.1389 28.9045 70.1526 27.6201 69.8095L28.5854 75.442L30.181 83.3243C30.4203 84.8561 28.4418 85.3428 27.3328 85.3268C27.3009 85.3268 26.9419 82.5664 26.91 82.5584C23.3518 81.8324 18.7644 83.9466 15.1743 85.8454C10.571 88.2787 6.40646 86.6432 6.07936 85.3906C5.76024 84.1461 6.62187 76.5191 6.62187 76.5191L1.79516 76.1202C0.885659 76.0484 0.183594 75.2825 0.183594 74.373C0.191572 68.1262 4.57151 62.3182 6.94099 59.6296Z" fill="white"/>
<path fill-rule="evenodd" clip-rule="evenodd" d="M10.3395 87.29C9.15081 87.29 8.11366 87.0586 7.33979 86.7076C6.54997 86.3645 6.02342 85.9018 5.90375 85.4391C5.60058 84.2663 6.28669 77.8839 6.42232 76.6872L1.7791 76.3042C0.781849 76.2165 0 75.3708 0 74.3736C0.0159561 68.1427 4.26825 62.3905 6.80526 59.5105C7.63498 58.577 9.30239 57.5798 10.531 57.3006C12.4617 56.8538 15.0625 56.5187 18.2617 56.3033L19.7217 56.1437C20.4477 56.0959 21.1737 56.0879 21.8678 56.1198C22.3146 56.1039 22.7374 56.0959 23.1044 56.0879C24.2373 56.056 26.1041 56.415 27.1333 57.0453C28.0348 57.5957 28.9363 58.2978 29.8059 59.1435C31.1303 60.2046 32.1834 61.3933 33.1088 62.4464C34.3694 63.8824 35.3666 65.0153 36.4516 65.119C36.4516 65.119 36.4543 65.119 36.4596 65.119C36.7229 65.119 37.6483 63.7388 39.2998 58.4733C39.5072 57.8032 40.0098 57.2766 40.664 57.0373C41.3182 56.79 42.0363 56.8618 42.6266 57.2288C42.6851 57.266 42.741 57.3006 42.7942 57.3325C44.294 58.4095 43.9191 60.6992 43.8792 60.9066C43.8393 61.5927 43.0096 74.1901 39.2599 74.7326C36.2203 75.1634 32.0478 72.6104 29.5586 71.0866C28.8406 70.6478 28.2422 70.2728 27.8513 70.0893L28.7608 75.4107L30.3564 83.293C30.4362 83.7797 30.3165 84.2025 30.0134 84.5615C29.3512 85.3194 28.0109 85.5189 27.3327 85.5109C27.1572 85.5109 27.1572 85.5109 26.9418 83.9552C26.878 83.4925 26.7982 82.942 26.7583 82.7186C23.2959 82.0724 18.8042 84.1307 15.262 86.0055C13.4988 86.939 11.7995 87.29 10.3395 87.29ZM7.07652 59.7498C4.57141 62.59 0.374968 68.2544 0.359012 74.3736C0.359012 75.1873 0.997255 75.8734 1.80304 75.9452L6.63773 76.3441C6.68559 76.3441 6.73346 76.3681 6.7574 76.4079C6.78931 76.4478 6.80526 76.4957 6.79729 76.5436C6.5021 79.1684 6.00746 84.386 6.25478 85.3513C6.34254 85.6944 6.81324 86.0853 7.4834 86.3805C9.14283 87.1145 12.0149 87.3139 15.0944 85.6864C18.7244 83.7637 23.3597 81.6495 26.9418 82.3835C27.0854 82.4154 27.0854 82.4154 27.2929 83.8993C27.3567 84.3621 27.4365 84.9046 27.4764 85.1519C28.2662 85.1279 29.2714 84.8647 29.7421 84.3222C29.9735 84.0509 30.0612 83.7318 30.0054 83.3568L28.4018 75.4745L27.4444 69.842C27.4365 69.7782 27.4524 69.7144 27.5003 69.6745C27.5482 69.6346 27.612 69.6186 27.6678 69.6346C28.0508 69.7383 28.7608 70.1691 29.7501 70.7755C32.1993 72.2753 36.2921 74.7964 39.2041 74.3736C42.6905 73.8709 43.5122 61.0024 43.5202 60.8747C43.5202 60.8694 43.5228 60.8614 43.5282 60.8508C43.5282 60.8268 43.935 58.593 42.5788 57.6277C42.5362 57.5958 42.4883 57.5638 42.4352 57.5319C41.9405 57.2288 41.3422 57.1649 40.7917 57.3724C40.2412 57.5798 39.8184 58.0186 39.6429 58.585C37.4489 65.5818 36.667 65.502 36.4118 65.478C35.1911 65.3584 34.154 64.1776 32.8376 62.6857C31.9201 61.6486 30.883 60.4678 29.5746 59.4147C28.705 58.577 27.8194 57.8909 26.9418 57.3484C26.0004 56.774 24.1974 56.423 23.1124 56.4469C22.7454 56.4549 22.3305 56.4629 21.8678 56.4788C21.171 56.4469 20.4663 56.4549 19.7536 56.5028L18.2936 56.6623C15.1024 56.8777 12.5255 57.2128 10.6108 57.6516C9.44599 57.9228 7.86634 58.8643 7.07652 59.7498Z" fill="#070D13"/>
<path d="M11.3202 66.2017C10.9054 66.7681 10.4107 67.2707 9.85227 67.6936C7.96945 69.1376 3.4858 72.608 2.41674 73.8127C1.0525 75.3365 0.382344 75.9349 2.08167 79.158C4.85802 84.4075 12.3494 68.9302 12.3494 68.9302C12.3494 68.9302 15.1896 69.0498 15.4768 66.5367C15.4768 66.5367 16.9607 66.6165 17.5271 66.2735C17.958 66.0102 17.8303 65.2283 17.208 65.2283L13.1233 65.0289C12.5568 65.005 12.0223 65.2603 11.6872 65.707L11.3202 66.2017Z" fill="white"/>
<path fill-rule="evenodd" clip-rule="evenodd" d="M3.54968 80.4183C2.88751 80.4183 2.33702 80.0274 1.92217 79.2375C0.214867 75.9985 0.861088 75.2725 2.16151 73.8205L2.28118 73.6928C3.35821 72.4801 7.85782 68.9937 9.74064 67.5497C10.2831 67.1349 10.7698 66.6482 11.1767 66.0977L11.5437 65.6031C11.9107 65.1005 12.509 64.8212 13.1313 64.8452L17.2161 65.0446C17.5591 65.0446 17.8383 65.252 17.9341 65.5871C18.0218 65.9142 17.8942 66.2573 17.6229 66.4248C17.1283 66.72 16.0513 66.736 15.6364 66.72C15.2774 68.906 13.0116 69.0975 12.4612 69.1054C11.8788 70.3101 6.84462 80.3624 3.5816 80.4183C3.57096 80.4183 3.56032 80.4183 3.54968 80.4183ZM11.4639 66.3131C11.0411 66.8875 10.5305 67.3981 9.96403 67.8369C8.08919 69.273 3.60553 72.7434 2.55243 73.9321L2.43276 74.0678C1.17223 75.4719 0.645681 76.0543 2.24129 79.07C2.6003 79.7481 3.03111 80.0673 3.57362 80.0593C6.75686 80.0034 12.1341 68.9618 12.1899 68.8501C12.2218 68.7863 12.2856 68.7464 12.3574 68.7464C12.4691 68.7544 15.0301 68.8342 15.3013 66.5206C15.3093 66.4248 15.3971 66.353 15.4928 66.361C15.8837 66.377 17.0086 66.3769 17.4315 66.1137C17.591 66.0179 17.6229 65.8185 17.583 65.6829C17.5671 65.5951 17.4793 65.4036 17.2081 65.4036L13.1153 65.2042C12.6127 65.1882 12.1341 65.4116 11.8309 65.8185L11.4639 66.3131Z" fill="#070D13"/>
<path d="M27.333 85.3211C30.7875 85.0977 31.3699 83.3266 26.9102 82.5527L27.333 85.3211Z" fill="white"/>
<path fill-rule="evenodd" clip-rule="evenodd" d="M27.3333 85.5063C27.2456 85.5063 27.1658 85.4425 27.1498 85.3548L26.735 82.5864C26.719 82.5305 26.743 82.4667 26.7828 82.4268C26.8227 82.3869 26.8866 82.371 26.9424 82.3789C29.0965 82.7539 30.3091 83.4001 30.2692 84.166C30.2294 84.8761 29.1124 85.3867 27.3413 85.5063C27.3413 85.5063 27.3386 85.5063 27.3333 85.5063ZM27.1259 82.7778L27.4849 85.1314C29.0486 85.0037 29.8863 84.541 29.9102 84.1421C29.9262 83.7272 29.0725 83.1528 27.1259 82.7778Z" fill="#070D13"/>
<path d="M38.9492 49.2288L41.5022 61.5149C41.6937 62.4164 42.292 63.0387 42.8505 62.9111L43.76 62.7037C44.3184 62.576 44.6216 61.7383 44.4301 60.8368L41.8772 48.5586L38.9492 49.2288Z" fill="#070D13"/>
<path fill-rule="evenodd" clip-rule="evenodd" d="M42.6993 63.1104C42.5238 63.1104 42.3403 63.0546 42.1727 62.9429C41.7738 62.6876 41.4547 62.161 41.3271 61.5467L38.7741 49.2685C38.7502 49.1728 38.814 49.0771 38.9097 49.0531L41.8377 48.383C41.8855 48.367 41.9334 48.375 41.9733 48.4069C42.0132 48.4308 42.0451 48.4707 42.0531 48.5186L44.606 60.8048C44.8214 61.81 44.4624 62.7275 43.8082 62.8791L42.8908 63.0865C42.8269 63.1024 42.7631 63.1104 42.6993 63.1104ZM39.165 49.3643L41.6781 61.4749C41.7898 61.9935 42.0451 62.4323 42.3642 62.6397C42.4679 62.7035 42.6355 62.7754 42.811 62.7355L43.7205 62.528C44.1752 62.4243 44.4225 61.6664 44.255 60.8766L41.7419 48.7739L39.165 49.3643Z" fill="#070D13"/>
<path d="M39.7791 61.5714C39.3244 61.38 39.093 60.8694 39.2446 60.3987C39.6993 58.9945 40.0264 57.6622 39.4999 56.8963C39.0372 56.2341 38.6064 55.5799 38.718 54.7981L38.8696 53.6173C38.8936 53.4339 38.8377 52.7557 39.3483 52.8754C39.7313 52.9711 39.8908 53.3062 40.1142 54.7821C40.2259 55.5241 40.5211 55.8672 41.0157 56.1703C40.9998 56.0666 40.9918 55.939 40.9998 55.7954C41.0237 55.1651 41.3747 54.5827 41.9013 54.2317C42.5635 53.7929 43.6724 53.2025 44.3266 53.9365C44.7814 54.455 44.9569 55.6119 44.1591 56.7368C43.9756 57 42.9225 58.1409 42.9225 58.1409C42.723 58.4121 42.2842 61.1646 42.2842 61.1646C42.021 62.6086 40.928 62.0421 39.7791 61.5714Z" fill="white"/>
<path fill-rule="evenodd" clip-rule="evenodd" d="M41.4228 62.2641C40.984 62.2641 40.4654 62.0487 39.9309 61.8253L39.7075 61.7296C39.173 61.5142 38.8938 60.8999 39.0693 60.3414C39.5001 59.0251 39.8352 57.7007 39.3485 56.9986C38.9097 56.3684 38.4151 55.6503 38.5348 54.7648L38.6943 53.592C38.6943 53.5654 38.697 53.5308 38.7023 53.4883C38.7103 53.2888 38.7262 52.9378 38.9576 52.7703C39.0374 52.7144 39.173 52.6506 39.3884 52.6985C39.915 52.8261 40.0745 53.3208 40.2899 54.7568C40.3697 55.2834 40.5452 55.5785 40.8165 55.8099C40.8165 55.8046 40.8165 55.7966 40.8165 55.786C40.8484 55.1078 41.2154 54.4696 41.7978 54.0787C43.0025 53.2729 43.904 53.1931 44.4624 53.8154C44.997 54.4217 45.1246 55.6823 44.3109 56.8391C44.1194 57.0944 43.178 58.1315 43.0663 58.2512C42.9546 58.4427 42.6674 59.8947 42.46 61.1951C42.3722 61.6817 42.1887 62.0009 41.9015 62.1524C41.7499 62.2322 41.5903 62.2641 41.4228 62.2641ZM39.8432 61.4025L40.0665 61.4903C40.7287 61.7695 41.359 62.0328 41.726 61.8413C41.9174 61.7376 42.0371 61.5062 42.1089 61.1313C42.2126 60.4771 42.5716 58.315 42.7791 58.0358C43.154 57.6289 43.8721 56.8311 44.0157 56.6316C44.8135 55.5067 44.5422 54.4536 44.1912 54.0547C43.7684 53.584 43.0344 53.6877 42.0052 54.3818C41.5106 54.701 41.1994 55.2355 41.1755 55.8019C41.1675 55.9296 41.1755 56.0413 41.1994 56.137C41.2074 56.2088 41.1755 56.2806 41.1196 56.3205C41.0638 56.3604 40.984 56.3604 40.9202 56.3285C40.4256 56.0173 40.0586 55.6424 39.9389 54.8047C39.7235 53.3686 39.5719 53.1133 39.3086 53.0495C39.2448 53.0336 39.1996 53.0362 39.173 53.0575C39.0773 53.1293 39.0613 53.3846 39.0613 53.5122C39.0533 53.5601 39.0533 53.608 39.0454 53.6399L38.8938 54.8127C38.798 55.5067 39.165 56.0971 39.6437 56.7992C40.1862 57.581 39.9469 58.8256 39.4123 60.4611C39.2927 60.8361 39.4841 61.2509 39.8432 61.4025Z" fill="#070D13"/>
<path d="M42.1011 49.6484L44.4307 60.8416C44.6222 61.7431 44.319 62.5808 43.7606 62.7085L42.8511 62.9159C42.2926 63.0436 41.6943 62.4213 41.5028 61.5198L39.1094 50.0074L42.1011 49.6484Z" fill="#0080FF"/>
<path fill-rule="evenodd" clip-rule="evenodd" d="M42.6993 63.1136C42.5238 63.1136 42.3403 63.0578 42.1728 62.9461C41.7739 62.6908 41.4547 62.1643 41.3271 61.5499L38.9337 50.0456C38.9177 49.9978 38.9337 49.9419 38.9576 49.902C38.9895 49.8621 39.0374 49.8382 39.0853 49.8302L42.085 49.4712C42.1728 49.4552 42.2605 49.5191 42.2765 49.6068L44.6061 60.808C44.8215 61.8132 44.4625 62.7307 43.8083 62.8823L42.8908 63.0897C42.827 63.1057 42.7631 63.1136 42.6993 63.1136ZM39.3246 50.1653L41.6781 61.4781C41.7898 61.9967 42.0451 62.4355 42.3642 62.6429C42.4679 62.7068 42.6355 62.7786 42.811 62.7387L43.7205 62.5312C44.1752 62.4275 44.4226 61.6696 44.255 60.8798L41.9573 49.8462L39.3246 50.1653Z" fill="#070D13"/>
<path d="M42.0293 56.9611C42.484 57.009 43.2021 56.9053 43.9759 56.3867C44.7897 55.8283 44.7817 54.456 44.327 53.9375C43.6728 53.2035 42.5718 53.7859 41.9096 54.2247C41.3751 54.5757 40.8725 55.2858 40.8805 55.7804C40.9044 56.5303 41.1677 56.8814 42.0293 56.9611Z" fill="white"/>
<path d="M43.7047 57.4812C43.6648 57.4812 43.6249 57.4652 43.585 57.4333C43.5132 57.3695 43.5052 57.2578 43.569 57.186C43.936 56.7392 44.0078 56.6355 44.0158 56.6355C44.8056 55.5026 44.5424 54.4575 44.1913 54.0586C44.1594 54.0267 44.0796 53.9549 44.0796 53.9549C43.6568 53.6039 42.9547 53.7475 42.0133 54.3777C41.4947 54.7208 41.0559 55.367 41.0639 55.7739C41.0799 56.468 41.3192 56.7153 42.0452 56.7871C42.4601 56.827 42.9946 56.7073 43.4733 56.468C43.5611 56.4201 43.6727 56.46 43.7206 56.5477C43.7605 56.6355 43.7286 56.7472 43.6329 56.7871C42.851 57.178 42.2367 57.17 42.0053 57.1461C41.1038 57.0504 40.7209 56.6594 40.7049 55.7819C40.689 55.1915 41.2634 54.4336 41.8139 54.0746C42.9069 53.3486 43.7445 53.2209 44.311 53.6836C44.319 53.6836 44.4227 53.7794 44.4626 53.8193C44.9971 54.4256 45.1247 55.6861 44.311 56.8429C44.295 56.8589 44.2073 56.9786 43.8403 57.4174C43.8084 57.4572 43.7525 57.4812 43.7047 57.4812Z" fill="#070D13"/>
<path d="M43.4 36.876L32.5339 40.8651L27.9864 43.5616L25.9281 45.6439L25.9121 45.6599C25.5212 46.0109 25.4095 47.0321 25.6488 48.165C25.8882 49.2978 26.4147 50.1754 26.9094 50.3509H26.8934L29.4863 51.3721L34.6959 51.9466L46.3439 51.069L58.9013 56.9408L58.989 56.9727C55.8377 55.4569 52.5827 49.8005 51.0589 42.6521C49.5351 35.5038 50.1972 29.0416 52.455 26.3849V26.377L43.5117 36.7404L43.4 36.876Z" fill="white"/>
<path fill-rule="evenodd" clip-rule="evenodd" d="M58.9894 57.1547C58.9735 57.1547 58.9575 57.152 58.9416 57.1467L58.8458 57.1148C58.8352 57.1148 58.8272 57.1121 58.8219 57.1068L46.3044 51.251L34.7123 52.1285C34.7016 52.1285 34.691 52.1285 34.6804 52.1285L29.4627 51.5541C29.4468 51.5488 29.4335 51.5435 29.4228 51.5382L26.83 50.517C26.8087 50.5117 26.7901 50.501 26.7741 50.4851C26.2316 50.2298 25.713 49.3282 25.4737 48.2033C25.2184 47.0066 25.3461 45.9376 25.7848 45.5307L25.7928 45.5227L27.8591 43.4325C27.8698 43.4218 27.8831 43.4139 27.899 43.4085L32.4465 40.712C32.4518 40.7013 32.4598 40.696 32.4704 40.696L43.3365 36.707C43.3418 36.6751 43.3551 36.6485 43.3764 36.6272L52.3198 26.2637C52.3836 26.184 52.4953 26.176 52.5751 26.2398C52.607 26.2717 52.6309 26.3116 52.6389 26.3595C52.6389 26.4074 52.6309 26.4632 52.599 26.4951C50.3013 29.1997 49.7588 35.6698 51.2348 42.6107C52.7187 49.5596 55.862 55.2639 59.0692 56.8116C59.157 56.8515 59.1889 56.9473 59.157 57.035C59.133 57.1068 59.0612 57.1547 58.9894 57.1547ZM46.3442 50.884C46.3708 50.884 46.3948 50.8893 46.416 50.8999L57.2422 55.966C54.5616 53.5247 52.1283 48.5384 50.8837 42.6825C49.6471 36.8745 49.8227 31.3617 51.2507 28.0508L43.6477 36.8586C43.6264 36.8852 43.6025 36.9038 43.5759 36.9144C43.5599 36.9703 43.52 37.0181 43.4562 37.0421L32.614 41.0231L28.0985 43.7037L26.0481 45.77C26.0428 45.7754 26.0375 45.7807 26.0322 45.786C25.737 46.0493 25.5774 46.9428 25.8247 48.1315C26.08 49.2963 26.5906 50.0463 26.9736 50.1819C26.9949 50.1872 27.0135 50.1979 27.0294 50.2138L29.5265 51.1951L34.7043 51.7695L46.3283 50.884C46.3336 50.884 46.3389 50.884 46.3442 50.884Z" fill="#070D13"/>
<path d="M64.4857 39.836C66.3685 48.6836 64.8926 56.4861 61.1748 57.26C57.465 58.0338 52.9255 51.4998 51.0427 42.6522C49.1599 33.8046 50.6358 26.002 54.3536 25.2282C58.0634 24.4543 62.6029 30.9963 64.4857 39.836Z" fill="white"/>
<path fill-rule="evenodd" clip-rule="evenodd" d="M60.5688 57.4976C58.8695 57.4976 57.0106 56.1653 55.2794 53.6682C53.3487 50.8838 51.785 46.9905 50.8675 42.6904C49.4794 36.1723 49.8703 29.9814 51.8648 26.9098C52.5429 25.8727 53.3647 25.2504 54.314 25.051C56.1889 24.66 58.2951 26.0003 60.2497 28.8166C62.1804 31.6009 63.7441 35.4942 64.6616 39.7944C66.0497 46.3124 65.6588 52.5113 63.6643 55.5749C62.9862 56.6121 62.1644 57.2343 61.215 57.4338C61.0023 57.4763 60.7869 57.4976 60.5688 57.4976ZM54.9682 25.3461C54.7714 25.3461 54.5773 25.3648 54.3858 25.402C53.5322 25.5775 52.7902 26.1519 52.168 27.1093C50.2213 30.101 49.8463 36.1803 51.2186 42.6106C53.0854 51.3466 57.5372 57.8407 61.1432 57.0828C61.9969 56.9072 62.7388 56.3328 63.3611 55.3755C65.3078 52.3837 65.6827 46.3044 64.3105 39.8741C62.5474 31.6009 58.4626 25.3461 54.9682 25.3461Z" fill="#070D13"/>
<path d="M60.1464 54.848C58.7104 54.848 57.1547 53.7311 55.7027 51.6328C54.0911 49.3032 52.7747 46.0482 52.0088 42.4501C50.852 36.9931 51.1791 31.8154 52.8465 29.2465C53.421 28.3689 54.115 27.8423 54.9128 27.6748C57.035 27.236 59.5481 29.5097 61.4788 33.6264C61.5266 33.7142 61.4868 33.8179 61.399 33.8658C61.3033 33.9056 61.1995 33.8658 61.1517 33.778C59.3008 29.8209 56.9313 27.619 54.9847 28.0338C54.2826 28.1774 53.6683 28.6561 53.1497 29.4379C51.5302 31.9351 51.219 37.0091 52.3679 42.3703C53.9156 49.6543 57.6174 55.0714 60.6171 54.4411C63.3297 53.8747 64.5982 48.4576 63.561 41.8518C63.5451 41.756 63.6169 41.6603 63.7126 41.6443C63.8084 41.6284 63.9041 41.7002 63.9201 41.7959C64.4306 45.051 64.3987 48.1464 63.8323 50.5319C63.2499 52.9811 62.133 54.489 60.6889 54.7921C60.5081 54.8294 60.3273 54.848 60.1464 54.848Z" fill="#070D13"/>
<path d="M57.3617 41.3426C57.7686 43.2733 57.4494 44.9806 56.6357 45.1561C55.8219 45.3237 54.8326 43.8876 54.4178 41.9569C54.0029 40.0183 54.33 38.311 55.1438 38.1434C55.9575 37.9679 56.9468 39.404 57.3617 41.3426Z" fill="white"/>
<path fill-rule="evenodd" clip-rule="evenodd" d="M56.508 45.347C55.6225 45.347 54.6571 43.9349 54.2423 41.9883C53.9311 40.5283 54.0268 39.1321 54.4816 38.4301C54.6491 38.1748 54.8566 38.0152 55.1039 37.9673C56.0293 37.7679 57.0984 39.2359 57.5372 41.3022C57.8483 42.7621 57.7526 44.1583 57.2978 44.8604C57.1303 45.1236 56.9149 45.2752 56.6756 45.3311C56.6171 45.3417 56.5612 45.347 56.508 45.347ZM55.2714 38.3104C55.2395 38.3104 55.2076 38.3131 55.1757 38.3184C55.0268 38.3503 54.8965 38.454 54.7848 38.6295C54.3859 39.2438 54.3061 40.5682 54.5933 41.9165C55.0161 43.8791 55.9815 45.0997 56.5958 44.9721C56.7447 44.9455 56.8777 44.8418 56.9947 44.6609C57.3936 44.0466 57.4734 42.7302 57.1861 41.374C56.7872 39.5071 55.8857 38.3104 55.2714 38.3104Z" fill="#070D13"/>
<path fill-rule="evenodd" clip-rule="evenodd" d="M58.9894 57.1566C58.9735 57.1566 58.9575 57.154 58.9416 57.1487L58.8458 57.1168C58.8352 57.1168 58.8272 57.1141 58.8219 57.1088L46.3044 51.2529L34.7123 52.1305C34.7016 52.1305 34.691 52.1305 34.6804 52.1305L29.4627 51.5561C29.4468 51.5508 29.4335 51.5454 29.4228 51.5401L26.83 50.5189C26.8087 50.5136 26.7901 50.503 26.7741 50.487C26.2316 50.2317 25.713 49.3302 25.4737 48.2053C25.2184 47.0086 25.3461 45.9395 25.7848 45.5327L25.7928 45.5247L27.8591 43.4344C27.8698 43.4238 27.8831 43.4158 27.899 43.4105L32.4465 40.7139C32.4518 40.7033 32.4598 40.698 32.4704 40.698L43.2887 36.7249L52.3198 26.2657C52.3836 26.1859 52.4953 26.1779 52.5751 26.2418C52.607 26.2737 52.6309 26.3136 52.6389 26.3614C52.6389 26.4093 52.6309 26.4651 52.599 26.4971C50.3013 29.2016 49.7588 35.6718 51.2348 42.6127C52.7187 49.5616 55.862 55.2659 59.0692 56.8136C59.157 56.8535 59.1889 56.9492 59.157 57.037C59.133 57.1088 59.0612 57.1566 58.9894 57.1566ZM46.3442 50.8859C46.3708 50.8859 46.3948 50.8912 46.416 50.9019L57.2422 55.9679C54.5616 53.5266 52.1283 48.5404 50.8837 42.6845C49.6471 36.8765 49.8227 31.3637 51.2507 28.0528L43.536 36.9962C43.5147 37.0174 43.4881 37.0334 43.4562 37.044L32.614 41.0251L28.0985 43.7057L26.0481 45.772C26.0428 45.7773 26.0375 45.7826 26.0322 45.788C25.737 46.0512 25.5774 46.9448 25.8247 48.1335C26.08 49.2983 26.5906 50.0482 26.9736 50.1838C26.9949 50.1892 27.0135 50.1998 27.0294 50.2158L29.5265 51.1971L34.7043 51.7715L46.3283 50.8859C46.3336 50.8859 46.3389 50.8859 46.3442 50.8859Z" fill="#070D13"/>
<path d="M43.4249 36.8441L52.456 26.377V26.3849C50.1982 29.0416 49.5361 35.5038 51.0599 42.6521C52.5837 49.8005 55.8387 55.4569 58.99 56.9727L58.9023 56.9408L46.3608 51.077L46.0736 50.9413C44.6136 50.2552 43.1217 47.7022 42.4356 44.4632C41.7415 41.1443 42.2681 38.1685 43.3132 36.9718L43.4249 36.8441Z" fill="#070D13"/>
<path fill-rule="evenodd" clip-rule="evenodd" d="M58.9897 57.1547C58.9738 57.1547 58.9578 57.152 58.9419 57.1467L58.8461 57.1148C58.8355 57.1148 58.8275 57.1121 58.8222 57.1068L45.9935 51.1073C44.4378 50.3654 42.9379 47.7087 42.2598 44.5015C41.6056 41.3741 41.9806 38.2308 43.1773 36.8506L43.289 36.7229L52.3201 26.2637C52.3839 26.184 52.4956 26.176 52.5754 26.2398C52.6073 26.2717 52.6312 26.3116 52.6392 26.3595C52.6392 26.4074 52.6312 26.4632 52.5993 26.4951C50.3017 29.1997 49.7592 35.6698 51.2351 42.6107C52.719 49.5596 55.8624 55.2639 59.0695 56.8116C59.1573 56.8515 59.1892 56.9473 59.1573 57.035C59.1334 57.1068 59.0615 57.1547 58.9897 57.1547ZM51.2511 28.0508L43.5602 36.9623L43.4485 37.0899C42.4991 38.1829 41.9008 41.055 42.6108 44.4297C43.2571 47.4853 44.7091 50.0941 46.1531 50.7802L46.4403 50.9159L57.2426 55.966C54.5619 53.5247 52.1286 48.5384 50.8841 42.6825C49.6475 36.8745 49.823 31.3617 51.2511 28.0508Z" fill="#070D13"/>
<path d="M29.343 51.4984C29.3218 51.4984 29.3005 51.4931 29.2792 51.4825L26.83 50.5171C26.8087 50.5118 26.7901 50.5012 26.7741 50.4852C26.2316 50.2299 25.713 49.3284 25.4737 48.2035C25.2184 47.0068 25.3461 45.9377 25.7848 45.5309L25.7928 45.5229L27.8591 43.4326C27.9309 43.3688 28.0426 43.3688 28.1144 43.4326C28.1862 43.5044 28.1862 43.6161 28.1144 43.6879L26.0481 45.7702C26.0428 45.7755 26.0375 45.7808 26.0322 45.7862C25.737 46.0494 25.5774 46.943 25.8247 48.1317C26.08 49.2965 26.5906 50.0464 26.9736 50.182C26.9949 50.1874 27.0135 50.198 27.0294 50.214L29.4149 51.1474C29.5026 51.1873 29.5505 51.291 29.5106 51.3867C29.4867 51.4585 29.4149 51.4984 29.343 51.4984Z" fill="#070D13"/>
<path d="M29.5102 51.36C28.7044 51.0808 27.8747 49.5968 27.4838 47.7619C27.0689 45.8153 27.3482 43.9963 28.0582 43.5176L25.9281 45.6397L25.9121 45.6557C25.5212 46.0067 25.4095 47.0279 25.6488 48.1608C25.8882 49.2937 26.4147 50.1713 26.9094 50.3468H26.8934L29.5102 51.36Z" fill="#0080FF"/>
<path fill-rule="evenodd" clip-rule="evenodd" d="M29.5106 51.5449C29.4893 51.5449 29.4707 51.5422 29.4547 51.5369C29.4335 51.5263 29.4122 51.5183 29.3909 51.513L26.83 50.5237C26.8087 50.5131 26.7901 50.4998 26.7741 50.4838C26.2316 50.2285 25.713 49.327 25.4737 48.2021C25.2184 47.0054 25.3461 45.9363 25.7848 45.5294L25.7928 45.5215L27.6756 43.6546C27.7607 43.5376 27.8565 43.4445 27.9628 43.3754C28.0347 43.3195 28.1384 43.3355 28.2022 43.4073C28.258 43.4791 28.258 43.5828 28.1862 43.6466L27.9469 43.886C27.5081 44.5003 27.2927 45.9842 27.6597 47.7314C28.0267 49.4387 28.8005 50.8668 29.5186 51.1779L29.5744 51.1939C29.6701 51.2337 29.718 51.3375 29.6781 51.4252C29.6542 51.497 29.5824 51.5449 29.5106 51.5449ZM27.0294 50.2126L28.5612 50.8029C28.0347 50.1248 27.5799 49.0478 27.3087 47.8032C27.0534 46.5905 27.0534 45.4098 27.2767 44.5561L26.0481 45.7688C26.0428 45.7741 26.0375 45.7794 26.0322 45.7847C25.737 46.048 25.5774 46.9416 25.8247 48.1303C26.08 49.2951 26.5906 50.045 26.9736 50.1806C26.9949 50.186 27.0135 50.1966 27.0294 50.2126Z" fill="#070D13"/>
<path d="M34.5052 51.9288L34.7286 51.9448C33.5159 51.865 32.1756 49.6311 31.5772 46.8149C30.9629 43.9348 31.4097 41.3499 32.5346 40.8633L32.383 40.951L28.0749 43.512C27.3569 43.9827 27.0696 45.8097 27.4845 47.7643C27.8914 49.6551 28.7769 51.1629 29.6067 51.3863L34.5052 51.9288Z" fill="white"/>
<path fill-rule="evenodd" clip-rule="evenodd" d="M34.7282 52.1202C34.7282 52.1202 34.7255 52.1202 34.7202 52.1202C34.7149 52.1202 34.7096 52.1202 34.7043 52.1202L34.4968 52.1043C34.4915 52.1043 34.4889 52.1043 34.4889 52.1043L29.5824 51.5618C29.5717 51.5618 29.5638 51.5591 29.5584 51.5538C28.6569 51.3145 27.7315 49.7747 27.3086 47.8041C26.8858 45.7937 27.165 43.8869 27.9788 43.3604L32.1912 40.8552C32.2763 40.7914 32.3667 40.7382 32.4624 40.6957C32.5502 40.6638 32.6539 40.6957 32.6938 40.7834C32.7417 40.8632 32.7098 40.9669 32.63 41.0148L32.3906 41.1584C31.5051 41.8525 31.2179 44.2539 31.7524 46.775C32.3348 49.4875 33.6352 51.6735 34.7282 51.7612H34.7442C34.8399 51.7692 34.9197 51.857 34.9117 51.9527C34.9037 52.0484 34.8239 52.1202 34.7282 52.1202ZM29.6382 51.2028L33.715 51.6575C32.7656 50.8517 31.8721 49.0567 31.4014 46.8468C30.9466 44.7246 31.0503 42.762 31.6008 41.6291L28.1623 43.6715C27.5879 44.0385 27.2289 45.7059 27.6597 47.7323C28.0426 49.5034 28.8883 50.9874 29.6382 51.2028Z" fill="#070D13"/>
<path d="M55.1444 38.1426C54.3307 38.3101 53.9717 40.0254 54.4184 41.9561C55.1684 45.1872 56.4688 45.1872 56.6284 45.1712V45.1792L53.4371 46.5674C52.9664 45.2749 52.5596 43.8788 52.2484 42.4029C51.9453 40.9828 51.7458 39.5946 51.6421 38.2782L55.1444 38.1426Z" fill="#0080FF"/>
<path fill-rule="evenodd" clip-rule="evenodd" d="M53.4374 46.7508C53.4108 46.7508 53.3869 46.7455 53.3656 46.7348C53.3177 46.7109 53.2858 46.679 53.2699 46.6311C52.7832 45.2988 52.3763 43.8946 52.0732 42.4347C51.77 41.0385 51.5706 39.6503 51.4668 38.2941C51.4589 38.2462 51.4748 38.1983 51.5147 38.1584C51.5466 38.1265 51.5865 38.1026 51.6424 38.1026L55.1367 37.959C55.2245 37.959 55.3122 38.0228 55.3202 38.1185C55.3362 38.2143 55.2724 38.2941 55.1766 38.318C55.0224 38.3499 54.8868 38.4589 54.7697 38.6451C54.3629 39.2833 54.2911 40.5997 54.5942 41.9161C55.3282 45.0594 56.5568 45.0036 56.6127 44.9956C56.7004 44.9876 56.7882 45.0515 56.8041 45.1312C56.8281 45.219 56.7802 45.3068 56.7004 45.3466L53.5092 46.7348C53.4826 46.7455 53.4587 46.7508 53.4374 46.7508ZM51.8418 38.4536C51.9455 39.7301 52.137 41.0465 52.4242 42.3629C52.7114 43.7351 53.0864 45.0674 53.5411 46.3279L56.0702 45.227C55.5277 44.9637 54.7538 44.1978 54.2432 41.9959C53.9161 40.5678 53.9959 39.1796 54.4666 38.4536C54.4879 38.4164 54.5118 38.3792 54.5384 38.3419L51.8418 38.4536Z" fill="#070D13"/>
<path d="M14.7994 56.6766L14.0894 50.9883L19.0437 52.5201L19.5463 55.8549C19.666 56.7484 18.9958 57.3787 18.9958 57.3787C18.1821 58.2323 16.8577 58.3361 15.7967 57.8334L15.5493 57.7217C15.1425 57.5303 14.8552 57.1314 14.7994 56.6766Z" fill="white"/>
<path fill-rule="evenodd" clip-rule="evenodd" d="M17.1369 58.3197C16.6662 58.3197 16.1795 58.216 15.7168 58.0006L15.4775 57.8809C15.0068 57.6655 14.6797 57.2187 14.6159 56.7002L13.9058 51.0039C13.8978 50.948 13.9218 50.8842 13.9696 50.8443C14.0175 50.8044 14.0813 50.7964 14.1372 50.8124L19.0915 52.3442C19.1633 52.3681 19.2112 52.424 19.2192 52.4878L19.7218 55.8226C19.8494 56.8039 19.1474 57.482 19.1234 57.506C18.6128 58.0405 17.8948 58.3197 17.1369 58.3197ZM14.9749 56.6603C15.0227 57.0512 15.2701 57.3863 15.6291 57.5538L15.8764 57.6735C16.9295 58.1681 18.1581 57.9926 18.8681 57.2507C18.8761 57.2427 19.4665 56.6683 19.3628 55.8784L18.8841 52.6553L14.2967 51.2352L14.9749 56.6603Z" fill="#070D13"/>
<path d="M18.5489 42.5315C17.3442 42.7948 19.1792 43.6006 14.4323 43.5527C12.5335 43.5367 13.9935 45.3318 13.5068 45.3318C11.6878 45.3158 11.7516 45.3158 10.9937 45.7626C10.4911 46.0578 10.4193 47.1588 10.7305 47.8768C11.1373 48.8262 12.0229 48.8581 13.3313 50.7409C14.2488 52.0573 14.3684 52.9827 15.0147 53.0306C15.6689 53.0785 15.8843 52.161 16.6023 52.161C17.5277 52.161 17.7751 53.7007 18.7883 54.0837C19.4265 54.323 20.711 54.1555 22.4103 52.6397C22.6816 52.3923 22.7454 51.9855 22.5539 51.6663C22.3146 51.2595 22.0034 50.7489 21.6604 50.2861C20.0488 48.0682 19.0117 47.7571 19.1473 47.0231C19.3627 45.9062 21.3732 45.9461 21.4609 45.0526C21.5407 44.1271 20.2084 42.1645 18.5489 42.5315Z" fill="#070D13"/>
<path d="M15.5967 47.9638L16.1153 48.4983C16.3599 48.7536 16.586 49.0249 16.7934 49.3121C17.1843 49.8466 17.8545 50.7641 18.2693 51.2507C18.8836 51.9608 21.2132 50.2216 21.2132 50.2216L21.2292 49.6711L21.4924 49.4637C21.5483 49.4238 21.5882 49.3679 21.6121 49.3121C21.6759 49.1525 21.6281 48.993 21.5164 48.8892C20.8702 48.3467 19.5059 47.1101 18.7879 45.8496C18.7879 45.8496 16.7136 45.8975 15.5967 47.9638Z" fill="white"/>
<path fill-rule="evenodd" clip-rule="evenodd" d="M18.7163 51.5935C18.477 51.5935 18.2775 51.5297 18.1339 51.3622C17.7111 50.8675 17.025 49.9341 16.65 49.4155C16.4506 49.1363 16.2272 48.873 15.9878 48.6257L15.4693 48.0832C15.4134 48.0273 15.4055 47.9476 15.4453 47.8758C16.5942 45.7456 18.7004 45.6738 18.7881 45.6738C18.852 45.6738 18.9158 45.7057 18.9477 45.7616C19.6577 47.0141 21.0619 48.2667 21.6283 48.7533C21.8118 48.9049 21.8756 49.1523 21.7799 49.3756C21.748 49.4634 21.6842 49.5432 21.6044 49.607L21.4049 49.7586L21.389 50.2293C21.389 50.2851 21.365 50.333 21.3172 50.3649C20.9901 50.6122 19.6099 51.5935 18.7163 51.5935ZM15.8203 47.9316L16.2511 48.3784C16.4984 48.6337 16.7298 48.9129 16.9372 49.2081C17.3122 49.7187 17.9903 50.6441 18.4052 51.1308C18.7482 51.5217 20.1205 50.7957 21.03 50.1256L21.0459 49.6628C21.0459 49.615 21.0699 49.5591 21.1177 49.5272L21.381 49.3198C21.4129 49.2932 21.4368 49.2666 21.4528 49.24C21.4767 49.1682 21.4608 49.0804 21.397 49.0246C20.6949 48.4262 19.4184 47.2615 18.6924 46.0408C18.2775 46.0807 16.7537 46.328 15.8203 47.9316Z" fill="#070D13"/>
<path d="M16.6977 50.0485C16.6977 50.0485 15.4611 48.7481 14.9904 49.4422C14.5277 50.1363 15.9318 51.5324 16.6977 50.0485Z" fill="white"/>
<path d="M86.7925 30.8751L68.4909 34.5769C67.9085 34.6886 67.334 34.3136 67.2144 33.7312L66.999 32.6622C66.8793 32.0798 67.2622 31.5053 67.8446 31.3936L86.1462 27.6918C86.7286 27.5722 87.3031 27.9551 87.4227 28.5375L87.6381 29.5986C87.7578 30.181 87.3749 30.7554 86.7925 30.8751Z" fill="white"/>
<path fill-rule="evenodd" clip-rule="evenodd" d="M68.2754 34.7743C67.6851 34.7743 67.1585 34.3594 67.0388 33.7611L66.8234 32.7C66.6878 32.0139 67.1266 31.3517 67.8047 31.2081L86.1143 27.5143C86.4414 27.4505 86.7765 27.5143 87.0637 27.6978C87.3429 27.8893 87.5344 28.1685 87.5982 28.4956L87.8136 29.5646C87.8775 29.8917 87.8136 30.2268 87.6301 30.514C87.4387 30.7933 87.1594 30.9847 86.8323 31.0486L68.5227 34.7504C68.4376 34.7663 68.3552 34.7743 68.2754 34.7743ZM86.3616 27.8494C86.3031 27.8494 86.2446 27.8547 86.1861 27.8653L67.8765 31.5671C67.3899 31.6629 67.0787 32.1416 67.1745 32.6282L67.3899 33.6893C67.4377 33.9286 67.5734 34.1281 67.7728 34.2637C67.9802 34.3914 68.2196 34.4392 68.4509 34.3993L86.7605 30.6975C86.9919 30.6497 87.1914 30.514 87.327 30.3146C87.4626 30.1072 87.5105 29.8678 87.4626 29.6364L87.2472 28.5674C87.1993 28.336 87.0637 28.1366 86.8642 28.001C86.7127 27.8972 86.5372 27.8494 86.3616 27.8494Z" fill="#070D13"/>
<path d="M106.148 26.7833L90.5745 29.9266C89.9922 30.0463 89.4177 29.6633 89.2981 29.0809L89.0827 28.0199C88.971 27.4375 89.3459 26.8631 89.9283 26.7434L105.501 23.6C106.084 23.4804 106.658 23.8633 106.778 24.4457L106.993 25.5068C107.105 26.0892 106.73 26.6636 106.148 26.7833Z" fill="white"/>
<path fill-rule="evenodd" clip-rule="evenodd" d="M90.3592 30.1326C89.7689 30.1326 89.2423 29.7177 89.1226 29.1194L88.9072 28.0503C88.8434 27.7232 88.9072 27.3881 89.0987 27.1089C89.2822 26.8217 89.5694 26.6302 89.8965 26.5664L105.47 23.423C106.148 23.2874 106.81 23.7262 106.954 24.4043L107.169 25.4734C107.305 26.1515 106.866 26.8217 106.18 26.9573L90.6066 30.1007C90.5215 30.1219 90.439 30.1326 90.3592 30.1326ZM105.717 23.7581C105.658 23.7581 105.6 23.7634 105.541 23.7741L89.9683 26.9174C89.729 26.9653 89.5295 27.1009 89.3939 27.3083C89.2583 27.5078 89.2104 27.7471 89.2583 27.9785L89.4737 29.0476C89.5774 29.5342 90.0481 29.8454 90.5348 29.7496L106.108 26.6063C106.595 26.5026 106.914 26.0319 106.81 25.5452L106.595 24.4761C106.515 24.0533 106.132 23.7581 105.717 23.7581Z" fill="#070D13"/>
<path d="M100.851 34.4669L69.9121 40.7217C69.3297 40.8333 68.7553 40.4584 68.6436 39.876L68.4282 38.8069C68.3085 38.2245 68.6914 37.6501 69.2738 37.5384L100.205 31.2836C100.787 31.164 101.361 31.5469 101.473 32.1293L101.689 33.1984C101.808 33.7808 101.433 34.3472 100.851 34.4669Z" fill="white"/>
<path fill-rule="evenodd" clip-rule="evenodd" d="M69.6963 40.9191C69.457 40.9191 69.2096 40.8473 69.0022 40.7037C68.723 40.5202 68.5315 40.233 68.4597 39.9059L68.2523 38.8448C68.1805 38.5097 68.2443 38.1746 68.4358 37.8954C68.6193 37.6162 68.9065 37.4247 69.2336 37.3529L100.164 31.1061C100.5 31.0423 100.835 31.1061 101.114 31.2896C101.393 31.4811 101.585 31.7603 101.656 32.0954L101.872 33.1564C101.936 33.4835 101.872 33.8266 101.68 34.1058C101.497 34.3851 101.21 34.5765 100.882 34.6404L69.9516 40.8951C69.8665 40.9111 69.7814 40.9191 69.6963 40.9191ZM100.42 31.4412C100.361 31.4412 100.3 31.4465 100.236 31.4571L69.3054 37.7119C69.074 37.7598 68.8666 37.8954 68.739 38.0948C68.6033 38.2943 68.5555 38.5336 68.6033 38.773L68.8187 39.8341C68.8666 40.0734 69.0022 40.2729 69.2017 40.4085C69.4011 40.5361 69.6405 40.584 69.8798 40.5361L100.811 34.2893C101.042 34.2415 101.249 34.1058 101.385 33.9064C101.513 33.7069 101.561 33.4676 101.513 33.2282L101.297 32.1672C101.249 31.9278 101.114 31.7284 100.914 31.5927C100.763 31.497 100.595 31.4412 100.42 31.4412Z" fill="#070D13"/>
<path d="M33.596 109.354L33.5962 109.356C33.6297 109.518 33.6673 109.68 33.7091 109.842L43.0759 118.359C44.1412 118.271 45.3258 118.013 46.6531 117.551L61.4577 111.217L61.458 111.217C62.1414 110.926 62.4658 110.124 62.1833 109.422L62.1787 109.414L62.1723 109.399C61.8796 108.692 61.0816 108.366 60.3978 108.658C60.3978 108.658 60.3978 108.658 60.3978 108.658L53.9679 111.408L53.9674 111.408C53.3882 111.654 52.723 111.377 52.4811 110.791C52.2361 110.211 52.5014 109.537 53.0783 109.287L53.0791 109.287L63.806 104.7L63.8062 104.7C64.4949 104.407 64.8222 103.594 64.5253 102.886L64.525 102.885C64.2326 102.181 63.4337 101.852 62.7505 102.144C62.7505 102.144 62.7505 102.144 62.7504 102.144L53.1679 106.246L53.1672 106.246C52.5878 106.492 51.9222 106.215 51.6806 105.629C51.4405 105.046 51.7034 104.371 52.2835 104.125L64.4388 98.9205L64.4395 98.9203C65.2864 98.5611 65.6876 97.5642 65.325 96.6938C64.963 95.8247 63.9833 95.4237 63.1418 95.7854L63.1415 95.7856L50.9811 100.986L50.9805 100.987C50.4013 101.232 49.736 100.955 49.4942 100.37C49.249 99.7861 49.5178 99.1108 50.0922 98.8655C50.0923 98.8655 50.0923 98.8655 50.0924 98.8655L58.2417 95.3817L33.596 109.354ZM33.596 109.354C32.9246 106.189 33.6105 103.041 35.334 100.791L35.3342 100.791L35.3396 100.783C35.5985 100.41 36.2621 99.4307 37.0551 98.2606C37.4738 97.6429 37.9285 96.9719 38.3787 96.3089C39.6859 94.3838 40.9471 92.5375 41.1953 92.2255C41.7943 91.4825 42.4847 90.459 42.7893 89.4039L42.7897 89.4024C42.9304 88.9002 43.2256 88.4763 43.5667 88.0382C43.5677 88.0374 43.569 88.0363 43.5706 88.035C43.5797 88.0278 43.5938 88.0175 43.6132 88.0047C43.6518 87.9791 43.7058 87.9471 43.7714 87.9138C43.9034 87.8466 44.073 87.7787 44.2483 87.7443C44.4248 87.7097 44.5917 87.712 44.7304 87.767C44.8621 87.8192 44.9895 87.9268 45.0803 88.1477L45.0806 88.1482C45.4449 89.0262 45.4999 90.2002 45.3207 91.1483C45.1132 92.2215 44.6094 93.7215 43.3964 95.3352L43.3957 95.3363C42.9645 95.9177 42.8051 96.6985 43.0761 97.3959L43.0762 97.3961C43.1361 97.5496 43.2107 97.6929 43.3341 97.7796C43.4718 97.8762 43.6253 97.8739 43.7684 97.8413C43.9061 97.81 44.0705 97.7422 44.2597 97.6613C44.2941 97.6466 44.3297 97.6313 44.3667 97.6154C44.5395 97.541 44.7421 97.4539 44.9866 97.3582L44.9867 97.3583L44.9925 97.3558L46.7041 96.6226L46.7042 96.6225L56.94 92.243L56.9401 92.243M33.596 109.354L56.9401 92.243M56.9401 92.243C57.7853 91.8808 58.7656 92.2855 59.1278 93.1548M56.9401 92.243L59.1278 93.1548M59.1278 93.1548C59.4862 94.0219 59.0886 95.0186 58.2418 95.3816L59.1278 93.1548Z" stroke="#070D13" stroke-width="0.4"/>
</svg>
