<svg width="44" height="59" viewBox="0 0 44 59" fill="none" xmlns="http://www.w3.org/2000/svg">
<g opacity="0.4">
<path d="M21.4202 29.5694C22.2586 29.5694 23.0969 29.5048 23.8837 29.3624C24.7995 29.2072 26.1151 28.8967 27.1212 28.2497C27.2759 28.2109 27.4178 28.1721 27.5726 28.1204C30.049 27.3311 31.4807 25.4033 31.4936 22.8157C31.4936 22.4534 31.2099 22.1688 30.8487 22.1688C30.5005 22.1688 30.2038 22.4534 30.2038 22.8157C30.1909 24.5882 29.3912 25.6233 28.5271 26.2314C28.6173 25.3128 28.1272 24.3424 27.0438 23.3462C25.999 22.3887 24.864 21.4572 23.5742 21.5866C22.71 21.6771 21.9103 22.2335 21.1235 23.2815C19.9369 24.8987 20.4528 26.1149 20.8656 26.6842C21.3428 27.357 22.1554 27.8616 23.1227 28.1592C20.2981 28.5085 17.4218 27.9651 16.6479 26.8783C15.8482 25.7527 15.7321 24.1613 16.3125 22.13C16.5834 22.1947 16.8672 22.2205 17.1509 22.2335C20.0788 22.3758 20.6334 21.0043 20.7366 20.4092C20.9172 19.3094 20.1046 18.0932 18.9438 17.7569C18.4665 17.6145 16.8285 17.3428 15.7966 19.7623C15.745 19.8787 15.7063 19.9822 15.6547 20.0987C15.5902 19.9434 15.5386 19.7493 15.5 19.5165C15.2807 18.2614 15.4484 17.3946 16.0159 16.9547C16.7769 16.3595 18.3762 16.463 20.0788 17.2264C21.6008 17.9121 23.1485 17.5887 24.1417 16.7865C24.5673 16.8253 25.0317 16.8253 25.5476 16.7477C25.999 16.683 26.5021 16.3466 27.1857 15.8808C28.024 15.3115 29.3009 14.4576 29.8943 14.7034C30.2038 14.8328 30.3586 15.3374 30.4489 15.7385C30.5134 16.0878 30.8616 16.3207 31.2099 16.2431C31.5581 16.1784 31.7903 15.8291 31.7129 15.4797C31.5065 14.4447 31.068 13.7848 30.3973 13.5002C29.1591 12.9827 27.6758 13.9918 26.4763 14.794C26.0893 15.0528 25.5476 15.415 25.367 15.4538C25.2638 15.4668 25.1735 15.4797 25.0833 15.4797C25.4573 14.4576 25.0317 13.4743 23.9998 13.0085C22.4778 12.3228 21.7169 12.8662 21.4589 13.1379C21.0075 13.6166 20.943 14.3541 21.3041 15.0657C21.5105 15.4668 21.8845 15.8937 22.4133 16.2043C21.8845 16.3336 21.2654 16.3078 20.6076 16.0102C18.402 15.0269 16.3899 14.9881 15.2291 15.8937C14.5584 16.4113 13.849 17.4981 14.2359 19.6976C14.3907 20.5903 14.7132 21.1596 15.1388 21.5219C14.3778 24.0578 14.5326 26.0891 15.6031 27.5899C16.5576 28.9743 18.9824 29.5694 21.4202 29.5694ZM26.5794 27.0465C24.606 27.4476 22.5681 26.8524 21.9232 25.9338C21.7813 25.7397 21.3557 25.1446 22.1683 24.0448C22.7229 23.2944 23.2259 22.9063 23.7032 22.8674C24.3868 22.8028 25.1864 23.3979 26.1796 24.3036C26.76 24.8341 27.4049 25.6104 27.2115 26.2702C27.1341 26.5419 26.9148 26.8007 26.5794 27.0465ZM18.3246 18.9601C18.402 18.9601 18.4923 18.973 18.5826 18.9989C19.0985 19.1542 19.5371 19.7493 19.4597 20.2022C19.3694 20.7326 18.5052 21.0173 17.2154 20.9526C17.0348 20.9397 16.8801 20.9267 16.7253 20.9138C16.8027 20.7068 16.893 20.4998 16.9832 20.2798C17.2154 19.7493 17.6539 18.9601 18.3246 18.9601ZM22.6584 13.9918C22.8261 13.9918 23.0969 14.0436 23.4839 14.2118C23.6516 14.2894 24.1417 14.5094 23.8579 15.1433C23.8192 15.221 23.7677 15.3115 23.7161 15.3892C23.0583 15.208 22.6584 14.8458 22.4778 14.4964C22.3618 14.2635 22.3747 14.0953 22.4133 14.0436C22.4391 14.0306 22.5165 13.9918 22.6584 13.9918Z" fill="#909498" stroke="white" stroke-width="0.4"/>
<path d="M17.0232 49.6995C17.3843 49.6995 17.6681 49.4148 17.6681 49.0525V41.5613C17.6681 41.199 17.3843 40.9144 17.0232 40.9144H8.60071C7.80102 40.9144 7.14322 40.2546 7.14322 39.4524V31.4824C7.14322 31.1202 6.85946 30.8355 6.49832 30.8355H2.95133C2.64178 30.8355 2.30643 30.5897 2.29353 30.4733L4.49911 25.285C4.5507 25.1686 4.5636 25.0263 4.5378 24.8969C4.27984 23.6548 4.15086 22.3869 4.15086 21.106C4.15086 10.7166 12.5733 2.26795 22.9305 2.26795C33.2877 2.26795 41.7102 10.7425 41.7102 21.1319C41.7102 26.2683 40.1108 28.7007 38.2535 31.5083C35.9318 35.0275 33.3006 39.0125 33.3006 49.0525C33.3006 49.4148 33.5844 49.6995 33.9455 49.6995C34.3067 49.6995 34.5904 49.4148 34.5904 49.0525C34.5904 39.3877 37.1056 35.5839 39.324 32.2199C41.2072 29.3606 43 26.6565 43 21.1319C43 10.0309 33.9971 1 22.9305 1C11.8639 1 2.87394 10.0309 2.87394 21.1319C2.87394 22.4257 3.00293 23.7195 3.23509 24.9745L1.1069 29.9816C0.926328 30.3956 0.977921 30.8485 1.23588 31.2366C1.58413 31.7671 2.29353 32.1294 2.95133 32.1294H5.84051V39.4524C5.84051 40.9791 7.07873 42.2082 8.58781 42.2082H16.3654V49.0525C16.3783 49.4148 16.662 49.6995 17.0232 49.6995Z" fill="#909498" stroke="white" stroke-width="0.4"/>
<path d="M17.0225 42.2196H25.5868C25.948 42.2196 26.2317 41.935 26.2317 41.5727C26.2317 41.2104 25.948 40.9258 25.5868 40.9258H17.0225C16.6613 40.9258 16.3775 41.2104 16.3775 41.5727C16.3775 41.935 16.6613 42.2196 17.0225 42.2196Z" fill="#909498" stroke="white" stroke-width="0.4"/>
<path d="M22.9436 35.4563C30.8115 35.4563 37.2219 29.0389 37.2219 21.1336C37.2219 13.2284 30.8115 6.81104 22.9436 6.81104C15.0758 6.81104 8.66542 13.2413 8.66542 21.1336C8.66542 29.026 15.0758 35.4563 22.9436 35.4563ZM22.9436 8.10486C30.1021 8.10486 35.932 13.9529 35.932 21.1336C35.932 28.3144 30.1021 34.1624 22.9436 34.1624C15.7852 34.1624 9.95523 28.3144 9.95523 21.1336C9.95523 13.9529 15.7852 8.10486 22.9436 8.10486Z" fill="#909498" stroke="white" stroke-width="0.4"/>
<path d="M11.7093 58.188H39.4789C39.8401 58.188 40.1238 57.9034 40.1238 57.5411V53.2974C40.1238 50.5933 37.9312 48.4067 35.2484 48.4067H15.9399C13.2442 48.4067 11.0644 50.6062 11.0644 53.2974V57.5411C11.0644 57.9034 11.3481 58.188 11.7093 58.188ZM38.834 56.8942H12.3542V53.2974C12.3542 51.3178 13.9665 49.7006 15.9399 49.7006H35.2484C37.2218 49.7006 38.834 51.3178 38.834 53.2974V56.8942Z" fill="#909498" stroke="white" stroke-width="0.4"/>
</g>
</svg>
