<svg width="17" height="17" viewBox="0 0 17 17" fill="none" xmlns="http://www.w3.org/2000/svg">
<path d="M16.2196 7.27816L16.2128 7.34729L16.2355 7.40808C16.2354 7.40991 16.237 7.42891 16.2243 7.4731C16.2087 7.52736 16.1829 7.58169 16.1574 7.63404L16.1412 7.66728L16.1336 7.70345C15.6581 9.95425 13.8678 11.2946 11.7906 12.423C11.2742 12.7036 10.7454 12.9683 10.2192 13.2304C10.1848 13.2476 10.1504 13.2647 10.116 13.2818C9.62611 13.5258 9.13901 13.7683 8.67459 14.0167C7.85167 14.457 7.07943 14.9261 6.46389 15.4783C6.1658 14.681 5.68468 13.8907 5.14083 13.1059C4.81414 12.6344 4.46032 12.1588 4.10463 11.681L4.08915 11.6602C3.73753 11.188 3.3841 10.7133 3.04702 10.2309C1.6708 8.26127 0.629988 6.2461 1.15602 4.01827L1.16511 3.97975L1.16391 3.94019C1.16066 3.8335 1.16979 3.77302 1.17911 3.73595C1.18835 3.69918 1.20037 3.67311 1.22486 3.62285L1.23628 3.5994L1.24349 3.57434C1.763 1.76759 3.70731 0.733566 5.6878 1.22734C7.32855 1.67441 8.43775 2.92386 8.72376 4.34015L8.86172 5.02327L9.26308 4.45354C10.0419 3.34796 11.6772 2.73867 13.2074 3.13314L13.2074 3.13315L13.2095 3.13367C15.1868 3.62816 16.4053 5.39309 16.2196 7.27816Z" stroke="#909498" stroke-width="0.6" />
</svg>
