<svg width="27" height="26" viewBox="0 0 27 26" fill="none" xmlns="http://www.w3.org/2000/svg">
<path d="M26.2397 4.77419L26.263 4.83882L26.3121 4.88684C26.3445 4.91842 26.38 4.98915 26.4013 5.11406C26.4215 5.23249 26.4221 5.35536 26.4221 5.45495V5.49097L26.4306 5.52597C27.3987 9.49968 25.6179 13.0224 23.2971 16.3634C22.7186 17.1963 22.1099 18.0132 21.5055 18.821C21.4661 18.8737 21.4267 18.9263 21.3873 18.979C20.824 19.7316 20.2662 20.4768 19.7473 21.2138C18.7563 22.6212 17.8917 24.019 17.3873 25.4185C16.3354 24.3275 14.9539 23.4058 13.4505 22.5391C12.6099 22.0546 11.7247 21.5836 10.8314 21.109L10.7914 21.0877C9.90973 20.6192 9.02035 20.1467 8.14971 19.6494C4.60375 17.6239 1.45656 15.2342 0.585255 11.2607L0.57695 11.2228L0.559289 11.1883C0.468516 11.0109 0.429324 10.89 0.410927 10.8001C0.392576 10.7104 0.39199 10.6396 0.39199 10.5423V10.5169L0.38772 10.4919C-0.183506 7.14254 2.09936 3.95793 5.5587 3.20511C8.44902 2.64138 11.1343 3.77189 12.6658 5.82973L13.0918 6.40219L13.2028 5.69727C13.583 3.28196 15.6876 1.02813 18.374 0.465578L18.3762 0.465105C21.8322 -0.285404 25.089 1.58811 26.2397 4.77419Z" stroke="#909498" stroke-width="0.6"/>
</svg>
