<svg width="39" height="83" viewBox="0 0 39 83" fill="none" xmlns="http://www.w3.org/2000/svg">
<path opacity="0.4" d="M9.9709 8.2072L9.94872 8.2536L9.92551 8.27681C9.92162 8.28634 9.9168 8.3003 9.90796 8.32717L9.90658 8.33134C9.89786 8.35789 9.88393 8.40026 9.86522 8.44177C9.85307 8.46871 9.83652 8.50097 9.81349 8.53421C9.00044 10.9963 9.88613 13.3779 11.1307 15.7165C11.4425 16.3024 11.7741 16.8807 12.1039 17.4547L12.1377 17.5136C12.4553 18.0662 12.7709 18.6153 13.0604 19.1563C13.5676 20.104 14.0054 21.0456 14.2417 21.9705C14.9959 21.3931 15.9193 20.9284 16.9003 20.5022C17.4561 20.2606 18.037 20.0288 18.6216 19.7955L18.6992 19.7645C19.3115 19.5201 19.9276 19.2732 20.5324 19.0079C22.9622 17.9424 25.1258 16.614 25.9665 14.1374C26.0011 14.0328 26.0387 13.9481 26.0639 13.8914C26.0705 13.8765 26.0763 13.8636 26.0809 13.8527C26.103 13.8006 26.1049 13.7859 26.1048 13.767L26.1046 13.7352L26.1112 13.704C26.5379 11.6711 25.3634 9.47733 23.3237 8.73686C21.6376 8.2196 19.8196 8.72808 18.7399 9.95316L18.2772 10.4781L18.216 9.78107C18.0608 8.01526 16.9541 6.48769 15.2903 5.97441L15.2903 5.9745L15.2828 5.97199C13.0894 5.23196 10.9111 6.24002 9.9709 8.2072Z" stroke="#909498" stroke-width="0.6"/>
<path opacity="0.4" d="M1.48018 25.8564L1.51441 25.9076L1.52192 25.9479C1.56367 25.9613 1.61985 25.9774 1.70169 26.0009L1.78567 26.025L1.84359 26.0904C2.72053 27.0803 3.95828 27.2926 5.30731 27.3343C5.6334 27.3443 5.96073 27.3444 6.2886 27.3445L6.31584 27.3446C6.651 27.3447 6.98711 27.3451 7.31304 27.3571C7.77529 27.3741 8.23203 27.4146 8.65655 27.5171C8.60975 27.0778 8.63397 26.6114 8.68436 26.1421C8.71986 25.8114 8.7694 25.4714 8.81961 25.1319C8.82294 25.1094 8.82627 25.0869 8.8296 25.0644C8.87679 24.7455 8.92393 24.4271 8.96183 24.1084C9.12399 22.7451 9.10092 21.4808 8.25207 20.5L8.08912 20.3883L8.0779 20.3806L8.06741 20.3719C7.15221 19.6142 5.9599 19.5777 5.23781 20.2814L5.2327 20.2864L5.22736 20.2911C4.57806 20.8663 4.32844 21.8096 4.58911 22.4587L4.84186 23.088L4.20619 22.8517C3.35793 22.5364 2.4759 22.5759 1.86171 23.12L1.86175 23.12L1.85689 23.1241C1.39518 23.5159 1.1543 23.9691 1.09664 24.4272C1.0388 24.8868 1.16179 25.3803 1.48018 25.8564Z" stroke="#909498" stroke-width="0.6"/>
<path opacity="0.4" d="M38.4081 75.5835C38.4081 75.5835 30.2996 64.3433 25.2907 52.5752C24.9275 51.8249 26.3212 49.764 26.5799 48.689C27.0961 46.9113 25.934 44.436 25.8284 42.9829C25.759 41.642 26.3155 38.488 25.7329 37.8085C25.1503 37.129 24.3825 37.3768 24.0162 37.7429C23.3208 38.2152 22.6235 39.4317 22.6214 40.1759C22.5087 41.3277 23.2321 43.9446 22.7199 44.2339C22.3174 44.4877 21.5899 43.3592 21.3353 42.9457C19.9176 40.4289 18.362 34.8582 16.6887 32.3C16.1795 31.4728 15.3755 31.6084 14.9367 31.75C14.6439 31.9684 14.2404 32.5943 14.4577 33.2678C15.2194 35.2527 16.78 38.9628 17.2489 41.1662C17.2851 41.2784 16.8464 41.42 16.8101 41.3078C15.647 39.2045 13.6858 35.0041 12.3395 33.0839C11.7941 32.1445 10.9549 31.7957 10.5524 32.0495C9.82081 32.4095 9.855 33.266 9.99989 33.715C10.6157 35.6231 13.9252 40.9995 14.5047 42.7953C14.5409 42.9076 14.1384 43.1614 14.1022 43.0492C12.5375 40.8277 10.0632 37.2886 8.64337 35.516C8.27911 35.1378 7.54855 35.1257 7.18226 35.4918C6.52313 36.0763 6.95882 37.0511 7.21339 37.4647C8.37659 39.5679 11.3993 42.93 12.4156 45.3285C12.5605 45.7775 10.6999 44.8908 10.3357 44.5126C9.31533 43.6026 7.71238 42.013 6.98284 41.6288C6.54511 41.3983 5.96046 41.463 5.63039 41.9413C5.33654 42.5319 6.6839 44.08 7.23029 44.6472C8.17717 45.7049 10.401 47.3419 11.2382 48.435C11.9667 49.1913 12.7274 51.5484 13.4921 52.417C15.8588 55.2472 17.176 54.4503 17.648 55.5374C22.9869 66.8272 28.4267 78.8047 28.4267 78.8047" stroke="#909498" stroke-width="0.6"/>
</svg>
