<svg width="52" height="58" viewBox="0 0 52 58" fill="none" xmlns="http://www.w3.org/2000/svg">
<g opacity="0.4">
<path d="M36.3095 18.3451L40.9085 17.2128C41.0428 17.1796 41.1652 17.1097 41.2619 17.0108C41.3586 16.912 41.4258 16.788 41.456 16.6531C41.4861 16.5181 41.478 16.3773 41.4325 16.2467C41.3871 16.1161 41.3061 16.0007 41.1986 15.9136L37.3525 12.7981L38.3798 7.95586C38.408 7.82306 38.3992 7.68507 38.3545 7.55691C38.3097 7.42875 38.2306 7.31532 38.1259 7.22897C38.0221 7.14078 37.8956 7.08355 37.7609 7.06382C37.6261 7.04409 37.4885 7.06265 37.3638 7.11738L32.8001 9.04395L30.2894 4.80344C30.2288 4.701 30.1446 4.61461 30.0437 4.55154C29.9428 4.48847 29.8282 4.45057 29.7096 4.44104C29.591 4.4315 29.4718 4.45061 29.3621 4.49675C29.2524 4.54289 29.1554 4.61472 29.0793 4.70617L25.9629 8.44328L22.2654 5.29288C22.1778 5.21825 22.0741 5.16497 21.9624 5.13726C21.8507 5.10955 21.7341 5.10816 21.6218 5.1332C21.5095 5.15824 21.4045 5.20902 21.3151 5.28155C21.2258 5.35407 21.1545 5.44636 21.1069 5.55113L19.1039 9.96331L14.7707 7.79523C14.6677 7.74377 14.5543 7.71691 14.4392 7.71678C14.3241 7.71666 14.2106 7.74326 14.1075 7.79449C14.0045 7.84573 13.9148 7.92019 13.8454 8.01202C13.7761 8.10385 13.729 8.21053 13.7079 8.32366L12.8172 13.0995L8.042 12.1573C7.9253 12.1344 7.8048 12.1398 7.69062 12.1731C7.57644 12.2064 7.47191 12.2666 7.38581 12.3486C7.2997 12.4307 7.23453 12.5322 7.19577 12.6446C7.157 12.7571 7.14577 12.8772 7.16302 12.9948L7.88117 17.8702L3.12279 19.2448C2.99173 19.2813 2.87345 19.3537 2.78125 19.4537C2.68904 19.5538 2.62656 19.6776 2.60084 19.8112C2.57381 19.9443 2.58378 20.0822 2.62966 20.21C2.67555 20.3379 2.75559 20.4507 2.86109 20.5362L6.7072 23.6517L5.67998 28.4943C5.65258 28.6235 5.6601 28.7577 5.70179 28.883C5.74347 29.0083 5.81781 29.1203 5.91714 29.2073C6.01647 29.2944 6.13721 29.3534 6.26692 29.3782C6.39663 29.4031 6.53063 29.3929 6.65511 29.3488C6.66606 29.3449 6.67688 29.3407 6.6877 29.3365L11.0245 27.5683C10.8982 27.0702 10.8306 26.559 10.8232 26.0452L7.42479 27.431L8.25549 23.5148C8.28384 23.3808 8.27465 23.2416 8.22893 23.1125C8.18321 22.9834 8.10273 22.8695 7.99637 22.7832L4.9031 20.2772L8.91698 19.1178C9.09074 19.0696 9.24072 18.9592 9.3383 18.8076C9.43589 18.656 9.47427 18.4737 9.44612 18.2956L8.78693 13.8193L13.2665 14.703C13.3629 14.722 13.462 14.7217 13.5583 14.7022C13.6546 14.6826 13.746 14.6441 13.8273 14.589C13.9086 14.5339 13.9781 14.4631 14.0319 14.3809C14.0856 14.2987 14.1226 14.2067 14.1405 14.1101L14.9878 9.56603L19.1292 11.6381C19.2186 11.6827 19.3161 11.7089 19.4158 11.7151C19.5155 11.7212 19.6155 11.7072 19.7097 11.6739C19.8039 11.6405 19.8904 11.5885 19.964 11.5209C20.0376 11.4534 20.0969 11.3717 20.1382 11.2807L22.0523 7.06402L25.5711 10.0618C25.6459 10.1255 25.7326 10.1739 25.8261 10.2039C25.9197 10.2339 26.0183 10.2451 26.1162 10.2367C26.2141 10.2284 26.3094 10.2007 26.3965 10.1552C26.4836 10.1097 26.5608 10.0474 26.6237 9.97191L29.5467 6.46612L31.8518 10.3595C31.9414 10.5162 32.0859 10.6342 32.2574 10.6907C32.4289 10.7472 32.6152 10.7382 32.7804 10.6654L36.6305 9.04005L35.8042 12.935C35.7759 13.069 35.7851 13.2082 35.8308 13.3373C35.8765 13.4664 35.957 13.5803 36.0633 13.6666L39.1009 16.1273L35.4271 17.0318C35.7593 17.4427 36.0546 17.8822 36.3095 18.3451Z" fill="#909498" stroke="white" stroke-width="0.6"/>
<path d="M35.0086 19.0633C34.4594 18.0604 33.6879 17.1966 32.7532 16.538C31.8186 15.8794 30.7455 15.4435 29.6164 15.2636C22.6872 14.2109 14.573 18.4866 12.5927 24.2357C12.322 25.0055 12.2397 25.8288 12.3526 26.6369C12.4655 27.445 12.7703 28.2143 13.2415 28.8805C13.0108 28.9604 12.7914 29.0699 12.5889 29.2063C12.1643 29.4812 11.8077 29.8489 11.5459 30.2817C11.2841 30.7145 11.1239 31.2011 11.0775 31.7048C10.908 33.4651 11.988 35.6625 14.0405 37.7341C15.8357 39.5453 18.2936 40.7173 20.1577 40.6503C20.1803 40.6479 20.2031 40.6516 20.2238 40.6608C20.2446 40.6701 20.2625 40.6848 20.2757 40.7032C21.181 42.0003 22.5073 42.9441 24.0295 43.3744C23.9599 43.6181 23.9618 43.8766 24.0351 44.1193L25.7766 49.8355C25.7956 49.8932 25.8184 49.9495 25.845 50.0041C25.8475 50.0163 25.8477 50.0284 25.8508 50.0406L26.1081 51.0354C26.4357 52.1085 27.6862 53.3655 29.0124 52.9647L38.2449 49.6921C38.5249 49.6079 38.7854 49.4692 39.0116 49.284C39.2378 49.0988 39.4252 48.8707 39.563 48.6129C39.6873 48.3806 39.7683 48.1276 39.8022 47.8663L40.0393 47.7417C40.437 47.5958 40.7658 47.3065 40.9611 46.9305C41.2239 46.4164 41.2732 45.8193 41.0983 45.2691L39.5637 40.1154L39.5622 40.1102C39.4714 39.7962 39.3104 39.507 39.0913 39.2644C38.8723 39.0218 38.601 38.8322 38.2979 38.7099C39.8909 34.6119 38.0568 24.6101 35.0086 19.0633ZM29.3811 16.7315C29.3917 16.7595 29.4041 16.7867 29.418 16.8132C29.7222 17.3386 29.9653 17.8971 30.1423 18.4779C30.4462 19.4737 30.5502 20.5197 30.4485 21.5558C30.3468 22.5919 30.0413 23.5977 29.5496 24.5154C29.0579 25.4331 28.3897 26.2446 27.5834 26.9032C26.7771 27.5618 25.8486 28.0546 24.8513 28.3532C22.8331 28.9606 20.6566 28.7454 18.7964 27.7546C16.9363 26.7637 15.5433 25.0775 14.9214 23.0637C14.9083 23.0225 14.8915 22.9825 14.8714 22.9443C17.5281 18.809 23.9545 15.9121 29.3811 16.7315ZM27.5394 38.3343C26.6812 35.5256 27.0422 34.1906 27.3339 33.6446C27.4199 33.4691 27.5414 33.3133 27.6905 33.1869C27.8396 33.0606 28.0133 32.9664 28.2006 32.9104C29.513 32.5141 30.8891 34.1031 31.7914 37.057C32.0492 37.9306 32.1655 38.8398 32.1358 39.7502C31.9538 39.8007 31.7699 39.8539 31.5841 39.9097C30.7718 40.1552 29.7959 40.5006 28.8317 40.8632C28.2644 40.0973 27.8277 39.2428 27.5394 38.3343ZM32.0135 41.3329C33.015 41.0337 34.0331 40.7932 35.0627 40.6128L36.6994 46.0732C35.388 46.7535 34.0313 47.3428 32.6391 47.837C30.863 48.4909 29.0287 48.9739 27.161 49.2794L25.496 43.8151C26.6572 43.2964 29.9805 41.9455 32.0135 41.3329ZM28.5497 51.5526C28.3073 51.6258 27.7647 51.1826 27.5747 50.7204C29.4669 50.3927 31.3261 49.8971 33.1305 49.2397L33.2242 49.2065C34.5651 48.7278 35.874 48.1638 37.1429 47.518C37.2625 47.8427 37.499 48.111 37.8062 48.2704C37.7977 48.2733 37.7908 48.2775 37.7822 48.2801L28.5497 51.5526ZM39.6754 45.698C39.7356 45.8719 39.7267 46.0623 39.6505 46.2299C39.6281 46.2729 39.5826 46.3425 39.5327 46.344C39.4874 46.358 39.4434 46.376 39.4013 46.3978L38.4918 46.8763L36.4951 40.2148L37.5153 40.1107C37.5624 40.1059 37.609 40.0967 37.6544 40.083C37.78 40.045 38.0375 40.2091 38.1403 40.5429L39.6754 45.698ZM36.6538 38.7047L36.1531 38.7558C35.9088 38.7831 35.6774 38.8797 35.4862 39.0341C34.9482 39.1167 34.3165 39.2296 33.625 39.3815C33.6191 38.4471 33.4804 37.5182 33.2128 36.6229C31.4537 30.8647 28.6031 31.2361 27.7712 31.4872C27.397 31.6004 27.0494 31.7877 26.7491 32.038C26.4487 32.2883 26.2018 32.5964 26.0229 32.944C25.3219 34.2567 25.3546 36.2707 26.1179 38.7684C26.4124 39.7095 26.8447 40.6018 27.4006 41.4162C26.8506 41.6342 26.3361 41.8436 25.8994 42.0257C24.6516 42.3864 22.4493 41.3158 21.5201 39.891C21.3675 39.6574 21.1567 39.4676 20.9084 39.3403C20.6602 39.2129 20.383 39.1525 20.1043 39.1649C18.6527 39.2171 16.5931 38.1985 15.0966 36.6879C13.4067 34.9826 12.4333 33.1277 12.5568 31.8472C12.582 31.5604 12.6736 31.2834 12.8244 31.0381C12.9752 30.7929 13.1811 30.5861 13.4257 30.4343C13.6079 30.3108 14.1614 29.9324 15.1157 30.5879C16.4212 31.4851 17.2896 33.4491 17.122 34.1606C17.0773 34.3522 17.1104 34.5538 17.2141 34.721C17.3179 34.8882 17.4837 35.0075 17.6752 35.0526C17.8668 35.0978 18.0684 35.065 18.2358 34.9617C18.4033 34.8583 18.5229 34.6928 18.5684 34.5013C18.9108 33.0486 17.6173 30.5038 15.9572 29.3629C15.7878 29.2479 15.6101 29.1456 15.4256 29.0569C15.3747 28.9503 15.2988 28.8575 15.2045 28.7865C14.6016 28.3297 14.1591 27.6936 13.9403 26.9695C13.7216 26.2455 13.7379 25.4708 13.987 24.7566C14.9582 26.8055 16.6315 28.4385 18.7035 29.3594C20.7755 30.2804 23.1089 30.4283 25.2806 29.7763C25.4277 29.7319 25.573 29.6843 25.7166 29.6335C27.9964 28.8267 29.8769 27.1713 30.9662 25.0122C32.0555 22.853 32.2696 20.3568 31.5638 18.0438C31.4975 17.8268 31.4208 17.6137 31.3393 17.4026C32.336 17.9565 33.1563 18.7801 33.7062 19.779C37.1249 26.0001 38.3423 36.3518 36.6538 38.7047Z" fill="#909498" stroke="white" stroke-width="0.6"/>
<path d="M16.7492 23.6686L16.7598 23.6649C16.9446 23.5963 17.0946 23.4571 17.1768 23.278C17.259 23.0989 17.2668 22.8945 17.1983 22.7096C17.1603 22.6076 17.1257 22.5036 17.0935 22.3984C17.0649 22.3051 17.0183 22.2183 16.9562 22.143C16.8941 22.0677 16.8178 22.0054 16.7316 21.9596C16.6454 21.9138 16.5511 21.8854 16.454 21.8761C16.3568 21.8668 16.2588 21.8767 16.1655 21.9052C16.1551 21.9085 16.1447 21.9118 16.1341 21.9155C15.9538 21.9796 15.8051 22.1108 15.7191 22.2817C15.6331 22.4527 15.6163 22.6502 15.6723 22.8332C15.7129 22.9662 15.7568 23.097 15.8046 23.2263C15.8724 23.4093 16.0095 23.5583 16.1863 23.641C16.363 23.7238 16.5652 23.7337 16.7492 23.6686Z" fill="#909498" stroke="white" stroke-width="0.6"/>
<path d="M28.4158 24.5411C28.5876 24.4805 28.731 24.3586 28.8185 24.1988C28.9572 23.9467 29.0804 23.6864 29.1876 23.4194C29.2607 23.2365 29.2582 23.032 29.1806 22.8509C29.103 22.6698 28.9567 22.5269 28.7738 22.4537C28.591 22.3804 28.3865 22.3827 28.2053 22.4601C28.0242 22.5375 27.8812 22.6837 27.8077 22.8665C27.7231 23.0776 27.6258 23.2834 27.5163 23.4828C27.4437 23.6148 27.413 23.7657 27.4282 23.9156C27.4434 24.0655 27.5038 24.2072 27.6013 24.322C27.6989 24.4367 27.829 24.5192 27.9745 24.5583C28.1199 24.5975 28.2738 24.5915 28.4158 24.5411Z" fill="#909498" stroke="white" stroke-width="0.6"/>
<path d="M26.3426 26.7941C26.4 26.7739 26.4546 26.7467 26.5052 26.713C26.7451 26.5541 26.9752 26.381 27.1942 26.1945C27.3443 26.0667 27.4374 25.8846 27.4532 25.6881C27.4689 25.4917 27.406 25.297 27.2782 25.147C27.1505 24.9969 26.9683 24.9038 26.7719 24.888C26.5754 24.8723 26.3808 24.9352 26.2307 25.063C26.0573 25.2108 25.8751 25.3479 25.6852 25.4737C25.534 25.5737 25.4246 25.7257 25.3776 25.9008C25.3306 26.0759 25.3493 26.2622 25.4301 26.4245C25.5109 26.5869 25.6483 26.714 25.8164 26.7821C25.9845 26.8502 26.1716 26.8544 26.3426 26.7941Z" fill="#909498" stroke="white" stroke-width="0.6"/>
<path d="M19.9083 27.4066C20.1754 27.5117 20.4485 27.6008 20.7262 27.6736C20.8208 27.6987 20.9194 27.7049 21.0163 27.6918C21.1133 27.6787 21.2067 27.6466 21.2913 27.5974C21.3758 27.5481 21.4498 27.4826 21.509 27.4047C21.5681 27.3268 21.6113 27.2379 21.6361 27.1433C21.6608 27.0486 21.6667 26.95 21.6532 26.853C21.6398 26.7561 21.6073 26.6628 21.5577 26.5785C21.5081 26.4941 21.4423 26.4204 21.3642 26.3615C21.286 26.3027 21.197 26.2598 21.1022 26.2354C20.8816 26.1778 20.6647 26.1071 20.4525 26.0236C20.3616 25.9875 20.2645 25.9696 20.1667 25.9711C20.0688 25.9726 19.9723 25.9933 19.8825 26.0322C19.7928 26.0711 19.7116 26.1273 19.6436 26.1976C19.5756 26.2679 19.5221 26.351 19.4863 26.442C19.4505 26.533 19.433 26.6303 19.4349 26.7281C19.4367 26.8259 19.4578 26.9223 19.497 27.012C19.5362 27.1016 19.5928 27.1826 19.6633 27.2503C19.7339 27.318 19.8172 27.3711 19.9083 27.4066Z" fill="#909498" stroke="white" stroke-width="0.6"/>
<path d="M28.9421 21.626C29.0397 21.6277 29.1368 21.6102 29.2276 21.5744C29.3184 21.5386 29.4013 21.4852 29.4715 21.4173C29.5416 21.3494 29.5977 21.2683 29.6364 21.1787C29.6751 21.0891 29.6958 20.9927 29.6972 20.8951C29.7019 20.6075 29.6891 20.32 29.659 20.034C29.638 19.8384 29.5402 19.6591 29.3871 19.5355C29.2341 19.4119 29.0383 19.354 28.8426 19.3746C28.6469 19.3952 28.4674 19.4925 28.3434 19.6453C28.2195 19.798 28.1611 19.9937 28.1812 20.1894C28.2048 20.4158 28.2148 20.6433 28.2112 20.8709C28.2096 20.9685 28.2273 21.0654 28.2631 21.1561C28.299 21.2469 28.3524 21.3297 28.4203 21.3998C28.4881 21.4699 28.5692 21.526 28.6587 21.5648C28.7482 21.6036 28.8445 21.6244 28.9421 21.626Z" fill="#909498" stroke="white" stroke-width="0.6"/>
<path d="M23.2924 27.8675C23.5781 27.8371 23.8616 27.7896 24.1416 27.7253C24.1696 27.7188 24.1972 27.7107 24.2243 27.7011C24.403 27.6375 24.5506 27.508 24.6369 27.3392C24.7233 27.1703 24.7418 26.9748 24.6887 26.7927C24.6355 26.6106 24.5148 26.4558 24.3512 26.3598C24.1876 26.2638 23.9935 26.2341 23.8087 26.2765C23.5865 26.3277 23.3614 26.3655 23.1347 26.3898C23.0377 26.4001 22.9436 26.4295 22.858 26.4762C22.7723 26.5229 22.6966 26.586 22.6353 26.6619C22.574 26.7379 22.5283 26.8251 22.5007 26.9187C22.4732 27.0123 22.4643 27.1104 22.4747 27.2075C22.485 27.3045 22.5144 27.3986 22.5611 27.4842C22.6078 27.5699 22.6709 27.6456 22.7468 27.7069C22.8228 27.7681 22.91 27.8139 23.0036 27.8414C23.0972 27.869 23.1954 27.8779 23.2924 27.8675Z" fill="#909498" stroke="white" stroke-width="0.6"/>
<path d="M17.1892 24.3911C17.0407 24.5207 16.9496 24.7039 16.9361 24.9006C16.9226 25.0972 16.9877 25.2912 17.1172 25.4398C17.3065 25.6567 17.5086 25.862 17.7225 26.0546C17.7951 26.12 17.8798 26.1704 17.9719 26.2031C18.064 26.2357 18.1616 26.2499 18.2592 26.2447C18.3567 26.2396 18.4523 26.2153 18.5405 26.1732C18.6286 26.131 18.7076 26.072 18.7729 25.9993C18.8382 25.9266 18.8885 25.8418 18.921 25.7497C18.9535 25.6575 18.9675 25.5599 18.9622 25.4624C18.9569 25.3648 18.9324 25.2693 18.8902 25.1812C18.848 25.0931 18.7888 25.0142 18.716 24.949C18.5469 24.7969 18.3872 24.6347 18.2379 24.4632C18.1083 24.3146 17.9251 24.2236 17.7285 24.21C17.5318 24.1965 17.3378 24.2617 17.1892 24.3911Z" fill="#909498" stroke="white" stroke-width="0.6"/>
<path d="M27.6025 18.2236C27.6838 18.3851 27.8211 18.5114 27.9888 18.5789C28.1564 18.6464 28.343 18.6505 28.5135 18.5904C28.5432 18.5799 28.5723 18.5676 28.6004 18.5535C28.7765 18.4648 28.9102 18.3099 28.972 18.1228C29.0339 17.9356 29.0189 17.7316 28.9303 17.5555C28.868 17.4317 28.8018 17.31 28.733 17.1908C28.6842 17.1062 28.6192 17.0321 28.5417 16.9727C28.4642 16.9132 28.3758 16.8696 28.2815 16.8444C28.1872 16.8191 28.0888 16.8127 27.992 16.8255C27.8952 16.8382 27.8019 16.8699 27.7173 16.9188C27.6328 16.9677 27.5587 17.0327 27.4993 17.1102C27.4399 17.1877 27.3964 17.2761 27.3711 17.3704C27.3459 17.4648 27.3396 17.5631 27.3524 17.6599C27.3652 17.7567 27.397 17.8501 27.4459 17.9346C27.5004 18.0288 27.553 18.1253 27.6025 18.2236Z" fill="#909498" stroke="white" stroke-width="0.6"/>
</g>
</svg>
