<svg width="97" height="97" viewBox="0 0 97 97" fill="none" xmlns="http://www.w3.org/2000/svg">
<path d="M64.4822 31.0603C52.5065 33.6713 44.8931 45.5299 47.5041 57.5056C50.115 69.4813 61.9737 77.0947 73.9494 74.4837C85.9251 71.8727 93.5384 60.0141 90.9274 48.0384C88.3165 36.0627 76.4579 28.4494 64.4822 31.0603ZM85.8253 61.3127L81.093 58.2745C80.6067 59.3382 79.9633 60.3403 79.1629 61.2809L83.8952 64.3191C81.1921 67.7334 77.4072 70.1387 73.202 71.0555C63.146 73.2479 53.1346 66.8599 50.9322 56.7582C50.0154 52.553 50.6269 48.1104 52.6062 44.2314L60.3385 50.2695C60.8249 49.2059 61.4682 48.2037 62.2687 47.2631L54.5364 41.2249C57.2394 37.8106 61.0244 35.4053 65.2296 34.4885C75.2855 32.2961 85.2969 38.6842 87.4893 48.7401C88.3704 53.001 87.8046 57.4337 85.8253 61.3127Z" fill="#D3D4D6" stroke="white" stroke-width="2.9"/>
<path d="M66.953 42.399C61.2394 43.6447 57.5936 49.3234 58.8393 55.037C60.085 60.7506 65.718 64.4064 71.4773 63.1508C77.1909 61.9051 80.8368 56.2263 79.5911 50.5127C78.3454 44.7991 72.6666 41.1533 66.953 42.399ZM74.4539 55.5005L70.0202 56.4671C69.3345 56.6166 68.6207 56.1976 68.4613 55.4663L66.7494 47.6145C66.6 46.9289 67.0189 46.2151 67.7503 46.0557C68.4359 45.9062 69.1497 46.3251 69.3091 47.0565L70.7519 53.6741L73.9058 52.9865C74.5915 52.837 75.3053 53.256 75.4647 53.9873C75.6242 54.7186 75.1396 55.351 74.4539 55.5005Z" stroke="#D3D4D6" stroke-width="0.5"/>
<path d="M8.59817 56.149L14.6141 60.0107C12.286 64.0713 11.3943 68.9739 12.4685 73.901C14.7687 84.4515 25.1889 91.1403 35.7409 88.8397C40.6744 87.7641 44.7622 84.9166 47.4794 81.1072L53.4953 84.9689L54.5517 83.3236L9.6546 54.5037L8.59817 56.149ZM35.3248 86.9312C25.8419 88.9987 16.4468 82.9679 14.3796 73.4863C13.4205 69.087 14.2086 64.7135 16.2667 61.0733L22.9232 65.3461C22.8533 65.9223 22.8661 66.5097 22.9963 67.1067C23.6284 70.006 26.4965 71.8471 29.3962 71.2149L31.389 70.7804L37.9751 75.0081C37.5327 75.9195 36.6924 76.6285 35.6325 76.8595L30.8557 77.901C29.0121 78.3029 27.1849 77.13 26.783 75.2867L26.6789 74.8091L24.7682 75.2257L24.8723 75.7033C25.5044 78.6025 28.3725 80.4436 31.2722 79.8114L32.7052 79.499L33.1218 81.4095L35.0325 80.9929L34.616 79.0824L36.049 78.77C37.6388 78.4234 38.9014 77.3918 39.6216 76.0602L45.8306 80.0458C43.382 83.437 39.7259 85.9695 35.3279 86.9284L35.3248 86.9312ZM24.8958 66.6106L29.0617 69.2848L28.9796 69.3027C27.1361 69.7046 25.3088 68.5317 24.9069 66.6884L24.8903 66.6119L24.8958 66.6106ZM19.9926 56.4931L18.2813 55.3945C20.7566 53.094 23.8644 51.4001 27.4045 50.6283C37.9564 48.3278 48.3767 55.0166 50.6769 65.5671C51.4497 69.1119 51.2018 72.6367 50.1457 75.8438L48.4344 74.7453C49.2592 71.9838 49.4211 68.9877 48.765 65.9782C46.6978 56.4967 37.3027 50.4659 27.8198 52.5333C24.81 53.1895 22.1527 54.5839 19.9848 56.4832L19.9926 56.4931ZM36.4755 64.6669L36.3714 64.1893C35.9695 62.346 34.1423 61.1731 32.2987 61.575L29.0221 62.2894L26.7176 60.8101C26.8443 60.7727 26.9711 60.7353 27.1054 60.706L28.5384 60.3936L28.1219 58.4831L30.0326 58.0665L30.4492 59.977L31.8822 59.6645C34.7819 59.0324 37.65 60.8734 38.2821 63.7727L38.3862 64.2503L36.4755 64.6669Z" fill="#D3D4D6" stroke="white" stroke-width="1.3"/>
<path d="M30.4308 10.2435L30.4342 10.2427L30.4397 10.2414C30.4403 10.2413 30.4409 10.2412 30.4414 10.241C34.3901 9.38049 38.3249 9.74767 41.8489 11.0871L37.7401 19.854C34.2807 18.806 30.5523 19.5968 27.8109 22.0096L20.4132 15.7556C23.0587 13.0734 26.484 11.1039 30.4308 10.2435ZM49.0309 44.1036C46.3851 46.7812 42.9627 48.7455 39.0157 49.606C35.0642 50.4675 31.1271 50.1031 27.6031 48.766L31.725 39.9958C35.2034 41.0365 38.9195 40.2203 41.642 37.829L49.0309 44.1036ZM15.0443 34.2246C14.1815 30.2669 14.5515 26.3261 15.8941 22.7968L24.6546 26.8953C23.6086 30.3407 24.3827 34.0945 26.8155 36.8503L20.5542 44.2385C17.8758 41.596 15.9052 38.1732 15.0443 34.2246ZM53.5611 37.0628L44.7891 32.9568C45.8605 29.435 45.01 25.706 42.6223 22.9982L48.8847 15.6145C51.5702 18.2655 53.5467 21.6941 54.4086 25.6474C55.2706 29.6009 54.9022 33.5385 53.5611 37.0628Z" stroke="#D3D4D6" stroke-width="0.6"/>
</svg>
