<svg width="430" height="231" viewBox="0 0 430 231" fill="none" xmlns="http://www.w3.org/2000/svg">
<path d="M429.669 7.68848L430.667 404.8H-1.8V19.6462C49.7772 12.4057 175.317 -1.54417 258.421 0.380373C258.973 0.479125 259.434 0.614997 259.754 0.783952C260.086 0.958916 260.21 1.1366 260.214 1.29689C260.218 1.46968 260.089 1.73465 259.634 2.0938C259.19 2.44497 258.476 2.85139 257.421 3.31332C253.197 5.16194 243.683 7.82119 224.799 11.4386C193.326 17.2666 146.954 26.5513 110.13 35.4648C91.7199 39.9212 75.6886 44.2864 65.0978 48.082C59.8074 49.9781 55.8547 51.7387 53.6435 53.3063C52.5453 54.0849 51.8338 54.8448 51.6401 55.5849C51.5406 55.965 51.5791 56.3352 51.7638 56.684C51.9448 57.0261 52.2598 57.3355 52.6942 57.617C52.905 57.7725 53.2896 57.8912 53.834 57.9822C54.3953 58.0759 55.1611 58.145 56.1598 58.1781C58.1578 58.2444 61.1046 58.1673 65.2457 57.8479C73.5288 57.2093 86.6041 55.6006 106.45 52.224L106.453 52.2236C148.056 44.5879 262.151 25.3372 385.686 9.42217C394.486 8.31715 407.453 6.90095 417.259 6.24319C422.166 5.91407 426.268 5.77582 428.661 5.95858C429.259 6.00423 429.743 6.06945 430.103 6.15453C430.283 6.19707 430.427 6.24345 430.537 6.29236C430.649 6.3422 430.713 6.3892 430.745 6.42618C430.773 6.45747 430.774 6.47554 430.772 6.49042C430.769 6.51466 430.751 6.56468 430.682 6.64197C430.542 6.79843 430.254 6.99723 429.778 7.23643L429.37 7.44134L429.7 7.56568L429.668 7.59051L429.669 7.68848Z" fill="white" stroke="#070D13" stroke-width="0.4"/>
</svg>
